Radio-Canada-Condensed-LightItalic.ufo
<glyph name="exclam" format="2">
	<advance width="296"/>
	<unicode hex="0021"/>
	<outline>
		<contour>
			<point x="52" y="29" type="curve" smooth="yes"/>
			<point x="52" y="8"/>
			<point x="65" y="-8"/>
			<point x="88" y="-8" type="curve" smooth="yes"/>
			<point x="116" y="-8"/>
			<point x="139" y="17"/>
			<point x="139" y="44" type="curve" smooth="yes"/>
			<point x="139" y="65"/>
			<point x="126" y="81"/>
			<point x="103" y="81" type="curve" smooth="yes"/>
			<point x="75" y="81"/>
			<point x="52" y="56"/>
		</contour>
		<contour>
			<point x="103" y="180" type="line"/>
			<point x="147" y="180" type="line"/>
			<point x="226" y="510" type="line"/>
			<point x="265" y="690" type="line"/>
			<point x="203" y="690" type="line"/>
			<point x="164" y="510" type="line"/>
		</contour>
	</outline>
</glyph>
<glyph name="quotedbl" format="1">
  <advance width="352.9592755975841"/>
  <unicode hex="0022"/>
  <outline>
    <contour>
      <point x="106" y="462" type="line"/>
      <point x="165" y="462" type="line"/>
      <point x="243" y="720" type="line"/>
      <point x="147" y="720" type="line"/>
    </contour>
    <contour>
      <point x="255" y="462" type="line"/>
      <point x="315" y="462" type="line"/>
      <point x="392" y="720" type="line"/>
      <point x="296" y="720" type="line"/>
    </contour>
  </outline>
</glyph>
<glyph name="numbersign" format="2">
  <advance width="619"/>
  <unicode hex="0023"/>
  <outline>
    <contour>
      <point x="39" y="0" type="line"/>
      <point x="123" y="0" type="line"/>
      <point x="402" y="690" type="line"/>
      <point x="318" y="690" type="line"/>
    </contour>
    <contour>
      <point x="38" y="192" type="line"/>
      <point x="497" y="192" type="line"/>
      <point x="513" y="268" type="line"/>
      <point x="54" y="268" type="line"/>
    </contour>
    <contour>
      <point x="137" y="422" type="line"/>
      <point x="596" y="422" type="line"/>
      <point x="612" y="498" type="line"/>
      <point x="153" y="498" type="line"/>
    </contour>
    <contour>
      <point x="245" y="0" type="line"/>
      <point x="329" y="0" type="line"/>
      <point x="608" y="690" type="line"/>
      <point x="523" y="690" type="line"/>
    </contour>
  </outline>
</glyph>
<glyph name="ampersand" format="2">
	<advance width="651"/>
	<unicode hex="0026"/>
	<outline>
		<contour>
			<point x="30" y="150" type="curve"/>
			<point x="30" y="61"/>
			<point x="98" y="-8"/>
			<point x="210" y="-8" type="curve"/>
			<point x="411" y="-8"/>
			<point x="545" y="195"/>
			<point x="586" y="296" type="curve"/>
			<point x="536" y="316" type="line"/>
			<point x="501" y="215"/>
			<point x="367" y="48"/>
			<point x="218" y="48" type="curve"/>
			<point x="151" y="48"/>
			<point x="91" y="84"/>
			<point x="91" y="153" type="curve"/>
			<point x="91" y="214"/>
			<point x="146" y="266"/>
			<point x="217" y="302" type="curve" smooth="yes"/>
			<point x="374" y="382" type="line" smooth="yes"/>
			<point x="465" y="428"/>
			<point x="517" y="477"/>
			<point x="517" y="561" type="curve"/>
			<point x="517" y="634"/>
			<point x="459" y="698"/>
			<point x="367" y="698" type="curve"/>
			<point x="269" y="698"/>
			<point x="187" y="630"/>
			<point x="187" y="530" type="curve"/>
			<point x="187" y="462"/>
			<point x="220" y="400"/>
			<point x="250" y="355" type="curve" smooth="yes"/>
			<point x="483" y="0" type="line"/>
			<point x="555" y="0" type="line"/>
			<point x="300" y="385" type="line" smooth="yes"/>
			<point x="270" y="431"/>
			<point x="249" y="480"/>
			<point x="249" y="531" type="curve"/>
			<point x="249" y="603"/>
			<point x="306" y="642"/>
			<point x="360" y="642" type="curve"/>
			<point x="422" y="642"/>
			<point x="455" y="602"/>
			<point x="455" y="556" type="curve"/>
			<point x="455" y="503"/>
			<point x="423" y="465"/>
			<point x="356" y="432" type="curve" smooth="yes"/>
			<point x="194" y="352" type="line" smooth="yes"/>
			<point x="98" y="305"/>
			<point x="29" y="240"/>
		</contour>
	</outline>
</glyph>
<glyph name="parenleft" format="1">
  <advance width="259.68393622756395"/>
  <unicode hex="0028"/>
  <outline>
    <contour>
      <point x="52" y="141" type="curve" smooth="yes"/>
      <point x="52" y="-29"/>
      <point x="98" y="-152"/>
      <point x="132" y="-233" type="curve"/>
      <point x="187" y="-207" type="line"/>
      <point x="159" y="-120"/>
      <point x="133" y="-22"/>
      <point x="133" y="129" type="curve" smooth="yes"/>
      <point x="133" y="343"/>
      <point x="239" y="572"/>
      <point x="388" y="726" type="curve"/>
      <point x="346" y="767" type="line"/>
      <point x="182" y="612"/>
      <point x="52" y="397"/>
    </contour>
  </outline>
</glyph>
<glyph name="plus" format="2">
	<advance width="600"/>
	<unicode hex="002B"/>
	<outline>
		<contour>
			<point x="75" y="263" type="line"/>
			<point x="517" y="263" type="line"/>
			<point x="528" y="317" type="line"/>
			<point x="86" y="317" type="line"/>
		</contour>
		<contour>
			<point x="227" y="70" type="line"/>
			<point x="283" y="70" type="line"/>
			<point x="376" y="510" type="line"/>
			<point x="320" y="510" type="line"/>
		</contour>
	</outline>
</glyph>
<glyph name="comma" format="2">
	<advance width="208"/>
	<unicode hex="002C"/>
	<outline>
		<contour>
			<point x="-28" y="-134" type="line"/>
			<point x="12" y="-134" type="line"/>
			<point x="75" y="-18" type="line" smooth="yes"/>
			<point x="87" y="4"/>
			<point x="95" y="24"/>
			<point x="95" y="38" type="curve"/>
			<point x="95" y="64"/>
			<point x="79" y="81"/>
			<point x="57" y="81" type="curve"/>
			<point x="28" y="81"/>
			<point x="8" y="57"/>
			<point x="8" y="28" type="curve" smooth="yes"/>
			<point x="8" y="13"/>
			<point x="16" y="1"/>
			<point x="28" y="-5" type="curve"/>
		</contour>
	</outline>
</glyph>
<glyph name="period" format="2">
	<advance width="208"/>
	<unicode hex="002E"/>
	<outline>
		<contour>
			<point x="8" y="29" type="curve" smooth="yes"/>
			<point x="8" y="8"/>
			<point x="21" y="-8"/>
			<point x="44" y="-8" type="curve" smooth="yes"/>
			<point x="72" y="-8"/>
			<point x="95" y="17"/>
			<point x="95" y="44" type="curve" smooth="yes"/>
			<point x="95" y="65"/>
			<point x="82" y="81"/>
			<point x="59" y="81" type="curve" smooth="yes"/>
			<point x="31" y="81"/>
			<point x="8" y="56"/>
		</contour>
	</outline>
</glyph>
<glyph name="zero" format="2">
	<advance width="500"/>
	<unicode hex="0030"/>
	<outline>
		<contour>
			<point x="56" y="228" type="curve"/>
			<point x="56" y="86"/>
			<point x="103" y="-8"/>
			<point x="202" y="-8" type="curve"/>
			<point x="374" y="-8"/>
			<point x="472" y="243"/>
			<point x="472" y="446" type="curve"/>
			<point x="472" y="582"/>
			<point x="443" y="698"/>
			<point x="326" y="698" type="curve"/>
			<point x="151" y="698"/>
			<point x="56" y="443"/>
		</contour>
		<contour>
			<point x="120" y="231" type="curve"/>
			<point x="120" y="405"/>
			<point x="198" y="641"/>
			<point x="324" y="641" type="curve"/>
			<point x="391" y="641"/>
			<point x="408" y="546"/>
			<point x="408" y="443" type="curve"/>
			<point x="408" y="281"/>
			<point x="326" y="49"/>
			<point x="204" y="49" type="curve"/>
			<point x="143" y="49"/>
			<point x="120" y="140"/>
		</contour>
	</outline>
</glyph>
<glyph name="one" format="2">
  <advance width="500"/>
  <unicode hex="0031"/>
  <outline>
    <contour>
      <point x="21" y="0" type="line"/>
      <point x="366" y="0" type="line"/>
      <point x="382" y="75" type="line"/>
      <point x="37" y="75" type="line"/>
    </contour>
    <contour>
      <point x="128" y="602" type="line"/>
      <point x="155" y="531" type="line"/>
      <point x="332" y="614" type="line"/>
      <point x="317" y="690" type="line"/>
    </contour>
    <contour>
      <point x="149" y="0" type="line"/>
      <point x="238" y="0" type="line"/>
      <point x="385" y="690" type="line"/>
      <point x="317" y="690" type="line"/>
      <point x="284" y="637" type="line"/>
    </contour>
  </outline>
</glyph>
<glyph name="three" format="2">
	<advance width="500"/>
	<unicode hex="0033"/>
	<outline>
		<contour>
			<point x="7" y="86" type="line"/>
			<point x="35" y="52"/>
			<point x="99" y="-8"/>
			<point x="203" y="-8" type="curve"/>
			<point x="344" y="-8"/>
			<point x="429" y="97"/>
			<point x="429" y="229" type="curve" smooth="yes"/>
			<point x="429" y="320"/>
			<point x="355" y="396"/>
			<point x="221" y="396" type="curve" smooth="yes"/>
			<point x="186" y="396" type="line"/>
			<point x="129" y="384" type="line"/>
			<point x="120" y="345" type="line"/>
			<point x="190" y="345" type="line" smooth="yes"/>
			<point x="314" y="345"/>
			<point x="367" y="282"/>
			<point x="367" y="221" type="curve" smooth="yes"/>
			<point x="367" y="126"/>
			<point x="311" y="48"/>
			<point x="212" y="48" type="curve"/>
			<point x="127" y="48"/>
			<point x="81" y="92"/>
			<point x="51" y="128" type="curve"/>
		</contour>
		<contour>
			<point x="140" y="634" type="line"/>
			<point x="432" y="634" type="line"/>
			<point x="483" y="647" type="line"/>
			<point x="492" y="690" type="line"/>
			<point x="152" y="690" type="line"/>
		</contour>
		<contour>
			<point x="129" y="384" type="line"/>
			<point x="204" y="384" type="line"/>
			<point x="483" y="647" type="line"/>
			<point x="447" y="690" type="line"/>
		</contour>
	</outline>
</glyph>
<glyph name="four" format="2">
	<advance width="500"/>
	<unicode hex="0034"/>
	<outline>
		<contour>
			<point x="11" y="149" type="line"/>
			<point x="424" y="149" type="line"/>
			<point x="435" y="203" type="line"/>
			<point x="78" y="203" type="line"/>
			<point x="20" y="191" type="line"/>
		</contour>
		<contour>
			<point x="20" y="191" type="line"/>
			<point x="59" y="149" type="line"/>
			<point x="450" y="690" type="line"/>
			<point x="381" y="690" type="line"/>
		</contour>
		<contour>
			<point x="268" y="0" type="line"/>
			<point x="330" y="0" type="line"/>
			<point x="477" y="690" type="line"/>
			<point x="418" y="690" type="line"/>
		</contour>
	</outline>
</glyph>
<glyph name="seven" format="1">
  <advance width="500"/>
  <unicode hex="0037"/>
  <outline>
    <contour>
      <point x="69" y="0" type="line"/>
      <point x="173" y="0" type="line"/>
      <point x="496" y="628" type="line"/>
      <point x="439" y="690" type="line"/>
    </contour>
    <contour>
      <point x="121" y="602" type="line"/>
      <point x="450" y="602" type="line"/>
      <point x="496" y="628" type="line"/>
      <point x="510" y="690" type="line"/>
      <point x="140" y="690" type="line"/>
    </contour>
  </outline>
</glyph>
<glyph name="eight" format="1">
  <advance width="500"/>
  <unicode hex="0038"/>
  <outline>
    <contour>
      <point x="24" y="157" type="curve"/>
      <point x="24" y="59"/>
      <point x="103" y="-10"/>
      <point x="202" y="-10" type="curve" smooth="yes"/>
      <point x="339" y="-10"/>
      <point x="431" y="94"/>
      <point x="431" y="198" type="curve" smooth="yes"/>
      <point x="431" y="280"/>
      <point x="393" y="329"/>
      <point x="287" y="389" type="curve" smooth="yes"/>
      <point x="221" y="427"/>
      <point x="204" y="466"/>
      <point x="204" y="514" type="curve" smooth="yes"/>
      <point x="204" y="564"/>
      <point x="244" y="622"/>
      <point x="313" y="622" type="curve" smooth="yes"/>
      <point x="367" y="622"/>
      <point x="392" y="581"/>
      <point x="392" y="535" type="curve" smooth="yes"/>
      <point x="392" y="481"/>
      <point x="344" y="417"/>
      <point x="262" y="392" type="curve"/>
      <point x="316" y="356" type="line"/>
      <point x="389" y="385"/>
      <point x="479" y="461"/>
      <point x="479" y="554" type="curve"/>
      <point x="479" y="635"/>
      <point x="426" y="700"/>
      <point x="324" y="700" type="curve" smooth="yes"/>
      <point x="198" y="700"/>
      <point x="110" y="606"/>
      <point x="110" y="512" type="curve" smooth="yes"/>
      <point x="110" y="427"/>
      <point x="157" y="373"/>
      <point x="245" y="321" type="curve" smooth="yes"/>
      <point x="320" y="277"/>
      <point x="339" y="238"/>
      <point x="339" y="187" type="curve" smooth="yes"/>
      <point x="339" y="128"/>
      <point x="290" y="66"/>
      <point x="213" y="66" type="curve" smooth="yes"/>
      <point x="149" y="66"/>
      <point x="111" y="114"/>
      <point x="111" y="170" type="curve"/>
      <point x="111" y="242"/>
      <point x="171" y="308"/>
      <point x="251" y="329" type="curve"/>
      <point x="198" y="368" type="line"/>
      <point x="96" y="335"/>
      <point x="24" y="250"/>
    </contour>
  </outline>
</glyph>
<glyph name="less" format="2">
	<advance width="600"/>
	<unicode hex="003C"/>
	<outline>
		<contour>
			<point x="80" y="264" type="line"/>
			<point x="437" y="62" type="line"/>
			<point x="449" y="117" type="line"/>
			<point x="125" y="298" type="line"/>
			<point x="89" y="306" type="line"/>
		</contour>
		<contour>
			<point x="83" y="277" type="line"/>
			<point x="119" y="269" type="line"/>
			<point x="521" y="453" type="line"/>
			<point x="534" y="518" type="line"/>
			<point x="91" y="316" type="line"/>
		</contour>
	</outline>
</glyph>
<glyph name="greater" format="2">
  <advance width="500"/>
  <unicode hex="003E"/>
  <outline>
    <contour>
      <point x="37" y="55" type="line"/>
      <point x="433.0" y="253" type="line"/>
      <point x="449.0" y="329" type="line"/>
      <point x="384.0" y="309" type="line"/>
      <point x="57.0" y="150" type="line"/>
    </contour>
    <contour>
      <point x="119" y="444" type="line"/>
      <point x="381" y="284" type="line"/>
      <point x="433" y="253" type="line"/>
      <point x="449" y="329" type="line"/>
      <point x="136" y="524" type="line"/>
    </contour>
  </outline>
</glyph>
<glyph name="question" format="2">
	<advance width="491"/>
	<unicode hex="003F"/>
	<outline>
		<contour>
			<point x="146" y="29" type="curve" smooth="yes"/>
			<point x="146" y="8"/>
			<point x="159" y="-8"/>
			<point x="182" y="-8" type="curve" smooth="yes"/>
			<point x="210" y="-8"/>
			<point x="233" y="17"/>
			<point x="233" y="44" type="curve" smooth="yes"/>
			<point x="233" y="65"/>
			<point x="220" y="81"/>
			<point x="197" y="81" type="curve" smooth="yes"/>
			<point x="169" y="81"/>
			<point x="146" y="56"/>
		</contour>
		<contour>
			<point x="95" y="586" type="curve"/>
			<point x="130" y="551" type="line"/>
			<point x="177" y="601"/>
			<point x="234" y="640"/>
			<point x="301" y="640" type="curve"/>
			<point x="364" y="640"/>
			<point x="408" y="596"/>
			<point x="408" y="537" type="curve"/>
			<point x="408" y="473"/>
			<point x="369" y="434"/>
			<point x="297" y="390" type="curve" smooth="yes"/>
			<point x="242" y="357"/>
			<point x="211" y="323"/>
			<point x="202" y="268" type="curve" smooth="yes"/>
			<point x="187" y="180" type="line"/>
			<point x="234" y="180" type="line"/>
			<point x="254" y="254" type="line" smooth="yes"/>
			<point x="265" y="294"/>
			<point x="285" y="322"/>
			<point x="321" y="343" type="curve" smooth="yes"/>
			<point x="402" y="390"/>
			<point x="473" y="445"/>
			<point x="473" y="546" type="curve"/>
			<point x="473" y="618"/>
			<point x="414" y="698"/>
			<point x="306" y="698" type="curve"/>
			<point x="220" y="698"/>
			<point x="151" y="654"/>
		</contour>
	</outline>
</glyph>
<glyph name="at" format="2">
	<advance width="830"/>
	<unicode hex="0040"/>
	<outline>
		<contour>
			<point x="44" y="138" type="curve" smooth="yes"/>
			<point x="44" y="-59"/>
			<point x="144" y="-193"/>
			<point x="328" y="-193" type="curve" smooth="yes"/>
			<point x="424" y="-193"/>
			<point x="490" y="-177"/>
			<point x="556" y="-149" type="curve"/>
			<point x="543" y="-97" type="line"/>
			<point x="480" y="-128"/>
			<point x="421" y="-141"/>
			<point x="336" y="-141" type="curve" smooth="yes"/>
			<point x="180" y="-141"/>
			<point x="101" y="-23"/>
			<point x="101" y="146" type="curve" smooth="yes"/>
			<point x="101" y="422"/>
			<point x="217" y="646"/>
			<point x="462" y="646" type="curve"/>
			<point x="626" y="646"/>
			<point x="723" y="551"/>
			<point x="723" y="360" type="curve"/>
			<point x="723" y="188"/>
			<point x="677" y="44"/>
			<point x="595" y="44" type="curve"/>
			<point x="545" y="44"/>
			<point x="510" y="101"/>
			<point x="526" y="164" type="curve" smooth="yes"/>
			<point x="609" y="492" type="line"/>
			<point x="559" y="492" type="line"/>
			<point x="521" y="389" type="line"/>
			<point x="485" y="221" type="line" smooth="yes"/>
			<point x="464" y="121"/>
			<point x="405" y="67"/>
			<point x="350" y="67" type="curve"/>
			<point x="303" y="67"/>
			<point x="279" y="99"/>
			<point x="279" y="185" type="curve"/>
			<point x="279" y="302"/>
			<point x="329" y="449"/>
			<point x="430" y="449" type="curve" smooth="yes"/>
			<point x="477" y="449"/>
			<point x="502" y="421"/>
			<point x="528" y="372" type="curve"/>
			<point x="543" y="424" type="line"/>
			<point x="512" y="471"/>
			<point x="481" y="500"/>
			<point x="430" y="500" type="curve"/>
			<point x="296" y="500"/>
			<point x="217" y="338"/>
			<point x="217" y="178" type="curve"/>
			<point x="217" y="84"/>
			<point x="250" y="13"/>
			<point x="331" y="13" type="curve"/>
			<point x="397" y="13"/>
			<point x="449" y="63"/>
			<point x="485" y="131" type="curve"/>
			<point x="469" y="138" type="line"/>
			<point x="459" y="59"/>
			<point x="515" y="-8"/>
			<point x="605" y="-8" type="curve"/>
			<point x="714" y="-8"/>
			<point x="779" y="150"/>
			<point x="779" y="365" type="curve"/>
			<point x="779" y="582"/>
			<point x="654" y="698"/>
			<point x="470" y="698" type="curve"/>
			<point x="187" y="698"/>
			<point x="44" y="468"/>
		</contour>
	</outline>
</glyph>
<glyph name="A" format="2">
	<advance width="575"/>
	<unicode hex="0041"/>
	<guideline x="228" y="0" angle="78" identifier="L6PCExRGN1"/>
	<anchor x="374" y="690" name="top"/>
	<anchor x="228" y="0" name="bottom"/>
	<anchor x="435" y="0" name="ogonek"/>
	<outline>
		<contour>
			<point x="-42" y="0" type="line"/>
			<point x="24" y="0" type="line"/>
			<point x="385" y="645" type="line"/>
			<point x="390" y="690" type="line"/>
			<point x="350" y="690" type="line"/>
		</contour>
		<contour>
			<point x="128" y="226" type="line"/>
			<point x="421" y="226" type="line"/>
			<point x="433" y="280" type="line"/>
			<point x="140" y="280" type="line"/>
		</contour>
		<contour>
			<point x="350" y="645" type="line"/>
			<point x="435" y="0" type="line"/>
			<point x="497" y="0" type="line"/>
			<point x="399" y="690" type="line"/>
			<point x="358" y="690" type="line"/>
		</contour>
	</outline>
</glyph>
<glyph name="B" format="2">
	<advance width="509"/>
	<unicode hex="0042"/>
	<outline>
		<contour>
			<point x="37" y="0" type="line"/>
			<point x="99" y="0" type="line"/>
			<point x="246" y="690" type="line"/>
			<point x="184" y="690" type="line"/>
		</contour>
		<contour>
			<point x="67" y="0" type="line"/>
			<point x="171" y="0" type="line" smooth="yes"/>
			<point x="342" y="0"/>
			<point x="432" y="93"/>
			<point x="432" y="216" type="curve" smooth="yes"/>
			<point x="432" y="311"/>
			<point x="355" y="370"/>
			<point x="240" y="370" type="curve" smooth="yes"/>
			<point x="146" y="370" type="line"/>
			<point x="137" y="330" type="line"/>
			<point x="226" y="330" type="line" smooth="yes"/>
			<point x="315" y="330"/>
			<point x="368" y="285"/>
			<point x="368" y="211" type="curve" smooth="yes"/>
			<point x="368" y="124"/>
			<point x="306" y="54"/>
			<point x="177" y="54" type="curve" smooth="yes"/>
			<point x="78" y="54" type="line"/>
		</contour>
		<contour>
			<point x="139" y="340" type="line"/>
			<point x="213" y="340" type="line" smooth="yes"/>
			<point x="368" y="340"/>
			<point x="466" y="430"/>
			<point x="466" y="539" type="curve" smooth="yes"/>
			<point x="466" y="632"/>
			<point x="391" y="690"/>
			<point x="288" y="690" type="curve" smooth="yes"/>
			<point x="214" y="690" type="line"/>
			<point x="202" y="636" type="line"/>
			<point x="271" y="636" type="line" smooth="yes"/>
			<point x="358" y="636"/>
			<point x="400" y="601"/>
			<point x="400" y="531" type="curve" smooth="yes"/>
			<point x="400" y="457"/>
			<point x="333" y="380"/>
			<point x="217" y="380" type="curve" smooth="yes"/>
			<point x="148" y="380" type="line"/>
		</contour>
	</outline>
</glyph>
<glyph name="C" format="2">
	<advance width="516"/>
	<unicode hex="0043"/>
	<anchor x="418" y="690" name="top"/>
	<anchor x="287" y="0" name="bottom"/>
	<outline>
		<contour>
			<point x="67" y="229" type="curve" smooth="yes"/>
			<point x="67" y="76"/>
			<point x="129" y="-8"/>
			<point x="235" y="-8" type="curve" smooth="yes"/>
			<point x="324" y="-8"/>
			<point x="384" y="29"/>
			<point x="441" y="98" type="curve"/>
			<point x="404" y="138" type="line"/>
			<point x="358" y="88"/>
			<point x="313" y="49"/>
			<point x="242" y="49" type="curve" smooth="yes"/>
			<point x="165" y="49"/>
			<point x="132" y="115"/>
			<point x="132" y="236" type="curve" smooth="yes"/>
			<point x="132" y="452"/>
			<point x="226" y="641"/>
			<point x="362" y="641" type="curve" smooth="yes"/>
			<point x="405" y="641"/>
			<point x="439" y="616"/>
			<point x="467" y="569" type="curve"/>
			<point x="517" y="604" type="line"/>
			<point x="470" y="672"/>
			<point x="428" y="698"/>
			<point x="369" y="698" type="curve" smooth="yes"/>
			<point x="194" y="698"/>
			<point x="67" y="482"/>
		</contour>
	</outline>
</glyph>
<glyph name="D" format="2">
	<advance width="560"/>
	<unicode hex="0044"/>
	<anchor x="325" y="690" name="top"/>
	<outline>
		<contour>
			<point x="24" y="0" type="line"/>
			<point x="86" y="0" type="line"/>
			<point x="233" y="690" type="line"/>
			<point x="171" y="690" type="line"/>
		</contour>
		<contour>
			<point x="54" y="0" type="line"/>
			<point x="138" y="0" type="line" smooth="yes"/>
			<point x="373" y="0"/>
			<point x="520" y="193"/>
			<point x="520" y="444" type="curve" smooth="yes"/>
			<point x="520" y="591"/>
			<point x="435" y="690"/>
			<point x="279" y="690" type="curve" smooth="yes"/>
			<point x="201" y="690" type="line"/>
			<point x="189" y="636" type="line"/>
			<point x="272" y="636" type="line" smooth="yes"/>
			<point x="398" y="636"/>
			<point x="456" y="562"/>
			<point x="456" y="434" type="curve" smooth="yes"/>
			<point x="456" y="227"/>
			<point x="331" y="54"/>
			<point x="145" y="54" type="curve" smooth="yes"/>
			<point x="65" y="54" type="line"/>
		</contour>
	</outline>
</glyph>
<glyph name="E" format="2">
	<advance width="498"/>
	<unicode hex="0045"/>
	<anchor x="349" y="690" name="top"/>
	<anchor x="215" y="0" name="bottom"/>
	<anchor x="304" y="0" name="ogonek"/>
	<outline>
		<contour>
			<point x="30" y="0" type="line"/>
			<point x="92" y="0" type="line"/>
			<point x="239" y="690" type="line"/>
			<point x="177" y="690" type="line"/>
		</contour>
		<contour>
			<point x="60" y="0" type="line"/>
			<point x="366" y="0" type="line"/>
			<point x="377" y="54" type="line"/>
			<point x="71" y="54" type="line"/>
		</contour>
		<contour>
			<point x="128" y="322" type="line"/>
			<point x="383" y="322" type="line"/>
			<point x="394" y="374" type="line"/>
			<point x="139" y="374" type="line"/>
		</contour>
		<contour>
			<point x="195" y="636" type="line"/>
			<point x="496" y="636" type="line"/>
			<point x="508" y="690" type="line"/>
			<point x="207" y="690" type="line"/>
		</contour>
	</outline>
</glyph>
<glyph name="F" format="2">
	<advance width="457"/>
	<unicode hex="0046"/>
	<outline>
		<contour>
			<point x="34" y="0" type="line"/>
			<point x="96" y="0" type="line"/>
			<point x="243" y="690" type="line"/>
			<point x="181" y="690" type="line"/>
		</contour>
		<contour>
			<point x="128" y="301" type="line"/>
			<point x="388" y="301" type="line"/>
			<point x="399" y="355" type="line"/>
			<point x="139" y="355" type="line"/>
		</contour>
		<contour>
			<point x="199" y="636" type="line"/>
			<point x="497" y="636" type="line"/>
			<point x="509" y="690" type="line"/>
			<point x="211" y="690" type="line"/>
		</contour>
	</outline>
</glyph>
<glyph name="G" format="2">
	<advance width="556"/>
	<unicode hex="0047"/>
	<anchor x="435" y="690" name="top"/>
	<anchor x="305" y="0" name="bottom"/>
	<outline>
		<contour>
			<point x="67" y="229" type="curve" smooth="yes"/>
			<point x="67" y="79"/>
			<point x="154" y="-8"/>
			<point x="247" y="-8" type="curve"/>
			<point x="326" y="-8"/>
			<point x="384" y="17"/>
			<point x="451" y="87" type="curve"/>
			<point x="413" y="128" type="line"/>
			<point x="362" y="70"/>
			<point x="320" y="48"/>
			<point x="254" y="48" type="curve"/>
			<point x="190" y="48"/>
			<point x="132" y="118"/>
			<point x="132" y="236" type="curve" smooth="yes"/>
			<point x="132" y="452"/>
			<point x="250" y="641"/>
			<point x="364" y="641" type="curve" smooth="yes"/>
			<point x="416" y="641"/>
			<point x="456" y="616"/>
			<point x="486" y="568" type="curve"/>
			<point x="540" y="602" type="line"/>
			<point x="493" y="667"/>
			<point x="441" y="698"/>
			<point x="371" y="698" type="curve" smooth="yes"/>
			<point x="218" y="698"/>
			<point x="67" y="482"/>
		</contour>
		<contour>
			<point x="339" y="276" type="line"/>
			<point x="462" y="276" type="line"/>
			<point x="473" y="330" type="line"/>
			<point x="350" y="330" type="line"/>
		</contour>
		<contour>
			<point x="389" y="87" type="line"/>
			<point x="451" y="87" type="line"/>
			<point x="503" y="330" type="line"/>
			<point x="441" y="330" type="line"/>
		</contour>
	</outline>
</glyph>
<glyph name="H" format="2">
	<advance width="588"/>
	<unicode hex="0048"/>
	<anchor x="386" y="690" name="top"/>
	<outline>
		<contour>
			<point x="36" y="0" type="line"/>
			<point x="98" y="0" type="line"/>
			<point x="245" y="690" type="line"/>
			<point x="183" y="690" type="line"/>
		</contour>
		<contour>
			<point x="134" y="321" type="line"/>
			<point x="481" y="321" type="line"/>
			<point x="493" y="375" type="line"/>
			<point x="146" y="375" type="line"/>
		</contour>
		<contour>
			<point x="381" y="0" type="line"/>
			<point x="443" y="0" type="line"/>
			<point x="590" y="690" type="line"/>
			<point x="528" y="690" type="line"/>
		</contour>
	</outline>
</glyph>
<glyph name="I" format="2">
	<advance width="370"/>
	<unicode hex="0049"/>
	<anchor x="280" y="690" name="top"/>
	<anchor x="151" y="0" name="bottom"/>
	<anchor x="132" y="0" name="ogonek"/>
	<outline>
		<contour>
			<point x="25" y="0" type="line"/>
			<point x="237" y="0" type="line"/>
			<point x="248" y="50" type="line"/>
			<point x="36" y="50" type="line"/>
		</contour>
		<contour>
			<point x="100" y="0" type="line"/>
			<point x="162" y="0" type="line"/>
			<point x="309" y="690" type="line"/>
			<point x="247" y="690" type="line"/>
		</contour>
		<contour>
			<point x="161" y="640" type="line"/>
			<point x="373" y="640" type="line"/>
			<point x="384" y="690" type="line"/>
			<point x="172" y="690" type="line"/>
		</contour>
	</outline>
</glyph>
<glyph name="J" format="2">
	<advance width="438"/>
	<unicode hex="004A"/>
	<anchor x="350" y="690" name="top"/>
	<outline>
		<contour>
			<point x="11" y="75" type="line"/>
			<point x="48" y="20"/>
			<point x="98" y="-8"/>
			<point x="156" y="-8" type="curve" smooth="yes"/>
			<point x="247" y="-8"/>
			<point x="324" y="52"/>
			<point x="359" y="215" type="curve" smooth="yes"/>
			<point x="460" y="690" type="line"/>
			<point x="398" y="690" type="line"/>
			<point x="298" y="220" type="line" smooth="yes"/>
			<point x="274" y="105"/>
			<point x="215" y="50"/>
			<point x="161" y="50" type="curve" smooth="yes"/>
			<point x="116" y="50"/>
			<point x="82" y="80"/>
			<point x="54" y="115" type="curve"/>
		</contour>
		<contour>
			<point x="232" y="640" type="line"/>
			<point x="423" y="640" type="line"/>
			<point x="434" y="690" type="line"/>
			<point x="243" y="690" type="line"/>
		</contour>
	</outline>
</glyph>
<glyph name="K" format="2">
	<advance width="509"/>
	<unicode hex="004B"/>
	<anchor x="210" y="0" name="bottom"/>
	<outline>
		<contour>
			<point x="26" y="0" type="line"/>
			<point x="88" y="0" type="line"/>
			<point x="235" y="690" type="line"/>
			<point x="173" y="690" type="line"/>
		</contour>
		<contour>
			<point x="108" y="216" type="line"/>
			<point x="555" y="690" type="line"/>
			<point x="483" y="690" type="line"/>
			<point x="126" y="309" type="line"/>
		</contour>
		<contour>
			<point x="221" y="361" type="line"/>
			<point x="361" y="-3" type="line"/>
			<point x="424" y="-3" type="line"/>
			<point x="269" y="402" type="line"/>
		</contour>
	</outline>
</glyph>
<glyph name="L" format="2">
	<advance width="444"/>
	<unicode hex="004C"/>
	<anchor x="209" y="690" name="top"/>
	<anchor x="380" y="680" name="caron.alt"/>
	<anchor x="197" y="0" name="bottom"/>
	<outline>
		<contour>
			<point x="26" y="0" type="line"/>
			<point x="88" y="0" type="line"/>
			<point x="235" y="690" type="line"/>
			<point x="173" y="690" type="line"/>
		</contour>
		<contour>
			<point x="56" y="0" type="line"/>
			<point x="340" y="0" type="line"/>
			<point x="351" y="54" type="line"/>
			<point x="67" y="54" type="line"/>
		</contour>
	</outline>
</glyph>
<glyph name="M" format="1">
  <advance width="670.3359724476848"/>
  <unicode hex="004D"/>
  <outline>
    <contour>
      <point x="17" y="0" type="line"/>
      <point x="104" y="0" type="line"/>
      <point x="251" y="690" type="line"/>
      <point x="164" y="690" type="line"/>
    </contour>
    <contour>
      <point x="205" y="690" type="line"/>
      <point x="279" y="164" type="line"/>
      <point x="312" y="164" type="line"/>
      <point x="340" y="286" type="line"/>
      <point x="282" y="690" type="line"/>
    </contour>
    <contour>
      <point x="303" y="164" type="line"/>
      <point x="341" y="164" type="line"/>
      <point x="639" y="690" type="line"/>
      <point x="553" y="690" type="line"/>
      <point x="331" y="286" type="line"/>
    </contour>
    <contour>
      <point x="446" y="0" type="line"/>
      <point x="533" y="0" type="line"/>
      <point x="680" y="690" type="line"/>
      <point x="593" y="690" type="line"/>
    </contour>
  </outline>
</glyph>
<glyph name="N" format="2">
	<advance width="709"/>
	<unicode hex="004E"/>
	<anchor x="443" y="690" name="top"/>
	<anchor x="289" y="0" name="bottom"/>
	<outline>
		<contour>
			<point x="44" y="0" type="line"/>
			<point x="106" y="0" type="line"/>
			<point x="253" y="690" type="line"/>
			<point x="191" y="690" type="line"/>
		</contour>
		<contour>
			<point x="209" y="690" type="line"/>
			<point x="465" y="0" type="line"/>
			<point x="527" y="0" type="line"/>
			<point x="271" y="690" type="line"/>
		</contour>
		<contour>
			<point x="483" y="0" type="line"/>
			<point x="545" y="0" type="line"/>
			<point x="692" y="690" type="line"/>
			<point x="630" y="690" type="line"/>
		</contour>
	</outline>
</glyph>
<glyph name="O" format="2">
	<advance width="585"/>
	<unicode hex="004F"/>
	<anchor x="412" y="690" name="top"/>
	<anchor x="226" y="0" name="bottom"/>
	<anchor x="280" y="0" name="ogonek"/>
	<outline>
		<contour>
			<point x="67" y="239" type="curve"/>
			<point x="67" y="86"/>
			<point x="136" y="-8"/>
			<point x="245" y="-8" type="curve"/>
			<point x="430" y="-8"/>
			<point x="567" y="208"/>
			<point x="567" y="451" type="curve"/>
			<point x="567" y="604"/>
			<point x="505" y="698"/>
			<point x="379" y="698" type="curve"/>
			<point x="204" y="698"/>
			<point x="67" y="492"/>
		</contour>
		<contour>
			<point x="132" y="246" type="curve"/>
			<point x="132" y="462"/>
			<point x="236" y="641"/>
			<point x="372" y="641" type="curve"/>
			<point x="469" y="641"/>
			<point x="502" y="565"/>
			<point x="502" y="444" type="curve"/>
			<point x="502" y="238"/>
			<point x="398" y="49"/>
			<point x="252" y="49" type="curve"/>
			<point x="172" y="49"/>
			<point x="132" y="125"/>
		</contour>
	</outline>
</glyph>
<glyph name="P" format="2">
	<advance width="502"/>
	<unicode hex="0050"/>
	<outline>
		<contour>
			<point x="16" y="0" type="line"/>
			<point x="78" y="0" type="line"/>
			<point x="225" y="690" type="line"/>
			<point x="163" y="690" type="line"/>
		</contour>
		<contour>
			<point x="99" y="250" type="line"/>
			<point x="214" y="250" type="line" smooth="yes"/>
			<point x="393" y="250"/>
			<point x="499" y="360"/>
			<point x="499" y="509" type="curve" smooth="yes"/>
			<point x="499" y="616"/>
			<point x="427" y="690"/>
			<point x="308" y="690" type="curve" smooth="yes"/>
			<point x="193" y="690" type="line"/>
			<point x="181" y="636" type="line"/>
			<point x="296" y="636" type="line" smooth="yes"/>
			<point x="394" y="636"/>
			<point x="434" y="587"/>
			<point x="434" y="503" type="curve"/>
			<point x="434" y="388"/>
			<point x="363" y="304"/>
			<point x="221" y="304" type="curve" smooth="yes"/>
			<point x="111" y="304" type="line"/>
		</contour>
	</outline>
</glyph>
<glyph name="Q" format="2">
	<advance width="697"/>
	<unicode hex="0051"/>
	<outline>
		<contour>
			<point x="342" y="7" type="line"/>
			<point x="373" y="-97"/>
			<point x="456" y="-146"/>
			<point x="569" y="-150" type="curve"/>
			<point x="583" y="-87" type="line"/>
			<point x="494" y="-87"/>
			<point x="423" y="-58"/>
			<point x="397" y="29" type="curve"/>
		</contour>
		<contour>
			<point x="67" y="229" type="curve"/>
			<point x="67" y="76"/>
			<point x="159" y="-8"/>
			<point x="285" y="-8" type="curve"/>
			<point x="480" y="-8"/>
			<point x="657" y="208"/>
			<point x="657" y="461" type="curve"/>
			<point x="657" y="614"/>
			<point x="565" y="698"/>
			<point x="439" y="698" type="curve"/>
			<point x="244" y="698"/>
			<point x="67" y="482"/>
		</contour>
		<contour>
			<point x="132" y="236" type="curve"/>
			<point x="132" y="452"/>
			<point x="276" y="641"/>
			<point x="432" y="641" type="curve"/>
			<point x="529" y="641"/>
			<point x="592" y="575"/>
			<point x="592" y="454" type="curve"/>
			<point x="592" y="238"/>
			<point x="448" y="49"/>
			<point x="292" y="49" type="curve"/>
			<point x="195" y="49"/>
			<point x="132" y="115"/>
		</contour>
	</outline>
</glyph>
<glyph name="R" format="2">
	<advance width="519"/>
	<unicode hex="0052"/>
	<anchor x="310" y="690" name="top"/>
	<anchor x="185" y="0" name="bottom"/>
	<outline>
		<contour>
			<point x="24" y="0" type="line"/>
			<point x="86" y="0" type="line"/>
			<point x="233" y="690" type="line"/>
			<point x="171" y="690" type="line"/>
		</contour>
		<contour>
			<point x="112" y="275" type="line"/>
			<point x="221" y="275" type="line" smooth="yes"/>
			<point x="394" y="275"/>
			<point x="491" y="376"/>
			<point x="491" y="514" type="curve" smooth="yes"/>
			<point x="491" y="618"/>
			<point x="423" y="690"/>
			<point x="310" y="690" type="curve" smooth="yes"/>
			<point x="201" y="690" type="line"/>
			<point x="189" y="636" type="line"/>
			<point x="298" y="636" type="line" smooth="yes"/>
			<point x="390" y="636"/>
			<point x="426" y="589"/>
			<point x="426" y="508" type="curve" smooth="yes"/>
			<point x="426" y="404"/>
			<point x="364" y="329"/>
			<point x="228" y="329" type="curve" smooth="yes"/>
			<point x="124" y="329" type="line"/>
		</contour>
		<contour>
			<point x="244" y="290" type="line"/>
			<point x="349" y="0" type="line"/>
			<point x="415" y="0" type="line"/>
			<point x="306" y="290" type="line"/>
		</contour>
	</outline>
</glyph>
<glyph name="S" format="2">
	<advance width="499"/>
	<unicode hex="0053"/>
	<anchor x="359" y="690" name="top"/>
	<anchor x="254" y="0" name="bottom"/>
	<outline>
		<contour>
			<point x="23" y="96" type="line"/>
			<point x="81" y="32"/>
			<point x="139" y="-8"/>
			<point x="218" y="-8" type="curve"/>
			<point x="358" y="-8"/>
			<point x="438" y="78"/>
			<point x="438" y="177" type="curve"/>
			<point x="438" y="254"/>
			<point x="406" y="328"/>
			<point x="291" y="392" type="curve" smooth="yes"/>
			<point x="193" y="447"/>
			<point x="183" y="481"/>
			<point x="183" y="531" type="curve"/>
			<point x="183" y="584"/>
			<point x="231" y="644"/>
			<point x="310" y="644" type="curve"/>
			<point x="380" y="644"/>
			<point x="413" y="618"/>
			<point x="455" y="580" type="curve"/>
			<point x="495" y="622" type="line"/>
			<point x="442" y="668"/>
			<point x="402" y="698"/>
			<point x="315" y="698" type="curve"/>
			<point x="196" y="698"/>
			<point x="122" y="615"/>
			<point x="122" y="524" type="curve"/>
			<point x="122" y="456"/>
			<point x="149" y="403"/>
			<point x="262" y="338" type="curve" smooth="yes"/>
			<point x="362" y="281"/>
			<point x="375" y="229"/>
			<point x="375" y="169" type="curve"/>
			<point x="375" y="108"/>
			<point x="323" y="46"/>
			<point x="225" y="46" type="curve"/>
			<point x="156" y="46"/>
			<point x="106" y="84"/>
			<point x="65" y="139" type="curve"/>
		</contour>
	</outline>
</glyph>
<glyph name="T" format="2">
	<advance width="462"/>
	<unicode hex="0054"/>
	<anchor x="327" y="690" name="top"/>
	<anchor x="180" y="0" name="bottom"/>
	<outline>
		<contour>
			<point x="128" y="636" type="line"/>
			<point x="502" y="636" type="line"/>
			<point x="514" y="690" type="line"/>
			<point x="140" y="690" type="line"/>
		</contour>
		<contour>
			<point x="149" y="0" type="line"/>
			<point x="211" y="0" type="line"/>
			<point x="358" y="690" type="line"/>
			<point x="296" y="690" type="line"/>
		</contour>
	</outline>
</glyph>
<glyph name="U" format="2">
	<advance width="567"/>
	<unicode hex="0055"/>
	<anchor x="362" y="690" name="top"/>
	<anchor x="228" y="0" name="bottom"/>
	<anchor x="287" y="0" name="ogonek"/>
	<outline>
		<contour>
			<point x="70" y="187" type="curve" smooth="yes"/>
			<point x="70" y="68"/>
			<point x="132" y="-8"/>
			<point x="236" y="-8" type="curve"/>
			<point x="358" y="-8"/>
			<point x="451" y="73"/>
			<point x="487" y="240" type="curve" smooth="yes"/>
			<point x="583" y="690" type="line"/>
			<point x="521" y="690" type="line"/>
			<point x="427" y="250" type="line" smooth="yes"/>
			<point x="398" y="116"/>
			<point x="332" y="49"/>
			<point x="248" y="49" type="curve"/>
			<point x="172" y="49"/>
			<point x="132" y="96"/>
			<point x="132" y="191" type="curve" smooth="yes"/>
			<point x="132" y="209"/>
			<point x="135" y="232"/>
			<point x="140" y="254" type="curve" smooth="yes"/>
			<point x="233" y="690" type="line"/>
			<point x="171" y="690" type="line"/>
			<point x="78" y="254" type="line" smooth="yes"/>
			<point x="73" y="232"/>
			<point x="70" y="206"/>
		</contour>
	</outline>
</glyph>
<glyph name="V" format="2">
	<advance width="497"/>
	<unicode hex="0056"/>
	<outline>
		<contour>
			<point x="113" y="690" type="line"/>
			<point x="171" y="0" type="line"/>
			<point x="212" y="0" type="line"/>
			<point x="220" y="45" type="line"/>
			<point x="175" y="690" type="line"/>
		</contour>
		<contour>
			<point x="180" y="0" type="line"/>
			<point x="220" y="0" type="line"/>
			<point x="562" y="690" type="line"/>
			<point x="496" y="690" type="line"/>
			<point x="185" y="45" type="line"/>
		</contour>
	</outline>
</glyph>
<glyph name="X" format="2">
	<advance width="477"/>
	<unicode hex="0058"/>
	<outline>
		<contour>
			<point x="-36" y="0" type="line"/>
			<point x="38" y="0" type="line"/>
			<point x="255" y="314" type="line"/>
			<point x="276" y="338" type="line"/>
			<point x="530" y="690" type="line"/>
			<point x="456" y="690" type="line"/>
			<point x="251" y="390" type="line"/>
			<point x="231" y="367" type="line"/>
		</contour>
		<contour>
			<point x="121" y="690" type="line"/>
			<point x="233" y="328" type="line"/>
			<point x="328" y="0" type="line"/>
			<point x="393" y="0" type="line"/>
			<point x="275" y="376" type="line"/>
			<point x="186" y="690" type="line"/>
		</contour>
	</outline>
</glyph>
<glyph name="Y" format="2">
	<advance width="562"/>
	<unicode hex="0059"/>
	<anchor x="363" y="690" name="top"/>
	<outline>
		<contour>
			<point x="97" y="690" type="line"/>
			<point x="255" y="280" type="line"/>
			<point x="293" y="280" type="line"/>
			<point x="299" y="321" type="line"/>
			<point x="163" y="690" type="line"/>
		</contour>
		<contour>
			<point x="190" y="0" type="line"/>
			<point x="252" y="0" type="line"/>
			<point x="318" y="310" type="line"/>
			<point x="256" y="310" type="line"/>
		</contour>
		<contour>
			<point x="270" y="280" type="line"/>
			<point x="307" y="280" type="line"/>
			<point x="639" y="690" type="line"/>
			<point x="569" y="690" type="line"/>
			<point x="276" y="321" type="line"/>
		</contour>
	</outline>
</glyph>
<glyph name="Z" format="1">
  <advance width="494.5703619430582"/>
  <unicode hex="005A"/>
  <outline>
    <contour>
      <point x="-11" y="0" type="line"/>
      <point x="387" y="0" type="line"/>
      <point x="404" y="82" type="line"/>
      <point x="37" y="82" type="line"/>
      <point x="2" y="62" type="line"/>
    </contour>
    <contour>
      <point x="2" y="62" type="line"/>
      <point x="56" y="0" type="line"/>
      <point x="510" y="628" type="line"/>
      <point x="455" y="690" type="line"/>
    </contour>
    <contour>
      <point x="121" y="608" type="line"/>
      <point x="473" y="608" type="line"/>
      <point x="510" y="628" type="line"/>
      <point x="524" y="690" type="line"/>
      <point x="139" y="690" type="line"/>
    </contour>
    <contour>
      <point x="324" y="690" type="move" name="top"/>
    </contour>
  </outline>
</glyph>
<glyph name="bracketleft" format="2">
  <advance width="265"/>
  <unicode hex="005B"/>
  <outline>
    <contour>
      <point x="-31" y="-247" type="line"/>
      <point x="52" y="-247" type="line"/>
      <point x="275" y="782" type="line"/>
      <point x="192" y="782" type="line"/>
    </contour>
    <contour>
      <point x="-20" y="-247" type="line"/>
      <point x="173" y="-247" type="line"/>
      <point x="191" y="-175" type="line"/>
      <point x="-2" y="-175" type="line"/>
    </contour>
    <contour>
      <point x="185" y="710" type="line"/>
      <point x="379" y="710" type="line"/>
      <point x="396" y="782" type="line"/>
      <point x="203" y="782" type="line"/>
    </contour>
  </outline>
</glyph>
<glyph name="bracketright" format="2">
	<advance width="291"/>
	<unicode hex="005D"/>
	<outline>
		<contour>
			<point x="-122" y="-225" type="line"/>
			<point x="53" y="-225" type="line"/>
			<point x="64" y="-175" type="line"/>
			<point x="-111" y="-175" type="line"/>
		</contour>
		<contour>
			<point x="23" y="-225" type="line"/>
			<point x="79" y="-225" type="line"/>
			<point x="289" y="760" type="line"/>
			<point x="233" y="760" type="line"/>
		</contour>
		<contour>
			<point x="77" y="710" type="line"/>
			<point x="252" y="710" type="line"/>
			<point x="263" y="760" type="line"/>
			<point x="88" y="760" type="line"/>
		</contour>
	</outline>
</glyph>
<glyph name="asciicircum" format="1">
  <advance width="500.1218324174039"/>
  <unicode hex="005E"/>
  <outline>
    <contour>
      <point x="48" y="277" type="line"/>
      <point x="140" y="277" type="line"/>
      <point x="340" y="629" type="line"/>
      <point x="354" y="690" type="line"/>
      <point x="293" y="690" type="line"/>
    </contour>
    <contour>
      <point x="317" y="690" type="line"/>
      <point x="308" y="632" type="line"/>
      <point x="366" y="277" type="line"/>
      <point x="450" y="277" type="line"/>
      <point x="375" y="690" type="line"/>
    </contour>
  </outline>
</glyph>
<glyph name="underscore" format="2">
	<advance width="402"/>
	<unicode hex="005F"/>
	<outline>
		<contour>
			<point x="-71" y="-50" type="line"/>
			<point x="331" y="-50" type="line"/>
			<point x="342" y="0" type="line"/>
			<point x="-60" y="0" type="line"/>
		</contour>
	</outline>
</glyph>
<glyph name="grave" format="1">
  <advance width="500"/>
  <unicode hex="0060"/>
  <outline>
    <contour>
      <point x="226" y="739" type="line"/>
      <point x="297" y="589" type="line"/>
      <point x="369" y="589" type="line"/>
      <point x="317" y="739" type="line"/>
    </contour>
    <contour>
      <point x="299" y="514" type="move" name="_top"/>
    </contour>
  </outline>
</glyph>
<glyph name="a" format="2">
	<advance width="500"/>
	<unicode hex="0061"/>
	<anchor x="339" y="510" name="top"/>
	<anchor x="222" y="0" name="bottom"/>
	<anchor x="362" y="0" name="ogonek"/>
	<outline>
		<contour>
			<point x="49" y="170" type="curve" smooth="yes"/>
			<point x="49" y="52"/>
			<point x="87" y="-8"/>
			<point x="166" y="-8" type="curve" smooth="yes"/>
			<point x="238" y="-8"/>
			<point x="290" y="37"/>
			<point x="332" y="108" type="curve"/>
			<point x="323" y="113" type="line"/>
			<point x="319" y="0" type="line"/>
			<point x="375" y="0" type="line"/>
			<point x="375" y="25" type="line" smooth="yes"/>
			<point x="375" y="58"/>
			<point x="379" y="89"/>
			<point x="386" y="122" type="curve" smooth="yes"/>
			<point x="468" y="510" type="line"/>
			<point x="416" y="510" type="line"/>
			<point x="393" y="439" type="line"/>
			<point x="349" y="232" type="line" smooth="yes"/>
			<point x="324" y="112"/>
			<point x="254" y="45"/>
			<point x="182" y="45" type="curve" smooth="yes"/>
			<point x="123" y="45"/>
			<point x="110" y="88"/>
			<point x="110" y="176" type="curve" smooth="yes"/>
			<point x="110" y="337"/>
			<point x="192" y="466"/>
			<point x="291" y="466" type="curve" smooth="yes"/>
			<point x="340" y="466"/>
			<point x="353" y="448"/>
			<point x="394" y="403" type="curve"/>
			<point x="404" y="455" type="line"/>
			<point x="364" y="499"/>
			<point x="344" y="518"/>
			<point x="296" y="518" type="curve" smooth="yes"/>
			<point x="162" y="518"/>
			<point x="49" y="368"/>
		</contour>
	</outline>
</glyph>
<glyph name="b" format="2">
	<advance width="497"/>
	<unicode hex="0062"/>
	<anchor x="250" y="0" name="top"/>
	<anchor x="348" y="510" name="bottom"/>
	<outline>
		<contour>
			<point x="31" y="0" type="line"/>
			<point x="83" y="0" type="line"/>
			<point x="106" y="71" type="line"/>
			<point x="150" y="278" type="line" smooth="yes"/>
			<point x="175" y="398"/>
			<point x="235" y="465"/>
			<point x="297" y="465" type="curve"/>
			<point x="346" y="465"/>
			<point x="383" y="412"/>
			<point x="383" y="324" type="curve"/>
			<point x="383" y="183"/>
			<point x="307" y="44"/>
			<point x="208" y="44" type="curve"/>
			<point x="169" y="44"/>
			<point x="146" y="62"/>
			<point x="105" y="107" type="curve"/>
			<point x="95" y="55" type="line"/>
			<point x="135" y="11"/>
			<point x="165" y="-8"/>
			<point x="203" y="-8" type="curve"/>
			<point x="337" y="-8"/>
			<point x="444" y="152"/>
			<point x="444" y="330" type="curve"/>
			<point x="444" y="448"/>
			<point x="392" y="518"/>
			<point x="323" y="518" type="curve"/>
			<point x="261" y="518"/>
			<point x="209" y="473"/>
			<point x="167" y="402" type="curve"/>
			<point x="175" y="397" type="line"/>
			<point x="247" y="731" type="line"/>
			<point x="184" y="717" type="line"/>
		</contour>
	</outline>
</glyph>
<glyph name="c" format="1">
  <advance width="425.3578053813882"/>
  <unicode hex="0063"/>
  <outline>
    <contour>
      <point x="30" y="170" type="curve" smooth="yes"/>
      <point x="30" y="61"/>
      <point x="84" y="-10"/>
      <point x="179" y="-10" type="curve"/>
      <point x="241" y="-10"/>
      <point x="304" y="26"/>
      <point x="352" y="83" type="curve"/>
      <point x="300" y="138" type="line"/>
      <point x="267" y="96"/>
      <point x="231" y="67"/>
      <point x="192" y="67" type="curve" smooth="yes"/>
      <point x="143" y="67"/>
      <point x="118" y="109"/>
      <point x="118" y="190" type="curve" smooth="yes"/>
      <point x="118" y="322"/>
      <point x="196" y="446"/>
      <point x="286" y="446" type="curve" smooth="yes"/>
      <point x="317" y="446"/>
      <point x="340" y="428"/>
      <point x="358" y="392" type="curve"/>
      <point x="420" y="447" type="line"/>
      <point x="396" y="494"/>
      <point x="351" y="525"/>
      <point x="292" y="525" type="curve" smooth="yes"/>
      <point x="139" y="525"/>
      <point x="30" y="357"/>
    </contour>
    <contour>
      <point x="283" y="514" type="move" name="top"/>
    </contour>
    <contour>
      <point x="178" y="0" type="move" name="bottom"/>
    </contour>
  </outline>
</glyph>
<glyph name="d" format="2">
	<advance width="499"/>
	<unicode hex="0064"/>
	<anchor x="574" y="720" name="caron.alt"/>
	<outline>
		<contour>
			<point x="39" y="170" type="curve" smooth="yes"/>
			<point x="39" y="52"/>
			<point x="87" y="-8"/>
			<point x="166" y="-8" type="curve" smooth="yes"/>
			<point x="238" y="-8"/>
			<point x="290" y="37"/>
			<point x="332" y="108" type="curve"/>
			<point x="323" y="113" type="line"/>
			<point x="319" y="0" type="line"/>
			<point x="375" y="0" type="line"/>
			<point x="375" y="25" type="line" smooth="yes"/>
			<point x="375" y="58"/>
			<point x="379" y="89"/>
			<point x="386" y="122" type="curve" smooth="yes"/>
			<point x="515" y="731" type="line"/>
			<point x="452" y="717" type="line"/>
			<point x="349" y="232" type="line" smooth="yes"/>
			<point x="324" y="112"/>
			<point x="254" y="45"/>
			<point x="182" y="45" type="curve" smooth="yes"/>
			<point x="123" y="45"/>
			<point x="100" y="88"/>
			<point x="100" y="176" type="curve" smooth="yes"/>
			<point x="100" y="337"/>
			<point x="182" y="466"/>
			<point x="281" y="466" type="curve" smooth="yes"/>
			<point x="330" y="466"/>
			<point x="353" y="448"/>
			<point x="394" y="403" type="curve"/>
			<point x="404" y="455" type="line"/>
			<point x="364" y="499"/>
			<point x="334" y="518"/>
			<point x="286" y="518" type="curve" smooth="yes"/>
			<point x="152" y="518"/>
			<point x="39" y="368"/>
		</contour>
	</outline>
</glyph>
<glyph name="e" format="2">
	<advance width="437"/>
	<unicode hex="0065"/>
	<anchor x="176" y="0" name="bottom"/>
	<anchor x="297" y="510" name="top"/>
	<anchor x="227" y="0" name="ogonek"/>
	<outline>
		<contour>
			<point x="32" y="165" type="curve" smooth="yes"/>
			<point x="32" y="53"/>
			<point x="87" y="-8"/>
			<point x="183" y="-8" type="curve" smooth="yes"/>
			<point x="247" y="-8"/>
			<point x="302" y="26"/>
			<point x="349" y="81" type="curve"/>
			<point x="312" y="116" type="line"/>
			<point x="275" y="73"/>
			<point x="230" y="47"/>
			<point x="188" y="47" type="curve" smooth="yes"/>
			<point x="122" y="47"/>
			<point x="92" y="88"/>
			<point x="92" y="176" type="curve" smooth="yes"/>
			<point x="92" y="318"/>
			<point x="165" y="463"/>
			<point x="289" y="463" type="curve" smooth="yes"/>
			<point x="340" y="463"/>
			<point x="353" y="424"/>
			<point x="353" y="390" type="curve" smooth="yes"/>
			<point x="353" y="345"/>
			<point x="312" y="286"/>
			<point x="193" y="286" type="curve" smooth="yes"/>
			<point x="163" y="286"/>
			<point x="133" y="289"/>
			<point x="92" y="299" type="curve"/>
			<point x="83" y="250" type="line"/>
			<point x="127" y="239"/>
			<point x="161" y="236"/>
			<point x="195" y="236" type="curve" smooth="yes"/>
			<point x="351" y="236"/>
			<point x="413" y="319"/>
			<point x="413" y="394" type="curve" smooth="yes"/>
			<point x="413" y="456"/>
			<point x="376" y="518"/>
			<point x="294" y="518" type="curve" smooth="yes"/>
			<point x="132" y="518"/>
			<point x="32" y="349"/>
		</contour>
	</outline>
</glyph>
<glyph name="f" format="2">
	<advance width="280"/>
	<unicode hex="0066"/>
	<outline>
		<contour>
			<point x="39" y="0" type="line"/>
			<point x="99" y="0" type="line"/>
			<point x="221" y="572" type="line" smooth="yes"/>
			<point x="235" y="640"/>
			<point x="276" y="675"/>
			<point x="305" y="675" type="curve" smooth="yes"/>
			<point x="329" y="675"/>
			<point x="343" y="674"/>
			<point x="363" y="662" type="curve"/>
			<point x="385" y="709" type="line"/>
			<point x="364" y="723"/>
			<point x="335" y="728"/>
			<point x="312" y="728" type="curve" smooth="yes"/>
			<point x="243" y="728"/>
			<point x="182" y="675"/>
			<point x="161" y="575" type="curve" smooth="yes"/>
		</contour>
		<contour>
			<point x="64" y="460" type="line"/>
			<point x="314" y="460" type="line"/>
			<point x="324" y="510" type="line"/>
			<point x="74" y="510" type="line"/>
		</contour>
	</outline>
</glyph>
<glyph name="g" format="2">
	<advance width="480"/>
	<unicode hex="0067"/>
	<anchor x="303" y="510" name="top"/>
	<outline>
		<contour>
			<point x="-7" y="-148" type="line"/>
			<point x="37" y="-174"/>
			<point x="75" y="-193"/>
			<point x="137" y="-193" type="curve"/>
			<point x="261" y="-193"/>
			<point x="328" y="-129"/>
			<point x="360" y="20" type="curve" smooth="yes"/>
			<point x="464" y="510" type="line"/>
			<point x="412" y="510" type="line"/>
			<point x="389" y="439" type="line"/>
			<point x="345" y="232" type="line" smooth="yes"/>
			<point x="320" y="112"/>
			<point x="240" y="45"/>
			<point x="168" y="45" type="curve"/>
			<point x="119" y="45"/>
			<point x="106" y="118"/>
			<point x="106" y="196" type="curve"/>
			<point x="106" y="347"/>
			<point x="178" y="466"/>
			<point x="257" y="466" type="curve"/>
			<point x="306" y="466"/>
			<point x="349" y="448"/>
			<point x="390" y="403" type="curve"/>
			<point x="400" y="455" type="line"/>
			<point x="360" y="499"/>
			<point x="310" y="518"/>
			<point x="262" y="518" type="curve"/>
			<point x="148" y="518"/>
			<point x="45" y="378"/>
			<point x="45" y="190" type="curve"/>
			<point x="45" y="82"/>
			<point x="83" y="-8"/>
			<point x="152" y="-8" type="curve"/>
			<point x="224" y="-8"/>
			<point x="286" y="37"/>
			<point x="328" y="108" type="curve"/>
			<point x="320" y="113" type="line"/>
			<point x="301" y="25" type="line" smooth="yes"/>
			<point x="276" y="-93"/>
			<point x="227" y="-139"/>
			<point x="143" y="-139" type="curve"/>
			<point x="88" y="-139"/>
			<point x="57" y="-122"/>
			<point x="21" y="-99" type="curve"/>
		</contour>
	</outline>
</glyph>
<glyph name="h" format="2">
	<advance width="480"/>
	<unicode hex="0068"/>
	<anchor x="202" y="720" name="top"/>
	<outline>
		<contour>
			<point x="16" y="0" type="line"/>
			<point x="76" y="0" type="line"/>
			<point x="135" y="278" type="line" smooth="yes"/>
			<point x="160" y="398"/>
			<point x="230" y="465"/>
			<point x="302" y="465" type="curve"/>
			<point x="361" y="465"/>
			<point x="358" y="422"/>
			<point x="358" y="384" type="curve" smooth="yes"/>
			<point x="358" y="368"/>
			<point x="356" y="331"/>
			<point x="352" y="312" type="curve" smooth="yes"/>
			<point x="286" y="0" type="line"/>
			<point x="346" y="0" type="line"/>
			<point x="413" y="314" type="line" smooth="yes"/>
			<point x="417" y="333"/>
			<point x="419" y="373"/>
			<point x="419" y="390" type="curve" smooth="yes"/>
			<point x="419" y="453"/>
			<point x="395" y="518"/>
			<point x="320" y="518" type="curve"/>
			<point x="249" y="518"/>
			<point x="195" y="473"/>
			<point x="153" y="402" type="curve"/>
			<point x="160" y="397" type="line"/>
			<point x="231" y="731" type="line"/>
			<point x="168" y="717" type="line"/>
		</contour>
	</outline>
</glyph>
<glyph name="i" format="2">
	<advance width="230"/>
	<unicode hex="0069"/>
	<anchor x="54" y="0" name="bottom"/>
	<anchor x="84" y="0" name="ogonek"/>
	<outline>
		<contour>
			<point x="24" y="0" type="line"/>
			<point x="84" y="0" type="line"/>
			<point x="192" y="510" type="line"/>
			<point x="132" y="510" type="line"/>
		</contour>
		<contour>
			<point x="156" y="676" type="curve"/>
			<point x="156" y="655"/>
			<point x="169" y="639"/>
			<point x="192" y="639" type="curve"/>
			<point x="220" y="639"/>
			<point x="243" y="664"/>
			<point x="243" y="691" type="curve"/>
			<point x="243" y="712"/>
			<point x="230" y="728"/>
			<point x="207" y="728" type="curve"/>
			<point x="179" y="728"/>
			<point x="156" y="703"/>
		</contour>
	</outline>
</glyph>
<glyph name="j" format="2">
  <advance width="231"/>
  <unicode hex="006A"/>
  <outline>
    <contour>
      <point x="-143" y="-175" type="line"/>
      <point x="-125" y="-186"/>
      <point x="-99" y="-195"/>
      <point x="-70" y="-195" type="curve"/>
      <point x="10" y="-195"/>
      <point x="70" y="-143"/>
      <point x="93" y="-34" type="curve" smooth="yes"/>
      <point x="209" y="515" type="line"/>
      <point x="121" y="515" type="line"/>
      <point x="5" y="-32" type="line" smooth="yes"/>
      <point x="-9" y="-97"/>
      <point x="-36" y="-120"/>
      <point x="-72" y="-120" type="curve"/>
      <point x="-88" y="-120"/>
      <point x="-104" y="-115"/>
      <point x="-117" y="-107" type="curve"/>
    </contour>
    <contour>
      <point x="143" y="669" type="curve" smooth="yes"/>
      <point x="143" y="643"/>
      <point x="160" y="623"/>
      <point x="190" y="623" type="curve" smooth="yes"/>
      <point x="224" y="623"/>
      <point x="258" y="650"/>
      <point x="258" y="693" type="curve" smooth="yes"/>
      <point x="258" y="720"/>
      <point x="241" y="740"/>
      <point x="211" y="740" type="curve" smooth="yes"/>
      <point x="176" y="740"/>
      <point x="143" y="711"/>
    </contour>
  </outline>
</glyph>
<glyph name="k" format="2">
	<advance width="441"/>
	<unicode hex="006B"/>
	<anchor x="225" y="0" name="bottom"/>
	<outline>
		<contour>
			<point x="16" y="0" type="line"/>
			<point x="76" y="0" type="line"/>
			<point x="231" y="731" type="line"/>
			<point x="168" y="717" type="line"/>
		</contour>
		<contour>
			<point x="109" y="186" type="line"/>
			<point x="465" y="510" type="line"/>
			<point x="386" y="510" type="line"/>
			<point x="125" y="261" type="line"/>
		</contour>
		<contour>
			<point x="180" y="279" type="line"/>
			<point x="302" y="0" type="line"/>
			<point x="367" y="0" type="line"/>
			<point x="222" y="318" type="line"/>
		</contour>
	</outline>
</glyph>
<glyph name="l" format="2">
	<advance width="244"/>
	<unicode hex="006C"/>
	<anchor x="215" y="720" name="top"/>
	<anchor x="62" y="0" name="bottom"/>
	<anchor x="337" y="720" name="caron.alt"/>
	<outline>
		<contour>
			<point x="32" y="0" type="line"/>
			<point x="92" y="0" type="line"/>
			<point x="247" y="731" type="line"/>
			<point x="184" y="717" type="line"/>
		</contour>
	</outline>
</glyph>
<glyph name="m" format="2">
	<advance width="750"/>
	<unicode hex="006D"/>
	<outline>
		<contour>
			<point x="26" y="0" type="line"/>
			<point x="86" y="0" type="line"/>
			<point x="145" y="278" type="line" smooth="yes"/>
			<point x="170" y="394"/>
			<point x="231" y="465"/>
			<point x="301" y="465" type="curve"/>
			<point x="356" y="465"/>
			<point x="363" y="432"/>
			<point x="363" y="364" type="curve" smooth="yes"/>
			<point x="363" y="348"/>
			<point x="361" y="331"/>
			<point x="357" y="312" type="curve" smooth="yes"/>
			<point x="291" y="0" type="line"/>
			<point x="351" y="0" type="line"/>
			<point x="410" y="278" type="line" smooth="yes"/>
			<point x="435" y="394"/>
			<point x="496" y="465"/>
			<point x="565" y="465" type="curve"/>
			<point x="621" y="465"/>
			<point x="628" y="432"/>
			<point x="628" y="364" type="curve" smooth="yes"/>
			<point x="628" y="348"/>
			<point x="626" y="331"/>
			<point x="622" y="312" type="curve" smooth="yes"/>
			<point x="556" y="0" type="line"/>
			<point x="616" y="0" type="line"/>
			<point x="683" y="314" type="line" smooth="yes"/>
			<point x="687" y="333"/>
			<point x="689" y="353"/>
			<point x="689" y="370" type="curve" smooth="yes"/>
			<point x="689" y="463"/>
			<point x="656" y="518"/>
			<point x="580" y="518" type="curve"/>
			<point x="505" y="518"/>
			<point x="444" y="462"/>
			<point x="410" y="376" type="curve"/>
			<point x="424" y="370" type="line"/>
			<point x="424" y="463"/>
			<point x="391" y="518"/>
			<point x="319" y="518" type="curve"/>
			<point x="250" y="518"/>
			<point x="201" y="473"/>
			<point x="162" y="402" type="curve"/>
			<point x="171" y="397" type="line"/>
			<point x="175" y="510" type="line"/>
			<point x="119" y="510" type="line"/>
			<point x="119" y="485" type="line" smooth="yes"/>
			<point x="119" y="452"/>
			<point x="115" y="421"/>
			<point x="108" y="388" type="curve" smooth="yes"/>
		</contour>
	</outline>
</glyph>
<glyph name="n" format="2">
	<advance width="515"/>
	<unicode hex="006E"/>
	<anchor x="332" y="510" name="top"/>
	<anchor x="207" y="0" name="bottom"/>
	<outline>
		<contour>
			<point x="28" y="0" type="line"/>
			<point x="88" y="0" type="line"/>
			<point x="147" y="278" type="line" smooth="yes"/>
			<point x="172" y="398"/>
			<point x="243" y="465"/>
			<point x="314" y="465" type="curve" smooth="yes"/>
			<point x="373" y="465"/>
			<point x="393" y="439"/>
			<point x="393" y="388" type="curve" smooth="yes"/>
			<point x="393" y="372"/>
			<point x="388" y="331"/>
			<point x="384" y="312" type="curve" smooth="yes"/>
			<point x="318" y="0" type="line"/>
			<point x="378" y="0" type="line"/>
			<point x="445" y="314" type="line" smooth="yes"/>
			<point x="449" y="333"/>
			<point x="454" y="364"/>
			<point x="454" y="391" type="curve" smooth="yes"/>
			<point x="454" y="470"/>
			<point x="411" y="518"/>
			<point x="332" y="518" type="curve" smooth="yes"/>
			<point x="261" y="518"/>
			<point x="206" y="473"/>
			<point x="164" y="402" type="curve"/>
			<point x="173" y="397" type="line"/>
			<point x="177" y="510" type="line"/>
			<point x="121" y="510" type="line"/>
			<point x="121" y="485" type="line" smooth="yes"/>
			<point x="121" y="452"/>
			<point x="117" y="421"/>
			<point x="110" y="388" type="curve" smooth="yes"/>
		</contour>
	</outline>
</glyph>
<glyph name="o" format="2">
	<advance width="470"/>
	<unicode hex="006F"/>
	<anchor x="165" y="0" name="bottom"/>
	<anchor x="307" y="510" name="top"/>
	<anchor x="216" y="0" name="ogonek"/>
	<outline>
		<contour>
			<point x="35" y="169" type="curve" smooth="yes"/>
			<point x="35" y="69"/>
			<point x="72" y="-8"/>
			<point x="166" y="-8" type="curve"/>
			<point x="325" y="-8"/>
			<point x="425" y="162"/>
			<point x="425" y="334" type="curve" smooth="yes"/>
			<point x="425" y="445"/>
			<point x="368" y="518"/>
			<point x="286" y="518" type="curve"/>
			<point x="139" y="518"/>
			<point x="35" y="354"/>
		</contour>
		<contour>
			<point x="94" y="179" type="curve" smooth="yes"/>
			<point x="94" y="322"/>
			<point x="171" y="463"/>
			<point x="281" y="463" type="curve"/>
			<point x="332" y="463"/>
			<point x="365" y="411"/>
			<point x="365" y="324" type="curve" smooth="yes"/>
			<point x="365" y="194"/>
			<point x="297" y="47"/>
			<point x="175" y="47" type="curve"/>
			<point x="123" y="47"/>
			<point x="94" y="94"/>
		</contour>
	</outline>
</glyph>
<glyph name="p" format="2">
	<advance width="500"/>
	<unicode hex="0070"/>
	<outline>
		<contour>
			<point x="-17" y="-196" type="line"/>
			<point x="46" y="-182" type="line"/>
			<point x="144" y="278" type="line" smooth="yes"/>
			<point x="170" y="398"/>
			<point x="239" y="465"/>
			<point x="301" y="465" type="curve"/>
			<point x="360" y="465"/>
			<point x="383" y="422"/>
			<point x="383" y="334" type="curve"/>
			<point x="383" y="173"/>
			<point x="311" y="44"/>
			<point x="212" y="44" type="curve"/>
			<point x="173" y="44"/>
			<point x="140" y="62"/>
			<point x="99" y="107" type="curve"/>
			<point x="88" y="58" type="line"/>
			<point x="123" y="14"/>
			<point x="169" y="-8"/>
			<point x="207" y="-8" type="curve"/>
			<point x="341" y="-8"/>
			<point x="444" y="142"/>
			<point x="444" y="340" type="curve"/>
			<point x="444" y="458"/>
			<point x="396" y="518"/>
			<point x="317" y="518" type="curve"/>
			<point x="255" y="518"/>
			<point x="203" y="473"/>
			<point x="161" y="402" type="curve"/>
			<point x="170" y="397" type="line"/>
			<point x="174" y="510" type="line"/>
			<point x="118" y="510" type="line"/>
			<point x="118" y="485" type="line" smooth="yes"/>
			<point x="118" y="452"/>
			<point x="114" y="421"/>
			<point x="107" y="388" type="curve" smooth="yes"/>
		</contour>
	</outline>
</glyph>
<glyph name="q" format="2">
	<advance width="490"/>
	<unicode hex="0071"/>
	<outline>
		<contour>
			<point x="32" y="170" type="curve"/>
			<point x="32" y="52"/>
			<point x="90" y="-8"/>
			<point x="159" y="-8" type="curve"/>
			<point x="231" y="-8"/>
			<point x="283" y="37"/>
			<point x="325" y="108" type="curve"/>
			<point x="317" y="113" type="line"/>
			<point x="251" y="-196" type="line"/>
			<point x="314" y="-182" type="line"/>
			<point x="461" y="510" type="line"/>
			<point x="409" y="510" type="line"/>
			<point x="386" y="439" type="line"/>
			<point x="342" y="232" type="line" smooth="yes"/>
			<point x="317" y="112"/>
			<point x="247" y="45"/>
			<point x="175" y="45" type="curve"/>
			<point x="126" y="45"/>
			<point x="93" y="88"/>
			<point x="93" y="176" type="curve"/>
			<point x="93" y="337"/>
			<point x="185" y="466"/>
			<point x="274" y="466" type="curve"/>
			<point x="323" y="466"/>
			<point x="346" y="448"/>
			<point x="387" y="403" type="curve"/>
			<point x="397" y="455" type="line"/>
			<point x="357" y="499"/>
			<point x="327" y="518"/>
			<point x="279" y="518" type="curve"/>
			<point x="155" y="518"/>
			<point x="32" y="368"/>
		</contour>
	</outline>
</glyph>
<glyph name="r" format="2">
	<advance width="318"/>
	<unicode hex="0072"/>
	<anchor x="222" y="510" name="top"/>
	<anchor x="54" y="0" name="bottom"/>
	<outline>
		<contour>
			<point x="21" y="0" type="line"/>
			<point x="81" y="0" type="line"/>
			<point x="133" y="244" type="line" smooth="yes"/>
			<point x="170" y="418"/>
			<point x="215" y="456"/>
			<point x="320" y="456" type="curve"/>
			<point x="333" y="518" type="line"/>
			<point x="265" y="524"/>
			<point x="207" y="488"/>
			<point x="152" y="395" type="curve"/>
			<point x="165" y="380" type="line"/>
			<point x="170" y="510" type="line"/>
			<point x="114" y="510" type="line"/>
			<point x="114" y="485" type="line" smooth="yes"/>
			<point x="114" y="452"/>
			<point x="110" y="421"/>
			<point x="103" y="388" type="curve" smooth="yes"/>
		</contour>
	</outline>
</glyph>
<glyph name="s" format="2">
	<advance width="400"/>
	<unicode hex="0073"/>
	<anchor x="234" y="510" name="top"/>
	<anchor x="161" y="0" name="bottom"/>
	<outline>
		<contour>
			<point x="-4" y="69" type="line"/>
			<point x="33" y="19"/>
			<point x="86" y="-8"/>
			<point x="158" y="-8" type="curve"/>
			<point x="272" y="-8"/>
			<point x="320" y="63"/>
			<point x="320" y="131" type="curve"/>
			<point x="320" y="199"/>
			<point x="300" y="236"/>
			<point x="209" y="289" type="curve" smooth="yes"/>
			<point x="154" y="321"/>
			<point x="130" y="354"/>
			<point x="130" y="389" type="curve"/>
			<point x="130" y="427"/>
			<point x="148" y="466"/>
			<point x="218" y="466" type="curve"/>
			<point x="259" y="466"/>
			<point x="292" y="452"/>
			<point x="320" y="422" type="curve"/>
			<point x="357" y="463" type="line"/>
			<point x="315" y="505"/>
			<point x="267" y="518"/>
			<point x="224" y="518" type="curve"/>
			<point x="114" y="518"/>
			<point x="73" y="452"/>
			<point x="73" y="384" type="curve"/>
			<point x="73" y="325"/>
			<point x="109" y="280"/>
			<point x="178" y="240" type="curve" smooth="yes"/>
			<point x="258" y="194"/>
			<point x="263" y="169"/>
			<point x="263" y="126" type="curve"/>
			<point x="263" y="90"/>
			<point x="242" y="45"/>
			<point x="164" y="45" type="curve"/>
			<point x="103" y="45"/>
			<point x="64" y="66"/>
			<point x="36" y="108" type="curve"/>
		</contour>
	</outline>
</glyph>
<glyph name="t" format="2">
	<advance width="312"/>
	<unicode hex="0074"/>
	<anchor x="135" y="1" name="bottom"/>
	<anchor x="371" y="720" name="caron.alt"/>
	<outline>
		<contour>
			<point x="62" y="460" type="line"/>
			<point x="294" y="460" type="line"/>
			<point x="304" y="510" type="line"/>
			<point x="72" y="510" type="line"/>
		</contour>
		<contour>
			<point x="53" y="97" type="curve"/>
			<point x="53" y="32"/>
			<point x="82" y="-8"/>
			<point x="137" y="-8" type="curve"/>
			<point x="168" y="-8"/>
			<point x="201" y="2"/>
			<point x="221" y="16" type="curve"/>
			<point x="207" y="69" type="line"/>
			<point x="187" y="57"/>
			<point x="164" y="50"/>
			<point x="142" y="50" type="curve"/>
			<point x="120" y="50"/>
			<point x="113" y="65"/>
			<point x="113" y="103" type="curve"/>
			<point x="113" y="118"/>
			<point x="115" y="133"/>
			<point x="118" y="148" type="curve" smooth="yes"/>
			<point x="226" y="654" type="line"/>
			<point x="163" y="640" type="line"/>
			<point x="58" y="145" type="line" smooth="yes"/>
			<point x="55" y="130"/>
			<point x="53" y="113"/>
		</contour>
	</outline>
</glyph>
<glyph name="u" format="2">
	<advance width="500"/>
	<unicode hex="0075"/>
	<anchor x="298" y="510" name="top"/>
	<anchor x="198" y="0" name="bottom"/>
	<anchor x="364" y="0" name="ogonek"/>
	<anchor x="429" y="544" name="horn"/>
	<outline>
		<contour>
			<point x="54" y="130" type="curve" smooth="yes"/>
			<point x="54" y="57"/>
			<point x="79" y="-8"/>
			<point x="165" y="-8" type="curve" smooth="yes"/>
			<point x="236" y="-8"/>
			<point x="281" y="37"/>
			<point x="323" y="108" type="curve"/>
			<point x="314" y="113" type="line"/>
			<point x="310" y="0" type="line"/>
			<point x="366" y="0" type="line"/>
			<point x="366" y="25" type="line" smooth="yes"/>
			<point x="366" y="58"/>
			<point x="370" y="89"/>
			<point x="377" y="122" type="curve" smooth="yes"/>
			<point x="459" y="510" type="line"/>
			<point x="399" y="510" type="line"/>
			<point x="340" y="232" type="line" smooth="yes"/>
			<point x="315" y="112"/>
			<point x="255" y="45"/>
			<point x="183" y="45" type="curve" smooth="yes"/>
			<point x="132" y="45"/>
			<point x="117" y="88"/>
			<point x="117" y="136" type="curve" smooth="yes"/>
			<point x="117" y="152"/>
			<point x="119" y="179"/>
			<point x="123" y="198" type="curve" smooth="yes"/>
			<point x="189" y="510" type="line"/>
			<point x="129" y="510" type="line"/>
			<point x="62" y="196" type="line" smooth="yes"/>
			<point x="58" y="177"/>
			<point x="54" y="147"/>
		</contour>
	</outline>
</glyph>
<glyph name="v" format="2">
	<advance width="400"/>
	<unicode hex="0076"/>
	<outline>
		<contour>
			<point x="59" y="510" type="line"/>
			<point x="121" y="0" type="line"/>
			<point x="164" y="0" type="line"/>
			<point x="170" y="38" type="line"/>
			<point x="120" y="510" type="line"/>
		</contour>
		<contour>
			<point x="132" y="0" type="line"/>
			<point x="170" y="0" type="line"/>
			<point x="437" y="510" type="line"/>
			<point x="371" y="510" type="line"/>
			<point x="134" y="38" type="line"/>
		</contour>
	</outline>
</glyph>
<glyph name="w" format="2">
	<advance width="590"/>
	<unicode hex="0077"/>
	<anchor x="346" y="510" name="top"/>
	<outline>
		<contour>
			<point x="62" y="510" type="line"/>
			<point x="91" y="0" type="line"/>
			<point x="135" y="0" type="line"/>
			<point x="141" y="31" type="line"/>
			<point x="123" y="510" type="line"/>
		</contour>
		<contour>
			<point x="103" y="0" type="line"/>
			<point x="141" y="0" type="line"/>
			<point x="339" y="427" type="line"/>
			<point x="354" y="510" type="line"/>
			<point x="322" y="510" type="line"/>
			<point x="104" y="31" type="line"/>
		</contour>
		<contour>
			<point x="323" y="427" type="line"/>
			<point x="337" y="0" type="line"/>
			<point x="381" y="0" type="line"/>
			<point x="386" y="31" type="line"/>
			<point x="371" y="510" type="line"/>
			<point x="338" y="510" type="line"/>
		</contour>
		<contour>
			<point x="349" y="0" type="line"/>
			<point x="386" y="0" type="line"/>
			<point x="632" y="510" type="line"/>
			<point x="568" y="510" type="line"/>
			<point x="349" y="31" type="line"/>
		</contour>
	</outline>
</glyph>
<glyph name="x" format="2">
	<advance width="410"/>
	<unicode hex="0078"/>
	<outline>
		<contour>
			<point x="-39" y="0" type="line"/>
			<point x="35" y="0" type="line"/>
			<point x="200" y="225" type="line"/>
			<point x="223" y="247" type="line"/>
			<point x="429" y="510" type="line"/>
			<point x="355" y="510" type="line"/>
			<point x="203" y="300" type="line"/>
			<point x="181" y="278" type="line"/>
		</contour>
		<contour>
			<point x="79" y="510" type="line"/>
			<point x="180" y="239" type="line"/>
			<point x="265" y="0" type="line"/>
			<point x="331" y="0" type="line"/>
			<point x="224" y="285" type="line"/>
			<point x="145" y="510" type="line"/>
		</contour>
	</outline>
</glyph>
<glyph name="y" format="2">
	<advance width="400"/>
	<unicode hex="0079"/>
	<anchor x="264" y="510" name="top"/>
	<outline>
		<contour>
			<point x="-83" y="-173" type="line"/>
			<point x="-62" y="-185"/>
			<point x="-33" y="-193"/>
			<point x="-9" y="-193" type="curve"/>
			<point x="51" y="-193"/>
			<point x="113" y="-166"/>
			<point x="164" y="-58" type="curve" smooth="yes"/>
			<point x="435" y="510" type="line"/>
			<point x="369" y="510" type="line"/>
			<point x="163" y="40" type="line"/>
			<point x="115" y="-40" type="line" smooth="yes"/>
			<point x="73" y="-111"/>
			<point x="38" y="-140"/>
			<point x="-4" y="-140" type="curve"/>
			<point x="-24" y="-140"/>
			<point x="-43" y="-134"/>
			<point x="-61" y="-125" type="curve"/>
		</contour>
		<contour>
			<point x="87" y="510" type="line"/>
			<point x="149" y="0" type="line"/>
			<point x="192" y="0" type="line"/>
			<point x="198" y="38" type="line"/>
			<point x="148" y="510" type="line"/>
		</contour>
	</outline>
</glyph>
<glyph name="z" format="2">
	<advance width="458"/>
	<unicode hex="007A"/>
	<anchor x="276" y="510" name="top"/>
	<outline>
		<contour>
			<point x="-13" y="0" type="line"/>
			<point x="350" y="0" type="line"/>
			<point x="361" y="50" type="line"/>
			<point x="13" y="50" type="line"/>
			<point x="-4" y="40" type="line"/>
		</contour>
		<contour>
			<point x="-4" y="40" type="line"/>
			<point x="36" y="0" type="line"/>
			<point x="442" y="470" type="line"/>
			<point x="401" y="510" type="line"/>
		</contour>
		<contour>
			<point x="93" y="460" type="line"/>
			<point x="423" y="460" type="line"/>
			<point x="442" y="470" type="line"/>
			<point x="450" y="510" type="line"/>
			<point x="103" y="510" type="line"/>
		</contour>
	</outline>
</glyph>
<glyph name="braceright" format="1">
  <advance width="300.29581430734356"/>
  <unicode hex="007D"/>
  <outline>
    <contour>
      <point x="-79" y="-190" type="curve"/>
      <point x="-74" y="-251" type="line"/>
      <point x="51" y="-226"/>
      <point x="130" y="-165"/>
      <point x="130" y="-59" type="curve" smooth="yes"/>
      <point x="130" y="-1"/>
      <point x="100" y="54"/>
      <point x="100" y="112" type="curve" smooth="yes"/>
      <point x="100" y="176"/>
      <point x="146" y="225"/>
      <point x="235" y="240" type="curve"/>
      <point x="247" y="295" type="line"/>
      <point x="187" y="309"/>
      <point x="157" y="332"/>
      <point x="157" y="381" type="curve" smooth="yes"/>
      <point x="157" y="463"/>
      <point x="277" y="555"/>
      <point x="277" y="651" type="curve" smooth="yes"/>
      <point x="277" y="718"/>
      <point x="232" y="766"/>
      <point x="149" y="788" type="curve"/>
      <point x="120" y="733" type="line"/>
      <point x="178" y="708"/>
      <point x="195" y="683"/>
      <point x="195" y="651" type="curve"/>
      <point x="195" y="555"/>
      <point x="77" y="469"/>
      <point x="77" y="367" type="curve"/>
      <point x="77" y="320"/>
      <point x="100" y="286"/>
      <point x="149" y="269" type="curve"/>
      <point x="70" y="245"/>
      <point x="20" y="189"/>
      <point x="20" y="120" type="curve" smooth="yes"/>
      <point x="20" y="52"/>
      <point x="47" y="5"/>
      <point x="47" y="-55" type="curve" smooth="yes"/>
      <point x="47" y="-118"/>
      <point x="5" y="-162"/>
    </contour>
  </outline>
</glyph>
<glyph name="exclamdown" format="2">
	<advance width="296"/>
	<unicode hex="00A1"/>
	<outline>
		<contour>
			<point x="18" y="-185" type="line"/>
			<point x="80" y="-185" type="line"/>
			<point x="120" y="0" type="line"/>
			<point x="181" y="330" type="line"/>
			<point x="137" y="330" type="line"/>
			<point x="58" y="0" type="line"/>
		</contour>
		<contour>
			<point x="145" y="466" type="curve" smooth="yes"/>
			<point x="145" y="445"/>
			<point x="158" y="429"/>
			<point x="181" y="429" type="curve" smooth="yes"/>
			<point x="209" y="429"/>
			<point x="232" y="454"/>
			<point x="232" y="481" type="curve" smooth="yes"/>
			<point x="232" y="502"/>
			<point x="219" y="518"/>
			<point x="196" y="518" type="curve" smooth="yes"/>
			<point x="168" y="518"/>
			<point x="145" y="493"/>
		</contour>
	</outline>
</glyph>
<glyph name="cent" format="2">
	<advance width="500"/>
	<unicode hex="00A2"/>
	<outline>
		<contour>
			<point x="78" y="206" type="curve" smooth="yes"/>
			<point x="78" y="95"/>
			<point x="123" y="32"/>
			<point x="218" y="32" type="curve"/>
			<point x="300" y="32"/>
			<point x="357" y="73"/>
			<point x="404" y="131" type="curve"/>
			<point x="366" y="166" type="line"/>
			<point x="327" y="118"/>
			<point x="281" y="87"/>
			<point x="223" y="87" type="curve" smooth="yes"/>
			<point x="159" y="87"/>
			<point x="138" y="129"/>
			<point x="138" y="216" type="curve" smooth="yes"/>
			<point x="138" y="359"/>
			<point x="212" y="503"/>
			<point x="331" y="503" type="curve" smooth="yes"/>
			<point x="377" y="503"/>
			<point x="398" y="484"/>
			<point x="419" y="443" type="curve"/>
			<point x="468" y="474" type="line"/>
			<point x="442" y="528"/>
			<point x="396" y="558"/>
			<point x="336" y="558" type="curve" smooth="yes"/>
			<point x="180" y="558"/>
			<point x="78" y="391"/>
		</contour>
		<contour>
			<point x="161" y="-100" type="line"/>
			<point x="217" y="-100" type="line"/>
			<point x="298" y="280" type="line"/>
			<point x="242" y="280" type="line"/>
		</contour>
		<contour>
			<point x="242" y="280" type="line"/>
			<point x="298" y="280" type="line"/>
			<point x="386" y="695" type="line"/>
			<point x="330" y="695" type="line"/>
		</contour>
	</outline>
</glyph>
<glyph name="sterling" format="1">
  <advance width="500"/>
  <unicode hex="00A3"/>
  <outline>
    <contour>
      <point x="2.5" y="0" type="line"/>
      <point x="380.5" y="0" type="line"/>
      <point x="397.5" y="79" type="line"/>
      <point x="59.5" y="79" type="line"/>
    </contour>
    <contour>
      <point x="2.5" y="0" type="line"/>
      <point x="131.5" y="63"/>
      <point x="225.5" y="167"/>
      <point x="231.5" y="292" type="curve"/>
      <point x="233.5" y="354"/>
      <point x="233.5" y="382"/>
      <point x="235.5" y="429" type="curve"/>
      <point x="239.5" y="542"/>
      <point x="288.5" y="617"/>
      <point x="361.5" y="617" type="curve"/>
      <point x="400.5" y="617"/>
      <point x="431.5" y="596"/>
      <point x="453.5" y="554" type="curve"/>
      <point x="517.5" y="607" type="line"/>
      <point x="487.5" y="665"/>
      <point x="438.5" y="700"/>
      <point x="364.5" y="700" type="curve"/>
      <point x="254.5" y="700"/>
      <point x="155.5" y="607"/>
      <point x="148.5" y="437" type="curve"/>
      <point x="145.5" y="387"/>
      <point x="149.5" y="356"/>
      <point x="147.5" y="319" type="curve" smooth="yes"/>
      <point x="143.5" y="238"/>
      <point x="106.5" y="138"/>
      <point x="20.5" y="83" type="curve"/>
    </contour>
    <contour>
      <point x="62.5" y="292" type="line"/>
      <point x="367.5" y="292" type="line"/>
      <point x="383.5" y="366" type="line"/>
      <point x="78.5" y="366" type="line"/>
    </contour>
  </outline>
</glyph>
<glyph name="currency" format="2">
	<advance width="500"/>
	<unicode hex="00A4"/>
	<outline>
		<contour>
			<point x="-6" y="129" type="line"/>
			<point x="30" y="84" type="line"/>
			<point x="133" y="169" type="line"/>
			<point x="97" y="214" type="line"/>
		</contour>
		<contour>
			<point x="78" y="294" type="curve" smooth="yes"/>
			<point x="78" y="181"/>
			<point x="141" y="110"/>
			<point x="220" y="110" type="curve" smooth="yes"/>
			<point x="341" y="110"/>
			<point x="448" y="230"/>
			<point x="449" y="399" type="curve" smooth="yes"/>
			<point x="450" y="512"/>
			<point x="387" y="580"/>
			<point x="290" y="580" type="curve" smooth="yes"/>
			<point x="179" y="580"/>
			<point x="78" y="463"/>
		</contour>
		<contour>
			<point x="89" y="563" type="line"/>
			<point x="156" y="478" type="line"/>
			<point x="205" y="519" type="line"/>
			<point x="138" y="604" type="line"/>
		</contour>
		<contour>
			<point x="139" y="300" type="curve" smooth="yes"/>
			<point x="139" y="423"/>
			<point x="206" y="525"/>
			<point x="288" y="525" type="curve" smooth="yes"/>
			<point x="350" y="525"/>
			<point x="389" y="474"/>
			<point x="389" y="395" type="curve" smooth="yes"/>
			<point x="389" y="269"/>
			<point x="317" y="165"/>
			<point x="224" y="165" type="curve" smooth="yes"/>
			<point x="178" y="165"/>
			<point x="139" y="220"/>
		</contour>
		<contour>
			<point x="323" y="171" type="line"/>
			<point x="390" y="86" type="line"/>
			<point x="439" y="127" type="line"/>
			<point x="372" y="212" type="line"/>
		</contour>
		<contour>
			<point x="395" y="521" type="line"/>
			<point x="431" y="476" type="line"/>
			<point x="534" y="561" type="line"/>
			<point x="498" y="606" type="line"/>
		</contour>
	</outline>
</glyph>
<glyph name="brokenbar" format="1">
  <advance width="247.11651574949667"/>
  <unicode hex="00A6"/>
  <outline>
    <contour>
      <point x="-24" y="-215" type="line"/>
      <point x="59" y="-215" type="line"/>
      <point x="137" y="150" type="line"/>
      <point x="54" y="150" type="line"/>
    </contour>
    <contour>
      <point x="97" y="355" type="line"/>
      <point x="180" y="355" type="line"/>
      <point x="258" y="720" type="line"/>
      <point x="175" y="720" type="line"/>
    </contour>
  </outline>
</glyph>
<glyph name="section" format="2">
	<advance width="490"/>
	<unicode hex="00A7"/>
	<outline>
		<contour>
			<point x="-41" y="-126" type="line"/>
			<point x="0" y="-169"/>
			<point x="69" y="-193"/>
			<point x="142" y="-193" type="curve" smooth="yes"/>
			<point x="285" y="-193"/>
			<point x="361" y="-102"/>
			<point x="361" y="-16" type="curve" smooth="yes"/>
			<point x="361" y="63"/>
			<point x="341" y="96"/>
			<point x="217" y="148" type="curve" smooth="yes"/>
			<point x="117" y="190"/>
			<point x="98" y="226"/>
			<point x="98" y="284" type="curve" smooth="yes"/>
			<point x="98" y="338"/>
			<point x="131" y="393"/>
			<point x="226" y="414" type="curve"/>
			<point x="170" y="445" type="line"/>
			<point x="80" y="414"/>
			<point x="35" y="354"/>
			<point x="35" y="277" type="curve" smooth="yes"/>
			<point x="35" y="192"/>
			<point x="76" y="144"/>
			<point x="185" y="98" type="curve" smooth="yes"/>
			<point x="282" y="57"/>
			<point x="299" y="33"/>
			<point x="299" y="-17" type="curve" smooth="yes"/>
			<point x="299" y="-89"/>
			<point x="230" y="-139"/>
			<point x="144" y="-139" type="curve" smooth="yes"/>
			<point x="91" y="-139"/>
			<point x="34" y="-119"/>
			<point x="3" y="-84" type="curve"/>
		</contour>
		<contour>
			<point x="132" y="520" type="curve"/>
			<point x="132" y="442"/>
			<point x="157" y="396"/>
			<point x="273" y="353" type="curve" smooth="yes"/>
			<point x="346" y="326"/>
			<point x="384" y="274"/>
			<point x="384" y="224" type="curve" smooth="yes"/>
			<point x="384" y="162"/>
			<point x="362" y="108"/>
			<point x="264" y="92" type="curve"/>
			<point x="318" y="59" type="line"/>
			<point x="396" y="84"/>
			<point x="445" y="145"/>
			<point x="445" y="229" type="curve" smooth="yes"/>
			<point x="445" y="311"/>
			<point x="393" y="372"/>
			<point x="309" y="402" type="curve" smooth="yes"/>
			<point x="209" y="438"/>
			<point x="194" y="469"/>
			<point x="194" y="520" type="curve"/>
			<point x="194" y="592"/>
			<point x="239" y="644"/>
			<point x="337" y="644" type="curve" smooth="yes"/>
			<point x="380" y="644"/>
			<point x="414" y="631"/>
			<point x="455" y="605" type="curve"/>
			<point x="496" y="642" type="line"/>
			<point x="446" y="678"/>
			<point x="413" y="698"/>
			<point x="337" y="698" type="curve" smooth="yes"/>
			<point x="203" y="698"/>
			<point x="132" y="619"/>
		</contour>
	</outline>
</glyph>
<glyph name="copyright" format="2">
	<advance width="810"/>
	<unicode hex="00A9"/>
	<outline>
		<contour>
			<point x="418" y="-8" type="curve" smooth="yes"/>
			<point x="618" y="-8"/>
			<point x="773" y="145"/>
			<point x="773" y="345" type="curve" smooth="yes"/>
			<point x="773" y="545"/>
			<point x="618" y="698"/>
			<point x="418" y="698" type="curve" smooth="yes"/>
			<point x="218" y="698"/>
			<point x="63" y="545"/>
			<point x="63" y="345" type="curve" smooth="yes"/>
			<point x="63" y="145"/>
			<point x="218" y="-8"/>
		</contour>
		<contour>
			<point x="418" y="44" type="curve" smooth="yes"/>
			<point x="249" y="44"/>
			<point x="119" y="176"/>
			<point x="119" y="345" type="curve" smooth="yes"/>
			<point x="119" y="514"/>
			<point x="249" y="646"/>
			<point x="418" y="646" type="curve" smooth="yes"/>
			<point x="587" y="646"/>
			<point x="717" y="514"/>
			<point x="717" y="345" type="curve" smooth="yes"/>
			<point x="717" y="176"/>
			<point x="587" y="44"/>
		</contour>
		<contour>
			<point x="229" y="345" type="curve" smooth="yes"/>
			<point x="229" y="210"/>
			<point x="315" y="135"/>
			<point x="418" y="135" type="curve" smooth="yes"/>
			<point x="470" y="135"/>
			<point x="514" y="155"/>
			<point x="550" y="191" type="curve"/>
			<point x="513" y="232" type="line"/>
			<point x="487" y="204"/>
			<point x="457" y="189"/>
			<point x="419" y="189" type="curve" smooth="yes"/>
			<point x="344" y="189"/>
			<point x="287" y="244"/>
			<point x="287" y="345" type="curve" smooth="yes"/>
			<point x="287" y="447"/>
			<point x="344" y="501"/>
			<point x="419" y="501" type="curve" smooth="yes"/>
			<point x="452" y="501"/>
			<point x="480" y="488"/>
			<point x="507" y="460" type="curve"/>
			<point x="545" y="500" type="line"/>
			<point x="509" y="535"/>
			<point x="466" y="555"/>
			<point x="418" y="555" type="curve" smooth="yes"/>
			<point x="315" y="555"/>
			<point x="229" y="480"/>
		</contour>
	</outline>
</glyph>
<glyph name="ordfeminine" format="2">
	<advance width="459"/>
	<unicode hex="00AA"/>
	<outline>
		<contour>
			<point x="95" y="438" type="curve"/>
			<point x="95" y="328"/>
			<point x="150" y="283"/>
			<point x="216" y="283" type="curve"/>
			<point x="268" y="283"/>
			<point x="324" y="319"/>
			<point x="357" y="374" type="curve"/>
			<point x="340" y="378" type="line"/>
			<point x="337" y="290" type="line"/>
			<point x="391" y="290" type="line"/>
			<point x="391" y="309" type="line" smooth="yes"/>
			<point x="391" y="335"/>
			<point x="394" y="359"/>
			<point x="400" y="385" type="curve" smooth="yes"/>
			<point x="464" y="691" type="line"/>
			<point x="413" y="691" type="line"/>
			<point x="395" y="635" type="line"/>
			<point x="361" y="472" type="line" smooth="yes"/>
			<point x="341" y="377"/>
			<point x="280" y="335"/>
			<point x="233" y="335" type="curve"/>
			<point x="185" y="335"/>
			<point x="153" y="370"/>
			<point x="153" y="438" type="curve"/>
			<point x="153" y="555"/>
			<point x="223" y="646"/>
			<point x="307" y="646" type="curve"/>
			<point x="349" y="646"/>
			<point x="374" y="632"/>
			<point x="406" y="597" type="curve"/>
			<point x="414" y="648" type="line"/>
			<point x="382" y="682"/>
			<point x="343" y="697"/>
			<point x="311" y="697" type="curve"/>
			<point x="192" y="697"/>
			<point x="95" y="574"/>
		</contour>
	</outline>
</glyph>
<glyph name="degree" format="2">
	<advance width="297"/>
	<unicode hex="00B0"/>
	<outline>
		<contour>
			<point x="94" y="543" type="curve" smooth="yes"/>
			<point x="94" y="478"/>
			<point x="128" y="426"/>
			<point x="190" y="426" type="curve" smooth="yes"/>
			<point x="269" y="426"/>
			<point x="327" y="495"/>
			<point x="327" y="586" type="curve" smooth="yes"/>
			<point x="327" y="640"/>
			<point x="293" y="698"/>
			<point x="232" y="698" type="curve" smooth="yes"/>
			<point x="145" y="698"/>
			<point x="94" y="625"/>
		</contour>
		<contour>
			<point x="145" y="547" type="curve" smooth="yes"/>
			<point x="145" y="597"/>
			<point x="173" y="652"/>
			<point x="225" y="652" type="curve" smooth="yes"/>
			<point x="266" y="652"/>
			<point x="276" y="613"/>
			<point x="276" y="581" type="curve" smooth="yes"/>
			<point x="276" y="521"/>
			<point x="241" y="472"/>
			<point x="197" y="472" type="curve" smooth="yes"/>
			<point x="156" y="472"/>
			<point x="145" y="507"/>
		</contour>
	</outline>
</glyph>
<glyph name="twosuperior" format="1">
  <advance width="370.35859711569356"/>
  <unicode hex="00B2"/>
  <outline>
    <contour>
      <point x="63" y="290" type="line"/>
      <point x="308" y="290" type="line"/>
      <point x="321" y="354" type="line"/>
      <point x="124" y="354" type="line"/>
      <point x="72" y="336" type="line"/>
    </contour>
    <contour>
      <point x="72" y="336" type="line"/>
      <point x="105" y="290" type="line"/>
      <point x="254" y="431" type="line" smooth="yes"/>
      <point x="321" y="495"/>
      <point x="358" y="540"/>
      <point x="358" y="592" type="curve" smooth="yes"/>
      <point x="358" y="656"/>
      <point x="315" y="700"/>
      <point x="250" y="700" type="curve"/>
      <point x="195" y="700"/>
      <point x="155" y="670"/>
      <point x="122" y="634" type="curve"/>
      <point x="161" y="585" type="line"/>
      <point x="188" y="618"/>
      <point x="214" y="635"/>
      <point x="244" y="635" type="curve"/>
      <point x="270" y="635"/>
      <point x="289" y="617"/>
      <point x="289" y="587" type="curve" smooth="yes"/>
      <point x="289" y="553"/>
      <point x="263" y="523"/>
      <point x="213" y="474" type="curve" smooth="yes"/>
    </contour>
  </outline>
</glyph>
<glyph name="acute" format="1">
  <advance width="500"/>
  <unicode hex="00B4"/>
  <outline>
    <contour>
      <point x="259" y="589" type="line"/>
      <point x="335" y="589" type="line"/>
      <point x="464" y="739" type="line"/>
      <point x="358" y="739" type="line"/>
    </contour>
    <contour>
      <point x="299" y="514" type="move" name="_top"/>
    </contour>
  </outline>
</glyph>
<glyph name="paragraph" format="2">
	<advance width="610"/>
	<unicode hex="00B6"/>
	<outline>
		<contour>
			<point x="91" y="406" type="curve" smooth="yes"/>
			<point x="91" y="303"/>
			<point x="172" y="224"/>
			<point x="284" y="224" type="curve"/>
			<point x="317" y="224" type="line"/>
			<point x="230" y="-185" type="line"/>
			<point x="286" y="-185" type="line"/>
			<point x="472" y="690" type="line"/>
			<point x="383" y="690" type="line"/>
			<point x="210" y="690"/>
			<point x="91" y="572"/>
		</contour>
		<contour>
			<point x="370" y="-185" type="line"/>
			<point x="426" y="-185" type="line"/>
			<point x="612" y="690" type="line"/>
			<point x="556" y="690" type="line"/>
		</contour>
	</outline>
</glyph>
<glyph name="onesuperior" format="2">
	<advance width="440"/>
	<unicode hex="00B9"/>
	<outline>
		<contour>
			<point x="96" y="290" type="line"/>
			<point x="372" y="290" type="line"/>
			<point x="382" y="338" type="line"/>
			<point x="106" y="338" type="line"/>
		</contour>
		<contour>
			<point x="151" y="624" type="line"/>
			<point x="161" y="578" type="line"/>
			<point x="315" y="642" type="line"/>
			<point x="309" y="690" type="line"/>
		</contour>
		<contour>
			<point x="206" y="290" type="line"/>
			<point x="262" y="290" type="line"/>
			<point x="347" y="690" type="line"/>
			<point x="309" y="690" type="line"/>
			<point x="279" y="637" type="line"/>
		</contour>
	</outline>
</glyph>
<glyph name="ordmasculine" format="1">
  <advance width="410.79742826615484"/>
  <unicode hex="00BA"/>
  <outline>
    <contour>
      <point x="82" y="437" type="curve" smooth="yes"/>
      <point x="82" y="332"/>
      <point x="137" y="278"/>
      <point x="212" y="278" type="curve"/>
      <point x="332" y="278"/>
      <point x="413" y="407"/>
      <point x="413" y="539" type="curve" smooth="yes"/>
      <point x="413" y="648"/>
      <point x="357" y="700"/>
      <point x="284" y="700" type="curve"/>
      <point x="163" y="700"/>
      <point x="82" y="573"/>
    </contour>
    <contour>
      <point x="157" y="445" type="curve" smooth="yes"/>
      <point x="157" y="532"/>
      <point x="206" y="634"/>
      <point x="278" y="634" type="curve"/>
      <point x="314" y="634"/>
      <point x="337" y="605"/>
      <point x="337" y="532" type="curve" smooth="yes"/>
      <point x="337" y="443"/>
      <point x="289" y="344"/>
      <point x="220" y="344" type="curve"/>
      <point x="183" y="344"/>
      <point x="157" y="377"/>
    </contour>
  </outline>
</glyph>
<glyph name="questiondown" format="2">
	<advance width="409"/>
	<unicode hex="00BF"/>
	<outline>
		<contour>
			<point x="-14" y="-36" type="curve" smooth="yes"/>
			<point x="-14" y="-107"/>
			<point x="31" y="-188"/>
			<point x="133" y="-188" type="curve" smooth="yes"/>
			<point x="219" y="-188"/>
			<point x="259" y="-154"/>
			<point x="314" y="-86" type="curve"/>
			<point x="279" y="-51" type="line"/>
			<point x="233" y="-101"/>
			<point x="206" y="-133"/>
			<point x="139" y="-133" type="curve" smooth="yes"/>
			<point x="83" y="-133"/>
			<point x="51" y="-86"/>
			<point x="51" y="-26" type="curve" smooth="yes"/>
			<point x="51" y="37"/>
			<point x="70" y="76"/>
			<point x="142" y="120" type="curve" smooth="yes"/>
			<point x="197" y="153"/>
			<point x="228" y="187"/>
			<point x="237" y="242" type="curve" smooth="yes"/>
			<point x="252" y="330" type="line"/>
			<point x="205" y="330" type="line"/>
			<point x="186" y="256" type="line" smooth="yes"/>
			<point x="176" y="215"/>
			<point x="154" y="188"/>
			<point x="118" y="167" type="curve" smooth="yes"/>
			<point x="37" y="121"/>
			<point x="-14" y="65"/>
		</contour>
		<contour>
			<point x="206" y="466" type="curve" smooth="yes"/>
			<point x="206" y="445"/>
			<point x="219" y="429"/>
			<point x="242" y="429" type="curve" smooth="yes"/>
			<point x="270" y="429"/>
			<point x="293" y="454"/>
			<point x="293" y="481" type="curve" smooth="yes"/>
			<point x="293" y="502"/>
			<point x="280" y="518"/>
			<point x="258" y="518" type="curve" smooth="yes"/>
			<point x="229" y="518"/>
			<point x="206" y="493"/>
		</contour>
	</outline>
</glyph>
<glyph name="AE" format="2">
	<advance width="843"/>
	<unicode hex="00C6"/>
	<anchor x="620" y="690" name="top"/>
	<outline>
		<contour>
			<point x="-40" y="0" type="line"/>
			<point x="25" y="0" type="line"/>
			<point x="441" y="645" type="line"/>
			<point x="449" y="690" type="line"/>
			<point x="406" y="690" type="line"/>
		</contour>
		<contour>
			<point x="148" y="226" type="line"/>
			<point x="441" y="226" type="line"/>
			<point x="453" y="280" type="line"/>
			<point x="160" y="280" type="line"/>
		</contour>
		<contour>
			<point x="368" y="0" type="line"/>
			<point x="430" y="0" type="line"/>
			<point x="577" y="690" type="line"/>
			<point x="515" y="690" type="line"/>
		</contour>
		<contour>
			<point x="428" y="636" type="line"/>
			<point x="849" y="636" type="line"/>
			<point x="861" y="690" type="line"/>
			<point x="440" y="690" type="line"/>
		</contour>
		<contour>
			<point x="398" y="0" type="line"/>
			<point x="719" y="0" type="line"/>
			<point x="730" y="54" type="line"/>
			<point x="409" y="54" type="line"/>
		</contour>
		<contour>
			<point x="466" y="322" type="line"/>
			<point x="736" y="322" type="line"/>
			<point x="747" y="374" type="line"/>
			<point x="477" y="374" type="line"/>
		</contour>
	</outline>
</glyph>
<glyph name="Eth" format="2">
	<advance width="684"/>
	<unicode hex="00D0"/>
	<outline>
		<contour>
			<point x="13" y="317" type="line"/>
			<point x="298" y="317" type="line"/>
			<point x="309" y="367" type="line"/>
			<point x="24" y="367" type="line"/>
		</contour>
		<contour>
			<point x="54" y="0" type="line"/>
			<point x="116" y="0" type="line"/>
			<point x="263" y="690" type="line"/>
			<point x="201" y="690" type="line"/>
		</contour>
		<contour>
			<point x="84" y="0" type="line"/>
			<point x="228" y="0" type="line" smooth="yes"/>
			<point x="473" y="0"/>
			<point x="640" y="193"/>
			<point x="640" y="444" type="curve" smooth="yes"/>
			<point x="640" y="591"/>
			<point x="535" y="690"/>
			<point x="369" y="690" type="curve" smooth="yes"/>
			<point x="231" y="690" type="line"/>
			<point x="219" y="636" type="line"/>
			<point x="362" y="636" type="line" smooth="yes"/>
			<point x="498" y="636"/>
			<point x="575" y="562"/>
			<point x="575" y="434" type="curve" smooth="yes"/>
			<point x="575" y="227"/>
			<point x="431" y="54"/>
			<point x="235" y="54" type="curve" smooth="yes"/>
			<point x="95" y="54" type="line"/>
		</contour>
	</outline>
</glyph>
<glyph name="multiply" format="2">
  <advance width="500"/>
  <unicode hex="00D7"/>
  <outline>
    <contour>
      <point x="36.0" y="137" type="line"/>
      <point x="83.0" y="79" type="line"/>
      <point x="467.0" y="446" type="line"/>
      <point x="420.0" y="504" type="line"/>
    </contour>
    <contour>
      <point x="102.0" y="455" type="line"/>
      <point x="341.0" y="81" type="line"/>
      <point x="402.0" y="126" type="line"/>
      <point x="164.0" y="499" type="line"/>
    </contour>
  </outline>
</glyph>
<glyph name="Oslash" format="2">
	<advance width="697"/>
	<unicode hex="00D8"/>
	<anchor x="433" y="690" name="top"/>
	<outline>
		<contour>
			<point x="67" y="229" type="curve"/>
			<point x="67" y="76"/>
			<point x="159" y="-8"/>
			<point x="285" y="-8" type="curve"/>
			<point x="480" y="-8"/>
			<point x="657" y="208"/>
			<point x="657" y="461" type="curve"/>
			<point x="657" y="614"/>
			<point x="565" y="698"/>
			<point x="439" y="698" type="curve"/>
			<point x="244" y="698"/>
			<point x="67" y="482"/>
		</contour>
		<contour>
			<point x="132" y="236" type="curve"/>
			<point x="132" y="452"/>
			<point x="276" y="641"/>
			<point x="432" y="641" type="curve"/>
			<point x="529" y="641"/>
			<point x="592" y="575"/>
			<point x="592" y="454" type="curve"/>
			<point x="592" y="238"/>
			<point x="448" y="49"/>
			<point x="292" y="49" type="curve"/>
			<point x="195" y="49"/>
			<point x="132" y="115"/>
		</contour>
		<contour>
			<point x="-19" y="29" type="line"/>
			<point x="17" y="-10" type="line"/>
			<point x="743" y="659" type="line"/>
			<point x="707" y="698" type="line"/>
		</contour>
	</outline>
</glyph>
<glyph name="Thorn" format="2">
	<advance width="483"/>
	<unicode hex="00DE"/>
	<outline>
		<contour>
			<point x="44" y="0" type="line"/>
			<point x="106" y="0" type="line"/>
			<point x="253" y="690" type="line"/>
			<point x="191" y="690" type="line"/>
		</contour>
		<contour>
			<point x="106" y="150" type="line"/>
			<point x="192" y="150" type="line" smooth="yes"/>
			<point x="352" y="150"/>
			<point x="455" y="239"/>
			<point x="455" y="389" type="curve" smooth="yes"/>
			<point x="455" y="488"/>
			<point x="378" y="540"/>
			<point x="273" y="540" type="curve" smooth="yes"/>
			<point x="189" y="540" type="line"/>
			<point x="177" y="486" type="line"/>
			<point x="261" y="486" type="line" smooth="yes"/>
			<point x="344" y="486"/>
			<point x="390" y="452"/>
			<point x="390" y="380" type="curve" smooth="yes"/>
			<point x="390" y="278"/>
			<point x="316" y="204"/>
			<point x="200" y="204" type="curve" smooth="yes"/>
			<point x="117" y="204" type="line"/>
		</contour>
	</outline>
</glyph>
<glyph name="germandbls" format="2">
	<advance width="506"/>
	<unicode hex="00DF"/>
	<outline>
		<contour>
			<point x="26" y="0" type="line"/>
			<point x="86" y="0" type="line"/>
			<point x="200" y="534" type="line" smooth="yes"/>
			<point x="220" y="626"/>
			<point x="240" y="673"/>
			<point x="293" y="673" type="curve" smooth="yes"/>
			<point x="333" y="673"/>
			<point x="365" y="644"/>
			<point x="365" y="585" type="curve" smooth="yes"/>
			<point x="365" y="527"/>
			<point x="333" y="467"/>
			<point x="217" y="380" type="curve"/>
			<point x="208" y="334" type="line"/>
			<point x="303" y="254" type="line" smooth="yes"/>
			<point x="345" y="218"/>
			<point x="371" y="183"/>
			<point x="371" y="149" type="curve" smooth="yes"/>
			<point x="371" y="91"/>
			<point x="340" y="47"/>
			<point x="276" y="47" type="curve" smooth="yes"/>
			<point x="230" y="47"/>
			<point x="204" y="59"/>
			<point x="174" y="82" type="curve"/>
			<point x="143" y="35" type="line"/>
			<point x="171" y="13"/>
			<point x="215" y="-8"/>
			<point x="273" y="-8" type="curve"/>
			<point x="378" y="-8"/>
			<point x="429" y="75"/>
			<point x="429" y="143" type="curve" smooth="yes"/>
			<point x="429" y="208"/>
			<point x="392" y="254"/>
			<point x="340" y="299" type="curve" smooth="yes"/>
			<point x="275" y="356" type="line"/>
			<point x="373" y="430"/>
			<point x="428" y="514"/>
			<point x="428" y="593" type="curve" smooth="yes"/>
			<point x="428" y="679"/>
			<point x="367" y="728"/>
			<point x="299" y="728" type="curve" smooth="yes"/>
			<point x="204" y="728"/>
			<point x="167" y="665"/>
			<point x="140" y="536" type="curve" smooth="yes"/>
		</contour>
	</outline>
</glyph>
<glyph name="ae" format="2">
	<advance width="669"/>
	<unicode hex="00E6"/>
	<anchor x="396" y="510" name="top"/>
	<outline>
		<contour>
			<point x="49" y="130" type="curve" smooth="yes"/>
			<point x="49" y="49"/>
			<point x="88" y="-8"/>
			<point x="167" y="-8" type="curve" smooth="yes"/>
			<point x="218" y="-8"/>
			<point x="258" y="22"/>
			<point x="317" y="102" type="curve"/>
			<point x="304" y="149" type="line"/>
			<point x="262" y="83"/>
			<point x="218" y="46"/>
			<point x="174" y="46" type="curve" smooth="yes"/>
			<point x="122" y="46"/>
			<point x="110" y="86"/>
			<point x="110" y="132" type="curve" smooth="yes"/>
			<point x="110" y="211"/>
			<point x="183" y="259"/>
			<point x="237" y="259" type="curve" smooth="yes"/>
			<point x="261" y="259"/>
			<point x="287" y="258"/>
			<point x="311" y="257" type="curve"/>
			<point x="320" y="299" type="line"/>
			<point x="301" y="301"/>
			<point x="268" y="303"/>
			<point x="242" y="303" type="curve" smooth="yes"/>
			<point x="150" y="303"/>
			<point x="49" y="245"/>
		</contour>
		<contour>
			<point x="88" y="481" type="curve"/>
			<point x="106" y="434" type="line"/>
			<point x="157" y="460"/>
			<point x="185" y="463"/>
			<point x="233" y="463" type="curve" smooth="yes"/>
			<point x="297" y="463"/>
			<point x="324" y="436"/>
			<point x="324" y="370" type="curve" smooth="yes"/>
			<point x="324" y="353"/>
			<point x="323" y="343"/>
			<point x="312" y="292" type="curve"/>
			<point x="369" y="276" type="line"/>
			<point x="378" y="321"/>
			<point x="386" y="361"/>
			<point x="386" y="381" type="curve" smooth="yes"/>
			<point x="386" y="472"/>
			<point x="335" y="518"/>
			<point x="245" y="518" type="curve" smooth="yes"/>
			<point x="191" y="518"/>
			<point x="142" y="508"/>
		</contour>
		<contour>
			<point x="294" y="165" type="curve" smooth="yes"/>
			<point x="294" y="55"/>
			<point x="339" y="-8"/>
			<point x="425" y="-8" type="curve" smooth="yes"/>
			<point x="486" y="-8"/>
			<point x="534" y="23"/>
			<point x="582" y="81" type="curve"/>
			<point x="545" y="116" type="line"/>
			<point x="505" y="68"/>
			<point x="472" y="47"/>
			<point x="430" y="47" type="curve" smooth="yes"/>
			<point x="372" y="47"/>
			<point x="354" y="87"/>
			<point x="354" y="176" type="curve" smooth="yes"/>
			<point x="354" y="318"/>
			<point x="406" y="463"/>
			<point x="508" y="463" type="curve" smooth="yes"/>
			<point x="565" y="463"/>
			<point x="585" y="430"/>
			<point x="585" y="390" type="curve" smooth="yes"/>
			<point x="585" y="335"/>
			<point x="557" y="286"/>
			<point x="445" y="286" type="curve" smooth="yes"/>
			<point x="413" y="286"/>
			<point x="396" y="289"/>
			<point x="354" y="295" type="curve"/>
			<point x="345" y="246" type="line"/>
			<point x="390" y="239"/>
			<point x="411" y="236"/>
			<point x="447" y="236" type="curve" smooth="yes"/>
			<point x="596" y="236"/>
			<point x="644" y="313"/>
			<point x="644" y="393" type="curve" smooth="yes"/>
			<point x="644" y="460"/>
			<point x="606" y="518"/>
			<point x="514" y="518" type="curve" smooth="yes"/>
			<point x="377" y="518"/>
			<point x="294" y="349"/>
		</contour>
	</outline>
</glyph>
<glyph name="eth" format="2">
	<advance width="565"/>
	<unicode hex="00F0"/>
	<outline>
		<contour>
			<point x="48" y="190" type="curve"/>
			<point x="48" y="73"/>
			<point x="121" y="-8"/>
			<point x="229" y="-8" type="curve"/>
			<point x="394" y="-8"/>
			<point x="497" y="149"/>
			<point x="497" y="345" type="curve"/>
			<point x="497" y="503"/>
			<point x="415" y="647"/>
			<point x="343" y="720" type="curve"/>
			<point x="264" y="720" type="line"/>
			<point x="370" y="632"/>
			<point x="443" y="503"/>
			<point x="443" y="344" type="curve"/>
			<point x="443" y="179"/>
			<point x="356" y="47"/>
			<point x="235" y="47" type="curve"/>
			<point x="161" y="47"/>
			<point x="110" y="101"/>
			<point x="110" y="194" type="curve"/>
			<point x="110" y="300"/>
			<point x="188" y="423"/>
			<point x="298" y="423" type="curve"/>
			<point x="364" y="423"/>
			<point x="411" y="392"/>
			<point x="447" y="324" type="curve"/>
			<point x="450" y="385" type="line"/>
			<point x="417" y="442"/>
			<point x="360" y="478"/>
			<point x="299" y="478" type="curve"/>
			<point x="154" y="478"/>
			<point x="48" y="340"/>
		</contour>
		<contour>
			<point x="233" y="588" type="line"/>
			<point x="248" y="544" type="line"/>
			<point x="527" y="684" type="line"/>
			<point x="513" y="728" type="line"/>
		</contour>
	</outline>
</glyph>
<glyph name="divide" format="2">
	<advance width="500"/>
	<unicode hex="00F7"/>
	<outline>
		<contour>
			<point x="52" y="263" type="line"/>
			<point x="442" y="263" type="line"/>
			<point x="453" y="317" type="line"/>
			<point x="63" y="317" type="line"/>
		</contour>
		<contour>
			<point x="170" y="96" type="curve"/>
			<point x="170" y="76"/>
			<point x="184" y="62"/>
			<point x="204" y="62" type="curve"/>
			<point x="233" y="62"/>
			<point x="258" y="86"/>
			<point x="258" y="116" type="curve"/>
			<point x="258" y="136"/>
			<point x="245" y="151"/>
			<point x="223" y="151" type="curve"/>
			<point x="195" y="151"/>
			<point x="170" y="126"/>
		</contour>
		<contour>
			<point x="248" y="463" type="curve"/>
			<point x="248" y="443"/>
			<point x="262" y="429"/>
			<point x="282" y="429" type="curve"/>
			<point x="311" y="429"/>
			<point x="336" y="453"/>
			<point x="336" y="483" type="curve"/>
			<point x="336" y="503"/>
			<point x="323" y="518"/>
			<point x="301" y="518" type="curve"/>
			<point x="273" y="518"/>
			<point x="248" y="493"/>
		</contour>
	</outline>
</glyph>
<glyph name="thorn" format="2">
	<advance width="487"/>
	<unicode hex="00FE"/>
	<outline>
		<contour>
			<point x="-14" y="-196" type="line"/>
			<point x="46" y="-182" type="line"/>
			<point x="144" y="284" type="line"/>
			<point x="172" y="400"/>
			<point x="219" y="465"/>
			<point x="290" y="465" type="curve" smooth="yes"/>
			<point x="349" y="465"/>
			<point x="362" y="370"/>
			<point x="362" y="342" type="curve" smooth="yes"/>
			<point x="362" y="192"/>
			<point x="295" y="44"/>
			<point x="201" y="44" type="curve" smooth="yes"/>
			<point x="160" y="44"/>
			<point x="135" y="58"/>
			<point x="98" y="107" type="curve"/>
			<point x="88" y="55" type="line"/>
			<point x="124" y="7"/>
			<point x="156" y="-8"/>
			<point x="196" y="-8" type="curve" smooth="yes"/>
			<point x="340" y="-8"/>
			<point x="423" y="160"/>
			<point x="423" y="348" type="curve" smooth="yes"/>
			<point x="423" y="436"/>
			<point x="385" y="518"/>
			<point x="306" y="518" type="curve" smooth="yes"/>
			<point x="234" y="518"/>
			<point x="202" y="473"/>
			<point x="160" y="402" type="curve"/>
			<point x="168" y="400" type="line"/>
			<point x="238" y="731" type="line"/>
			<point x="178" y="717" type="line"/>
		</contour>
	</outline>
</glyph>
<glyph name="Hbar" format="2">
	<advance width="581"/>
	<unicode hex="0126"/>
	<outline>
		<contour>
			<point x="88" y="528" type="line"/>
			<point x="599" y="528" type="line"/>
			<point x="610" y="578" type="line"/>
			<point x="99" y="578" type="line"/>
		</contour>
		<contour>
			<point x="48" y="0" type="line"/>
			<point x="110" y="0" type="line"/>
			<point x="257" y="690" type="line"/>
			<point x="195" y="690" type="line"/>
		</contour>
		<contour>
			<point x="146" y="321" type="line"/>
			<point x="452" y="321" type="line"/>
			<point x="464" y="375" type="line"/>
			<point x="158" y="375" type="line"/>
		</contour>
		<contour>
			<point x="352" y="0" type="line"/>
			<point x="414" y="0" type="line"/>
			<point x="561" y="690" type="line"/>
			<point x="499" y="690" type="line"/>
		</contour>
	</outline>
</glyph>
<glyph name="hbar" format="2">
	<advance width="472"/>
	<unicode hex="0127"/>
	<outline>
		<contour>
			<point x="90" y="586" type="line"/>
			<point x="311" y="586" type="line"/>
			<point x="322" y="636" type="line"/>
			<point x="101" y="636" type="line"/>
		</contour>
		<contour>
			<point x="18" y="0" type="line"/>
			<point x="78" y="0" type="line"/>
			<point x="137" y="278" type="line" smooth="yes"/>
			<point x="162" y="398"/>
			<point x="212" y="465"/>
			<point x="284" y="465" type="curve"/>
			<point x="331" y="465"/>
			<point x="351" y="432"/>
			<point x="351" y="384" type="curve" smooth="yes"/>
			<point x="351" y="368"/>
			<point x="348" y="331"/>
			<point x="344" y="312" type="curve" smooth="yes"/>
			<point x="278" y="0" type="line"/>
			<point x="338" y="0" type="line"/>
			<point x="405" y="314" type="line" smooth="yes"/>
			<point x="409" y="333"/>
			<point x="414" y="364"/>
			<point x="414" y="404" type="curve" smooth="yes"/>
			<point x="414" y="473"/>
			<point x="377" y="518"/>
			<point x="302" y="518" type="curve"/>
			<point x="231" y="518"/>
			<point x="197" y="473"/>
			<point x="155" y="402" type="curve"/>
			<point x="162" y="397" type="line"/>
			<point x="233" y="731" type="line"/>
			<point x="170" y="717" type="line"/>
		</contour>
	</outline>
</glyph>
<glyph name="dotlessi" format="2">
	<advance width="248"/>
	<unicode hex="0131"/>
	<anchor x="172" y="510" name="top"/>
	<outline>
		<contour>
			<point x="34" y="0" type="line"/>
			<point x="94" y="0" type="line"/>
			<point x="202" y="510" type="line"/>
			<point x="142" y="510" type="line"/>
		</contour>
	</outline>
</glyph>
<glyph name="IJ" format="1">
  <advance width="608.8366741872237"/>
  <unicode hex="0132"/>
  <outline>
    <contour>
      <point x="18" y="0" type="line"/>
      <point x="108" y="0" type="line"/>
      <point x="254" y="690" type="line"/>
      <point x="164" y="690" type="line"/>
    </contour>
    <contour>
      <point x="192" y="28" type="line"/>
      <point x="220" y="6"/>
      <point x="260" y="-10"/>
      <point x="306" y="-10" type="curve" smooth="yes"/>
      <point x="404" y="-10"/>
      <point x="492" y="50"/>
      <point x="526" y="214" type="curve" smooth="yes"/>
      <point x="625" y="690" type="line"/>
      <point x="536" y="690" type="line"/>
      <point x="450" y="269" type="line" smooth="yes"/>
      <point x="417" y="106"/>
      <point x="368" y="75"/>
      <point x="315" y="75" type="curve" smooth="yes"/>
      <point x="286" y="75"/>
      <point x="262" y="84"/>
      <point x="244" y="100" type="curve"/>
    </contour>
  </outline>
</glyph>
<glyph name="IJ" format="2">
	<advance width="700"/>
	<unicode hex="0132"/>
	<outline>
		<contour>
			<point x="31" y="0" type="line"/>
			<point x="93" y="0" type="line"/>
			<point x="240" y="690" type="line"/>
			<point x="178" y="690" type="line"/>
		</contour>
		<contour>
			<point x="231" y="27" type="line"/>
			<point x="259" y="4"/>
			<point x="305" y="-8"/>
			<point x="354" y="-8" type="curve" smooth="yes"/>
			<point x="465" y="-8"/>
			<point x="557" y="52"/>
			<point x="592" y="215" type="curve" smooth="yes"/>
			<point x="693" y="690" type="line"/>
			<point x="631" y="690" type="line"/>
			<point x="531" y="220" type="line" smooth="yes"/>
			<point x="505" y="97"/>
			<point x="440" y="49"/>
			<point x="359" y="49" type="curve" smooth="yes"/>
			<point x="320" y="49"/>
			<point x="291" y="59"/>
			<point x="269" y="77" type="curve"/>
		</contour>
	</outline>
</glyph>
<glyph name="Lslash" format="2">
	<advance width="538"/>
	<unicode hex="0141"/>
	<outline>
		<contour>
			<point x="43" y="225" type="line"/>
			<point x="347" y="376" type="line"/>
			<point x="360" y="437" type="line"/>
			<point x="56" y="286" type="line"/>
		</contour>
		<contour>
			<point x="54" y="0" type="line"/>
			<point x="116" y="0" type="line"/>
			<point x="263" y="690" type="line"/>
			<point x="201" y="690" type="line"/>
		</contour>
		<contour>
			<point x="84" y="0" type="line"/>
			<point x="436" y="0" type="line"/>
			<point x="447" y="54" type="line"/>
			<point x="95" y="54" type="line"/>
		</contour>
	</outline>
</glyph>
<glyph name="lslash" format="2">
	<advance width="212"/>
	<unicode hex="0142"/>
	<outline>
		<contour>
			<point x="24" y="0" type="line"/>
			<point x="84" y="0" type="line"/>
			<point x="239" y="731" type="line"/>
			<point x="176" y="717" type="line"/>
		</contour>
		<contour>
			<point x="25" y="230" type="line"/>
			<point x="210" y="339" type="line"/>
			<point x="223" y="400" type="line"/>
			<point x="38" y="291" type="line"/>
		</contour>
	</outline>
</glyph>
<glyph name="Eng" format="2">
	<advance width="590"/>
	<unicode hex="014A"/>
	<outline>
		<contour>
			<point x="34" y="0" type="line"/>
			<point x="96" y="0" type="line"/>
			<point x="243" y="690" type="line"/>
			<point x="181" y="690" type="line"/>
		</contour>
		<contour>
			<point x="199" y="690" type="line"/>
			<point x="383" y="0" type="line"/>
			<point x="445" y="0" type="line"/>
			<point x="261" y="690" type="line"/>
		</contour>
		<contour>
			<point x="203" y="-173" type="line"/>
			<point x="223" y="-184"/>
			<point x="254" y="-193"/>
			<point x="283" y="-193" type="curve"/>
			<point x="360" y="-193"/>
			<point x="414" y="-147"/>
			<point x="435" y="-48" type="curve" smooth="yes"/>
			<point x="592" y="690" type="line"/>
			<point x="530" y="690" type="line"/>
			<point x="373" y="-47" type="line" smooth="yes"/>
			<point x="358" y="-116"/>
			<point x="324" y="-140"/>
			<point x="280" y="-140" type="curve"/>
			<point x="261" y="-140"/>
			<point x="240" y="-134"/>
			<point x="225" y="-127" type="curve"/>
		</contour>
	</outline>
</glyph>
<glyph name="eng" format="2">
	<advance width="460"/>
	<unicode hex="014B"/>
	<outline>
		<contour>
			<point x="16" y="0" type="line"/>
			<point x="76" y="0" type="line"/>
			<point x="135" y="278" type="line" smooth="yes"/>
			<point x="160" y="398"/>
			<point x="210" y="465"/>
			<point x="282" y="465" type="curve"/>
			<point x="330" y="465"/>
			<point x="342" y="437"/>
			<point x="342" y="395" type="curve" smooth="yes"/>
			<point x="342" y="362"/>
			<point x="336" y="331"/>
			<point x="332" y="312" type="curve" smooth="yes"/>
			<point x="256" y="-47" type="line" smooth="yes"/>
			<point x="241" y="-116"/>
			<point x="207" y="-140"/>
			<point x="163" y="-140" type="curve"/>
			<point x="144" y="-140"/>
			<point x="123" y="-134"/>
			<point x="108" y="-127" type="curve"/>
			<point x="86" y="-173" type="line"/>
			<point x="106" y="-184"/>
			<point x="137" y="-193"/>
			<point x="166" y="-193" type="curve"/>
			<point x="243" y="-193"/>
			<point x="295" y="-147"/>
			<point x="316" y="-48" type="curve" smooth="yes"/>
			<point x="393" y="314" type="line" smooth="yes"/>
			<point x="397" y="333"/>
			<point x="403" y="369"/>
			<point x="403" y="412" type="curve" smooth="yes"/>
			<point x="403" y="460"/>
			<point x="382" y="518"/>
			<point x="300" y="518" type="curve"/>
			<point x="229" y="518"/>
			<point x="194" y="473"/>
			<point x="152" y="402" type="curve"/>
			<point x="161" y="397" type="line"/>
			<point x="165" y="510" type="line"/>
			<point x="109" y="510" type="line"/>
			<point x="109" y="485" type="line" smooth="yes"/>
			<point x="109" y="452"/>
			<point x="105" y="421"/>
			<point x="98" y="388" type="curve" smooth="yes"/>
		</contour>
	</outline>
</glyph>
<glyph name="OE" format="2">
	<advance width="780"/>
	<unicode hex="0152"/>
	<outline>
		<contour>
			<point x="62" y="252" type="curve" smooth="yes"/>
			<point x="62" y="97"/>
			<point x="148" y="0"/>
			<point x="298" y="0" type="curve" smooth="yes"/>
			<point x="363" y="0" type="line"/>
			<point x="374" y="54" type="line"/>
			<point x="309" y="54" type="line" smooth="yes"/>
			<point x="182" y="54"/>
			<point x="127" y="140"/>
			<point x="127" y="256" type="curve" smooth="yes"/>
			<point x="127" y="437"/>
			<point x="222" y="636"/>
			<point x="429" y="636" type="curve" smooth="yes"/>
			<point x="498" y="636" type="line"/>
			<point x="510" y="690" type="line"/>
			<point x="441" y="690" type="line" smooth="yes"/>
			<point x="193" y="690"/>
			<point x="62" y="485"/>
		</contour>
		<contour>
			<point x="350" y="0" type="line"/>
			<point x="412" y="0" type="line"/>
			<point x="559" y="690" type="line"/>
			<point x="497" y="690" type="line"/>
		</contour>
		<contour>
			<point x="380" y="0" type="line"/>
			<point x="656" y="0" type="line"/>
			<point x="667" y="54" type="line"/>
			<point x="391" y="54" type="line"/>
		</contour>
		<contour>
			<point x="448" y="322" type="line"/>
			<point x="673" y="322" type="line"/>
			<point x="684" y="374" type="line"/>
			<point x="459" y="374" type="line"/>
		</contour>
		<contour>
			<point x="515" y="636" type="line"/>
			<point x="786" y="636" type="line"/>
			<point x="798" y="690" type="line"/>
			<point x="527" y="690" type="line"/>
		</contour>
	</outline>
</glyph>
<glyph name="oe" format="2">
	<advance width="724"/>
	<unicode hex="0153"/>
	<outline>
		<contour>
			<point x="37" y="166" type="curve" smooth="yes"/>
			<point x="37" y="56"/>
			<point x="99" y="-8"/>
			<point x="192" y="-8" type="curve" smooth="yes"/>
			<point x="338" y="-8"/>
			<point x="412" y="170"/>
			<point x="412" y="344" type="curve" smooth="yes"/>
			<point x="412" y="451"/>
			<point x="370" y="518"/>
			<point x="283" y="518" type="curve"/>
			<point x="136" y="518"/>
			<point x="37" y="343"/>
		</contour>
		<contour>
			<point x="97" y="176" type="curve" smooth="yes"/>
			<point x="97" y="311"/>
			<point x="168" y="463"/>
			<point x="278" y="463" type="curve"/>
			<point x="332" y="463"/>
			<point x="352" y="421"/>
			<point x="352" y="334" type="curve" smooth="yes"/>
			<point x="352" y="191"/>
			<point x="299" y="47"/>
			<point x="197" y="47" type="curve" smooth="yes"/>
			<point x="141" y="47"/>
			<point x="97" y="90"/>
		</contour>
		<contour>
			<point x="345" y="167" type="curve" smooth="yes"/>
			<point x="345" y="57"/>
			<point x="390" y="-8"/>
			<point x="475" y="-8" type="curve" smooth="yes"/>
			<point x="546" y="-8"/>
			<point x="589" y="32"/>
			<point x="632" y="91" type="curve"/>
			<point x="595" y="126" type="line"/>
			<point x="559" y="77"/>
			<point x="532" y="47"/>
			<point x="480" y="47" type="curve" smooth="yes"/>
			<point x="423" y="47"/>
			<point x="394" y="91"/>
			<point x="394" y="176" type="curve" smooth="yes"/>
			<point x="394" y="318"/>
			<point x="446" y="463"/>
			<point x="563" y="463" type="curve" smooth="yes"/>
			<point x="595" y="463"/>
			<point x="635" y="434"/>
			<point x="635" y="390" type="curve" smooth="yes"/>
			<point x="635" y="345"/>
			<point x="600" y="286"/>
			<point x="495" y="286" type="curve" smooth="yes"/>
			<point x="463" y="286"/>
			<point x="436" y="289"/>
			<point x="394" y="295" type="curve"/>
			<point x="385" y="246" type="line"/>
			<point x="430" y="239"/>
			<point x="461" y="236"/>
			<point x="497" y="236" type="curve" smooth="yes"/>
			<point x="639" y="236"/>
			<point x="695" y="319"/>
			<point x="695" y="394" type="curve" smooth="yes"/>
			<point x="695" y="466"/>
			<point x="631" y="518"/>
			<point x="568" y="518" type="curve" smooth="yes"/>
			<point x="413" y="518"/>
			<point x="345" y="351"/>
		</contour>
	</outline>
</glyph>
<glyph name="Tbar" format="2">
	<advance width="571"/>
	<unicode hex="0166"/>
	<outline>
		<contour>
			<point x="111" y="308" type="line"/>
			<point x="470" y="308" type="line"/>
			<point x="481" y="358" type="line"/>
			<point x="122" y="358" type="line"/>
		</contour>
		<contour>
			<point x="113" y="636" type="line"/>
			<point x="607" y="636" type="line"/>
			<point x="619" y="690" type="line"/>
			<point x="125" y="690" type="line"/>
		</contour>
		<contour>
			<point x="194" y="0" type="line"/>
			<point x="256" y="0" type="line"/>
			<point x="403" y="690" type="line"/>
			<point x="341" y="690" type="line"/>
		</contour>
	</outline>
</glyph>
<glyph name="Tbar" format="1">
  <advance width="462.33597244768475"/>
  <unicode hex="0166"/>
  <outline>
    <contour>
      <point x="74" y="296" type="line"/>
      <point x="396" y="296" type="line"/>
      <point x="411" y="369" type="line"/>
      <point x="89" y="369" type="line"/>
    </contour>
    <contour>
      <point x="94" y="608" type="line"/>
      <point x="507" y="608" type="line"/>
      <point x="525" y="690" type="line"/>
      <point x="112" y="690" type="line"/>
    </contour>
    <contour>
      <point x="128" y="0" type="line"/>
      <point x="217" y="0" type="line"/>
      <point x="364" y="690" type="line"/>
      <point x="275" y="690" type="line"/>
    </contour>
  </outline>
</glyph>
<glyph name="tbar" format="2">
  <advance width="341"/>
  <unicode hex="0167"/>
  <outline>
    <contour>
      <point x="18" y="243" type="line"/>
      <point x="293" y="243" type="line"/>
      <point x="306" y="306" type="line"/>
      <point x="31" y="306" type="line"/>
    </contour>
    <contour>
      <point x="51" y="445" type="line"/>
      <point x="333" y="445" type="line"/>
      <point x="349" y="515" type="line"/>
      <point x="67" y="515" type="line"/>
    </contour>
    <contour>
      <point x="63" y="106" type="curve" smooth="yes"/>
      <point x="63" y="35"/>
      <point x="101" y="-10"/>
      <point x="173" y="-10" type="curve" smooth="yes"/>
      <point x="205" y="-10"/>
      <point x="236" y="-2"/>
      <point x="261" y="10" type="curve"/>
      <point x="249" y="87" type="line"/>
      <point x="229" y="78"/>
      <point x="214" y="72"/>
      <point x="194" y="72" type="curve" smooth="yes"/>
      <point x="168" y="72"/>
      <point x="154" y="88"/>
      <point x="154" y="123" type="curve" smooth="yes"/>
      <point x="154" y="134"/>
      <point x="156" y="153"/>
      <point x="160" y="170" type="curve" smooth="yes"/>
      <point x="265" y="656" type="line"/>
      <point x="173" y="640" type="line"/>
      <point x="73" y="170" type="line" smooth="yes"/>
      <point x="69" y="151"/>
      <point x="63" y="127"/>
    </contour>
  </outline>
</glyph>
<glyph name="Schwa" format="2">
	<advance width="599"/>
	<unicode hex="018F"/>
	<outline>
		<contour>
			<point x="56" y="242" type="curve" smooth="yes"/>
			<point x="56" y="103"/>
			<point x="118" y="-10"/>
			<point x="248" y="-10" type="curve"/>
			<point x="460" y="-10"/>
			<point x="562" y="211"/>
			<point x="562" y="440" type="curve" smooth="yes"/>
			<point x="562" y="586"/>
			<point x="514" y="700"/>
			<point x="383" y="700" type="curve" smooth="yes"/>
			<point x="300" y="700"/>
			<point x="257" y="683"/>
			<point x="186" y="642" type="curve"/>
			<point x="207" y="589" type="line"/>
			<point x="267" y="625"/>
			<point x="306" y="640"/>
			<point x="374" y="640" type="curve" smooth="yes"/>
			<point x="481" y="640"/>
			<point x="498" y="542"/>
			<point x="498" y="437" type="curve" smooth="yes"/>
			<point x="498" y="246"/>
			<point x="428" y="47"/>
			<point x="259" y="47" type="curve"/>
			<point x="141" y="47"/>
			<point x="117" y="153"/>
			<point x="117" y="245" type="curve" smooth="yes"/>
			<point x="117" y="282"/>
			<point x="127" y="317"/>
			<point x="135" y="334" type="curve"/>
			<point x="113" y="300" type="line"/>
			<point x="511" y="300" type="line"/>
			<point x="524" y="360" type="line"/>
			<point x="74" y="360" type="line"/>
			<point x="74" y="360"/>
			<point x="56" y="311"/>
		</contour>
	</outline>
</glyph>
<glyph name="florin" format="2">
	<advance width="600"/>
	<unicode hex="0192"/>
	<outline>
		<contour>
			<point x="14" y="-173" type="line"/>
			<point x="32" y="-183"/>
			<point x="56" y="-193"/>
			<point x="96" y="-193" type="curve"/>
			<point x="137" y="-193"/>
			<point x="211" y="-179"/>
			<point x="235" y="-69" type="curve" smooth="yes"/>
			<point x="375" y="572" type="line" smooth="yes"/>
			<point x="391" y="645"/>
			<point x="427" y="674"/>
			<point x="480" y="674" type="curve"/>
			<point x="504" y="674"/>
			<point x="526" y="668"/>
			<point x="551" y="654" type="curve"/>
			<point x="576" y="704" type="line"/>
			<point x="555" y="718"/>
			<point x="520" y="728"/>
			<point x="487" y="728" type="curve"/>
			<point x="397" y="728"/>
			<point x="337" y="680"/>
			<point x="315" y="575" type="curve" smooth="yes"/>
			<point x="189" y="-20" type="line" smooth="yes"/>
			<point x="167" y="-125"/>
			<point x="131" y="-138"/>
			<point x="88" y="-138" type="curve"/>
			<point x="69" y="-138"/>
			<point x="52" y="-134"/>
			<point x="35" y="-126" type="curve"/>
		</contour>
		<contour>
			<point x="198" y="460" type="line"/>
			<point x="498" y="460" type="line"/>
			<point x="508" y="510" type="line"/>
			<point x="208" y="510" type="line"/>
		</contour>
	</outline>
</glyph>
<glyph name="Oogonek" format="2">
  <advance width="585"/>
  <unicode hex="01EA"/>
  <outline>
    <contour>
      <point x="350" y="-172" type="curve"/>
      <point x="330" y="-126" type="line"/>
      <point x="316" y="-135"/>
      <point x="299" y="-140"/>
      <point x="287" y="-140" type="curve" smooth="yes"/>
      <point x="269" y="-140"/>
      <point x="260" y="-126"/>
      <point x="260" y="-111" type="curve" smooth="yes"/>
      <point x="260" y="-66"/>
      <point x="318" y="-15"/>
      <point x="380" y="39" type="curve" smooth="yes"/>
      <point x="481" y="125"/>
      <point x="563" y="277"/>
      <point x="563" y="459" type="curve" smooth="yes"/>
      <point x="563" y="611"/>
      <point x="491" y="700"/>
      <point x="376" y="700" type="curve" smooth="yes"/>
      <point x="196" y="700"/>
      <point x="49" y="485"/>
      <point x="49" y="231" type="curve" smooth="yes"/>
      <point x="49" y="79"/>
      <point x="120" y="-10"/>
      <point x="237" y="-10" type="curve" smooth="yes"/>
      <point x="249" y="-10"/>
      <point x="261" y="-9"/>
      <point x="273" y="-7" type="curve"/>
      <point x="236" y="-31"/>
      <point x="202" y="-70"/>
      <point x="202" y="-121" type="curve"/>
      <point x="202" y="-160"/>
      <point x="226" y="-195"/>
      <point x="278" y="-195" type="curve"/>
      <point x="304" y="-195"/>
      <point x="328" y="-187"/>
    </contour>
    <contour>
      <point x="144" y="243" type="curve"/>
      <point x="144" y="443"/>
      <point x="253" y="615"/>
      <point x="365" y="615" type="curve" smooth="yes"/>
      <point x="432" y="615"/>
      <point x="469" y="555"/>
      <point x="469" y="447" type="curve"/>
      <point x="469" y="243"/>
      <point x="360" y="75"/>
      <point x="247" y="75" type="curve" smooth="yes"/>
      <point x="180" y="75"/>
      <point x="144" y="135"/>
    </contour>
  </outline>
</glyph>
<glyph name="oogonek" format="1">
  <advance width="471.1951059083184"/>
  <unicode hex="01EB"/>
  <outline>
    <contour>
      <point x="276" y="-172" type="curve"/>
      <point x="256" y="-126" type="line"/>
      <point x="242" y="-135"/>
      <point x="225" y="-140"/>
      <point x="213" y="-140" type="curve" smooth="yes"/>
      <point x="195" y="-140"/>
      <point x="186" y="-126"/>
      <point x="186" y="-111" type="curve" smooth="yes"/>
      <point x="186" y="-65"/>
      <point x="252" y="-16"/>
      <point x="311" y="45" type="curve" smooth="yes"/>
      <point x="380" y="116"/>
      <point x="432" y="227"/>
      <point x="432" y="350" type="curve" smooth="yes"/>
      <point x="432" y="455"/>
      <point x="373" y="525"/>
      <point x="283" y="525" type="curve" smooth="yes"/>
      <point x="138" y="525"/>
      <point x="31" y="357"/>
      <point x="31" y="177" type="curve"/>
      <point x="31" y="61"/>
      <point x="89" y="-9"/>
      <point x="179" y="-10" type="curve" smooth="yes"/>
      <point x="185" y="-10"/>
      <point x="190" y="-10"/>
      <point x="196" y="-9" type="curve"/>
      <point x="160" y="-33"/>
      <point x="128" y="-72"/>
      <point x="128" y="-121" type="curve"/>
      <point x="128" y="-160"/>
      <point x="152" y="-195"/>
      <point x="204" y="-195" type="curve"/>
      <point x="230" y="-195"/>
      <point x="254" y="-187"/>
    </contour>
    <contour>
      <point x="115" y="184" type="curve" smooth="yes"/>
      <point x="115" y="304"/>
      <point x="188" y="449"/>
      <point x="275" y="449" type="curve"/>
      <point x="322" y="449"/>
      <point x="346" y="408"/>
      <point x="346" y="337" type="curve" smooth="yes"/>
      <point x="346" y="204"/>
      <point x="271" y="66"/>
      <point x="185" y="66" type="curve" smooth="yes"/>
      <point x="140" y="66"/>
      <point x="115" y="106"/>
    </contour>
  </outline>
</glyph>
<glyph name="jdotless" format="2">
	<advance width="230"/>
	<unicode hex="0237"/>
	<anchor x="173" y="508" name="top"/>
	<outline>
		<contour>
			<point x="-118" y="-173" type="line"/>
			<point x="-98" y="-184"/>
			<point x="-80" y="-193"/>
			<point x="-51" y="-193" type="curve"/>
			<point x="11" y="-193"/>
			<point x="63" y="-147"/>
			<point x="84" y="-48" type="curve" smooth="yes"/>
			<point x="202" y="510" type="line"/>
			<point x="142" y="510" type="line"/>
			<point x="24" y="-47" type="line" smooth="yes"/>
			<point x="9" y="-116"/>
			<point x="-20" y="-140"/>
			<point x="-51" y="-140" type="curve"/>
			<point x="-70" y="-140"/>
			<point x="-81" y="-134"/>
			<point x="-96" y="-127" type="curve"/>
		</contour>
	</outline>
</glyph>
<glyph name="ipa:schwa" format="2">
	<advance width="453"/>
	<unicode hex="0259"/>
	<outline>
		<contour>
			<point x="30" y="168" type="curve" smooth="yes"/>
			<point x="30" y="75"/>
			<point x="69" y="-8"/>
			<point x="178" y="-8" type="curve" smooth="yes"/>
			<point x="339" y="-8"/>
			<point x="403" y="151"/>
			<point x="403" y="317" type="curve" smooth="yes"/>
			<point x="403" y="460"/>
			<point x="339" y="518"/>
			<point x="254" y="518" type="curve" smooth="yes"/>
			<point x="203" y="518"/>
			<point x="165" y="505"/>
			<point x="111" y="467" type="curve"/>
			<point x="137" y="424" type="line"/>
			<point x="179" y="454"/>
			<point x="212" y="463"/>
			<point x="249" y="463" type="curve" smooth="yes"/>
			<point x="303" y="463"/>
			<point x="346" y="423"/>
			<point x="346" y="314" type="curve" smooth="yes"/>
			<point x="346" y="172"/>
			<point x="303" y="46"/>
			<point x="183" y="46" type="curve" smooth="yes"/>
			<point x="107" y="46"/>
			<point x="89" y="104"/>
			<point x="89" y="172" type="curve" smooth="yes"/>
			<point x="89" y="212"/>
			<point x="105" y="240"/>
			<point x="105" y="240" type="curve"/>
			<point x="79" y="216" type="line"/>
			<point x="347" y="216" type="line"/>
			<point x="358" y="266" type="line"/>
			<point x="46" y="266" type="line"/>
			<point x="46" y="266"/>
			<point x="30" y="220"/>
		</contour>
	</outline>
</glyph>
<glyph name="nhookleft" format="2">
  <advance width="509"/>
  <unicode hex="0272"/>
  <outline>
    <contour>
      <point x="-142" y="-175" type="line"/>
      <point x="-124" y="-186"/>
      <point x="-98" y="-195"/>
      <point x="-69" y="-195" type="curve" smooth="yes"/>
      <point x="11" y="-195"/>
      <point x="67" y="-155"/>
      <point x="92" y="-34" type="curve" smooth="yes"/>
      <point x="152" y="263" type="line" smooth="yes"/>
      <point x="176" y="381"/>
      <point x="239" y="448"/>
      <point x="303" y="448" type="curve" smooth="yes"/>
      <point x="339" y="448"/>
      <point x="365" y="422"/>
      <point x="365" y="373" type="curve"/>
      <point x="365" y="349"/>
      <point x="363" y="333"/>
      <point x="359" y="314" type="curve" smooth="yes"/>
      <point x="292" y="0" type="line"/>
      <point x="380" y="0" type="line"/>
      <point x="447" y="315" type="line" smooth="yes"/>
      <point x="451" y="332"/>
      <point x="456" y="361"/>
      <point x="456" y="388" type="curve" smooth="yes"/>
      <point x="456" y="476"/>
      <point x="407" y="525"/>
      <point x="329" y="525" type="curve" smooth="yes"/>
      <point x="271" y="525"/>
      <point x="209" y="485"/>
      <point x="172" y="415" type="curve"/>
      <point x="183" y="402" type="line"/>
      <point x="188" y="515" type="line"/>
      <point x="104" y="515" type="line"/>
      <point x="104" y="482" type="line" smooth="yes"/>
      <point x="104" y="450"/>
      <point x="100" y="423"/>
      <point x="93" y="391" type="curve" smooth="yes"/>
      <point x="5" y="-32" type="line" smooth="yes"/>
      <point x="-9" y="-97"/>
      <point x="-36" y="-120"/>
      <point x="-72" y="-120" type="curve" smooth="yes"/>
      <point x="-87" y="-120"/>
      <point x="-104" y="-115"/>
      <point x="-116" y="-107" type="curve"/>
    </contour>
  </outline>
</glyph>
<glyph name="caron" format="1">
  <advance width="500"/>
  <unicode hex="02C7"/>
  <outline>
    <contour>
      <point x="221" y="739" type="line"/>
      <point x="271" y="589" type="line"/>
      <point x="353" y="589" type="line"/>
      <point x="290" y="739" type="line"/>
    </contour>
    <contour>
      <point x="273" y="589" type="line"/>
      <point x="361" y="589" type="line"/>
      <point x="473" y="739" type="line"/>
      <point x="398" y="739" type="line"/>
    </contour>
    <contour>
      <point x="299" y="514" type="move" name="_top"/>
    </contour>
  </outline>
</glyph>
<glyph name="breve" format="2">
	<advance width="600"/>
	<unicode hex="02D8"/>
	<anchor x="348" y="510" name="_top"/>
	<note>
		breve
	</note>
	<outline>
		<contour>
			<point x="267" y="707" type="curve"/>
			<point x="267" y="645"/>
			<point x="301" y="595"/>
			<point x="376" y="595" type="curve"/>
			<point x="446" y="595"/>
			<point x="500" y="634"/>
			<point x="520" y="730" type="curve"/>
			<point x="470" y="730" type="line"/>
			<point x="451" y="669"/>
			<point x="424" y="645"/>
			<point x="381" y="645" type="curve"/>
			<point x="335" y="645"/>
			<point x="317" y="671"/>
			<point x="317" y="712" type="curve" smooth="yes"/>
			<point x="317" y="717"/>
			<point x="317" y="722"/>
			<point x="318" y="730" type="curve"/>
			<point x="269" y="730" type="line"/>
			<point x="268" y="724"/>
			<point x="267" y="715"/>
		</contour>
	</outline>
</glyph>
<glyph name="dotaccent" format="2">
	<advance width="600"/>
	<unicode hex="02D9"/>
	<note>
		dotaccent
	</note>
	<outline>
		<contour>
			<point x="342" y="676" type="curve" smooth="yes"/>
			<point x="342" y="655"/>
			<point x="355" y="639"/>
			<point x="378" y="639" type="curve" smooth="yes"/>
			<point x="406" y="639"/>
			<point x="429" y="664"/>
			<point x="429" y="691" type="curve" smooth="yes"/>
			<point x="429" y="712"/>
			<point x="416" y="728"/>
			<point x="393" y="728" type="curve" smooth="yes"/>
			<point x="365" y="728"/>
			<point x="342" y="703"/>
		</contour>
	</outline>
</glyph>
<glyph name="ring" format="2">
	<advance width="600"/>
	<unicode hex="02DA"/>
	<note>
		ring
	</note>
	<outline>
		<contour>
			<point x="280" y="670" type="curve"/>
			<point x="280" y="616"/>
			<point x="320" y="585"/>
			<point x="371" y="585" type="curve"/>
			<point x="440" y="585"/>
			<point x="494" y="638"/>
			<point x="494" y="710" type="curve"/>
			<point x="494" y="764"/>
			<point x="454" y="795"/>
			<point x="403" y="795" type="curve"/>
			<point x="334" y="795"/>
			<point x="280" y="742"/>
		</contour>
		<contour>
			<point x="326" y="675" type="curve"/>
			<point x="326" y="718.80951"/>
			<point x="357" y="755"/>
			<point x="398" y="755" type="curve"/>
			<point x="428" y="755"/>
			<point x="448" y="734.62964"/>
			<point x="448" y="705" type="curve"/>
			<point x="448" y="661"/>
			<point x="417" y="625"/>
			<point x="376" y="625" type="curve"/>
			<point x="346" y="625"/>
			<point x="326" y="645"/>
		</contour>
	</outline>
</glyph>
<glyph name="ogonek" format="1">
  <advance width="500"/>
  <unicode hex="02DB"/>
  <outline>
    <contour>
      <point x="111" y="-121" type="curve" smooth="yes"/>
      <point x="111" y="-159"/>
      <point x="136" y="-195"/>
      <point x="187" y="-195" type="curve" smooth="yes"/>
      <point x="214" y="-195"/>
      <point x="237" y="-187"/>
      <point x="259" y="-172" type="curve"/>
      <point x="239" y="-126" type="line"/>
      <point x="225" y="-135"/>
      <point x="208" y="-140"/>
      <point x="196" y="-140" type="curve" smooth="yes"/>
      <point x="178" y="-140"/>
      <point x="169" y="-126"/>
      <point x="169" y="-111" type="curve" smooth="yes"/>
      <point x="169" y="-74"/>
      <point x="203" y="-36"/>
      <point x="266" y="0" type="curve"/>
      <point x="190" y="0" type="line"/>
      <point x="149" y="-23"/>
      <point x="111" y="-64"/>
    </contour>
    <contour>
      <point x="190" y="0" type="move" name="_ogonek"/>
    </contour>
  </outline>
</glyph>
<glyph name="hungarumlaut" format="2">
	<advance width="600"/>
	<unicode hex="02DD"/>
	<note>
		hungarumlaut
	</note>
	<outline>
		<contour>
			<point x="263" y="585" type="line"/>
			<point x="316" y="585" type="line"/>
			<point x="423" y="735" type="line"/>
			<point x="350" y="735" type="line"/>
		</contour>
		<contour>
			<point x="413" y="585" type="line"/>
			<point x="466" y="585" type="line"/>
			<point x="583" y="735" type="line"/>
			<point x="510" y="735" type="line"/>
		</contour>
	</outline>
</glyph>
<glyph name="gravecomb" format="2">
	<advance width="0"/>
	<unicode hex="0300"/>
	<anchor x="57" y="510" name="_top"/>
	<anchor x="102" y="720" name="top"/>
	<outline>
		<contour>
			<point x="-29" y="735" type="line"/>
			<point x="53" y="585" type="line"/>
			<point x="101" y="585" type="line"/>
			<point x="39" y="735" type="line"/>
		</contour>
	</outline>
</glyph>
<glyph name="acutecomb" format="2">
	<advance width="0"/>
	<unicode hex="0301"/>
	<anchor x="55" y="510" name="_top"/>
	<anchor x="97" y="712" name="top"/>
	<outline>
		<contour>
			<point x="37" y="570" type="line"/>
			<point x="92" y="570" type="line"/>
			<point x="228" y="720" type="line"/>
			<point x="144" y="720" type="line"/>
		</contour>
	</outline>
</glyph>
<glyph name="tildecomb" format="2">
	<advance width="0"/>
	<unicode hex="0303"/>
	<anchor x="55" y="510" name="_top"/>
	<anchor x="102" y="717" name="top"/>
	<outline>
		<contour>
			<point x="-66" y="610" type="curve"/>
			<point x="-22" y="610" type="line"/>
			<point x="-8" y="654"/>
			<point x="8" y="669"/>
			<point x="28" y="669" type="curve"/>
			<point x="62" y="669"/>
			<point x="79" y="605"/>
			<point x="130" y="605" type="curve"/>
			<point x="177" y="605"/>
			<point x="208" y="645"/>
			<point x="228" y="715" type="curve"/>
			<point x="184" y="715" type="line"/>
			<point x="170" y="671"/>
			<point x="154" y="656"/>
			<point x="135" y="656" type="curve"/>
			<point x="99" y="656"/>
			<point x="83" y="720"/>
			<point x="32" y="720" type="curve"/>
			<point x="-16" y="720"/>
			<point x="-46" y="680"/>
		</contour>
	</outline>
</glyph>
<glyph name="macroncomb" format="2">
	<advance width="0"/>
	<unicode hex="0304"/>
	<anchor x="55" y="510" name="_top"/>
	<anchor x="99" y="720" name="top"/>
	<outline>
		<contour>
			<point x="-49" y="640" type="line"/>
			<point x="222" y="640" type="line"/>
			<point x="232" y="690" type="line"/>
			<point x="-39" y="690" type="line"/>
		</contour>
	</outline>
</glyph>
<glyph name="brevecomb" format="2">
	<advance width="0"/>
	<unicode hex="0306"/>
	<anchor x="57" y="510" name="_top"/>
	<anchor x="88" y="716" name="top"/>
	<outline>
		<contour>
			<point x="-33" y="707" type="curve"/>
			<point x="-33" y="645"/>
			<point x="1" y="595"/>
			<point x="76" y="595" type="curve"/>
			<point x="146" y="595"/>
			<point x="200" y="634"/>
			<point x="220" y="730" type="curve"/>
			<point x="170" y="730" type="line"/>
			<point x="151" y="669"/>
			<point x="124" y="645"/>
			<point x="81" y="645" type="curve"/>
			<point x="35" y="645"/>
			<point x="17" y="671"/>
			<point x="17" y="712" type="curve" smooth="yes"/>
			<point x="17" y="717"/>
			<point x="17" y="722"/>
			<point x="18" y="730" type="curve"/>
			<point x="-31" y="730" type="line"/>
			<point x="-32" y="724"/>
			<point x="-33" y="715"/>
		</contour>
	</outline>
</glyph>
<glyph name="dieresiscomb" format="2">
	<advance width="0"/>
	<unicode hex="0308"/>
	<anchor x="55" y="510" name="_top"/>
	<anchor x="98" y="720" name="top"/>
	<outline>
		<contour>
			<point x="-41" y="678" type="curve" smooth="yes"/>
			<point x="-41" y="658"/>
			<point x="-29" y="643"/>
			<point x="-7" y="643" type="curve" smooth="yes"/>
			<point x="20" y="643"/>
			<point x="42" y="667"/>
			<point x="42" y="693" type="curve" smooth="yes"/>
			<point x="42" y="713"/>
			<point x="30" y="728"/>
			<point x="8" y="728" type="curve" smooth="yes"/>
			<point x="-19" y="728"/>
			<point x="-41" y="704"/>
		</contour>
		<contour>
			<point x="149" y="678" type="curve" smooth="yes"/>
			<point x="149" y="658"/>
			<point x="161" y="643"/>
			<point x="183" y="643" type="curve" smooth="yes"/>
			<point x="210" y="643"/>
			<point x="232" y="667"/>
			<point x="232" y="693" type="curve" smooth="yes"/>
			<point x="232" y="713"/>
			<point x="220" y="728"/>
			<point x="198" y="728" type="curve" smooth="yes"/>
			<point x="171" y="728"/>
			<point x="149" y="704"/>
		</contour>
	</outline>
</glyph>
<glyph name="hookabovecomb" format="2">
	<advance width="0"/>
	<unicode hex="0309"/>
	<anchor x="102" y="720" name="top"/>
	<anchor x="57" y="510" name="_top"/>
	<outline>
		<contour>
			<point x="41" y="573" type="line"/>
			<point x="81" y="573" type="line"/>
			<point x="81" y="640" type="line"/>
			<point x="121" y="644"/>
			<point x="152" y="674"/>
			<point x="152" y="718" type="curve" smooth="yes"/>
			<point x="152" y="753"/>
			<point x="126" y="783"/>
			<point x="62" y="783" type="curve" smooth="yes"/>
			<point x="34" y="783" type="line"/>
			<point x="34" y="742" type="line"/>
			<point x="99" y="742"/>
			<point x="106" y="729"/>
			<point x="106" y="712" type="curve" smooth="yes"/>
			<point x="106" y="689"/>
			<point x="92" y="676"/>
			<point x="63" y="676" type="curve" smooth="yes"/>
			<point x="41" y="676" type="line"/>
		</contour>
	</outline>
</glyph>
<glyph name="ringcomb" format="2">
	<advance width="0"/>
	<unicode hex="030A"/>
	<anchor x="55" y="510" name="_top"/>
	<anchor x="114" y="776" name="top"/>
	<outline>
		<contour>
			<point x="-20" y="670" type="curve"/>
			<point x="-20" y="616"/>
			<point x="20" y="585"/>
			<point x="71" y="585" type="curve"/>
			<point x="140" y="585"/>
			<point x="194" y="638"/>
			<point x="194" y="710" type="curve"/>
			<point x="194" y="764"/>
			<point x="154" y="795"/>
			<point x="103" y="795" type="curve"/>
			<point x="34" y="795"/>
			<point x="-20" y="742"/>
		</contour>
		<contour>
			<point x="26" y="675" type="curve"/>
			<point x="26" y="719"/>
			<point x="57" y="755"/>
			<point x="98" y="755" type="curve"/>
			<point x="128" y="755"/>
			<point x="148" y="735"/>
			<point x="148" y="705" type="curve"/>
			<point x="148" y="661"/>
			<point x="117" y="625"/>
			<point x="76" y="625" type="curve"/>
			<point x="46" y="625"/>
			<point x="26" y="645"/>
		</contour>
	</outline>
</glyph>
<glyph name="caroncomb" format="2">
	<advance width="0"/>
	<unicode hex="030C"/>
	<anchor x="56" y="510" name="_top"/>
	<anchor x="98" y="720" name="top"/>
	<outline>
		<contour>
			<point x="-19" y="735" type="line"/>
			<point x="38" y="585" type="line"/>
			<point x="101" y="585" type="line"/>
			<point x="33" y="735" type="line"/>
		</contour>
		<contour>
			<point x="38" y="585" type="line"/>
			<point x="110" y="585" type="line"/>
			<point x="232" y="735" type="line"/>
			<point x="175" y="735" type="line"/>
		</contour>
	</outline>
</glyph>
<glyph name="commaturnedabovecomb" format="2">
	<advance width="0"/>
	<unicode hex="0312"/>
	<anchor x="54" y="510" name="_top"/>
	<outline>
		<contour>
			<point x="46" y="570" type="line"/>
			<point x="102" y="570" type="line"/>
			<point x="147" y="720" type="line"/>
			<point x="108" y="720" type="line"/>
		</contour>
	</outline>
</glyph>
<glyph name="Delta" format="2">
	<advance width="508"/>
	<unicode hex="0394"/>
	<outline>
		<contour>
			<point x="-40" y="0" type="line"/>
			<point x="29" y="0" type="line"/>
			<point x="351" y="645" type="line"/>
			<point x="359" y="690" type="line"/>
			<point x="312" y="690" type="line"/>
		</contour>
		<contour>
			<point x="7" y="0" type="line"/>
			<point x="383" y="0" type="line"/>
			<point x="395" y="56" type="line"/>
			<point x="19" y="56" type="line"/>
		</contour>
		<contour>
			<point x="324" y="645" type="line"/>
			<point x="369" y="0" type="line"/>
			<point x="429" y="0" type="line"/>
			<point x="371" y="690" type="line"/>
			<point x="327" y="690" type="line"/>
		</contour>
	</outline>
</glyph>
<glyph name="Omega" format="2">
	<advance width="579"/>
	<unicode hex="03A9"/>
	<outline>
		<contour>
			<point x="53" y="0" type="line"/>
			<point x="216" y="0" type="line"/>
			<point x="231" y="70" type="line"/>
			<point x="183" y="124"/>
			<point x="148" y="225"/>
			<point x="148" y="331" type="curve" smooth="yes"/>
			<point x="148" y="477"/>
			<point x="201" y="634"/>
			<point x="346" y="634" type="curve"/>
			<point x="444" y="634"/>
			<point x="471" y="546"/>
			<point x="471" y="440" type="curve"/>
			<point x="471" y="306"/>
			<point x="421" y="140"/>
			<point x="317" y="70" type="curve"/>
			<point x="302" y="0" type="line"/>
			<point x="465" y="0" type="line"/>
			<point x="477" y="56" type="line"/>
			<point x="337" y="56" type="line"/>
			<point x="304" y="13" type="line"/>
			<point x="472" y="98"/>
			<point x="539" y="297"/>
			<point x="539" y="451" type="curve"/>
			<point x="539" y="583"/>
			<point x="483" y="698"/>
			<point x="352" y="698" type="curve"/>
			<point x="165" y="697"/>
			<point x="83" y="522"/>
			<point x="83" y="336" type="curve" smooth="yes"/>
			<point x="83" y="228"/>
			<point x="134" y="86"/>
			<point x="218" y="16" type="curve"/>
			<point x="205" y="56" type="line"/>
			<point x="65" y="56" type="line"/>
		</contour>
	</outline>
</glyph>
<glyph name="mu" format="2">
  <advance width="526"/>
  <unicode hex="03BC"/>
  <outline>
    <contour>
      <point x="-30" y="-185" type="line"/>
      <point x="50" y="-185" type="line"/>
      <point x="112" y="129" type="line"/>
      <point x="80" y="62" type="line"/>
      <point x="89" y="16"/>
      <point x="122" y="-10"/>
      <point x="170" y="-10" type="curve" smooth="yes"/>
      <point x="228" y="-10"/>
      <point x="290" y="29"/>
      <point x="327" y="99" type="curve"/>
      <point x="320" y="98" type="line"/>
      <point x="311" y="38"/>
      <point x="336" y="-10"/>
      <point x="390" y="-10" type="curve"/>
      <point x="406" y="-10"/>
      <point x="418" y="-6"/>
      <point x="428" y="0" type="curve"/>
      <point x="444" y="67" type="line"/>
      <point x="439" y="65"/>
      <point x="433" y="63"/>
      <point x="425" y="63" type="curve" smooth="yes"/>
      <point x="406" y="63"/>
      <point x="398" y="81"/>
      <point x="412" y="149" type="curve" smooth="yes"/>
      <point x="489" y="515" type="line"/>
      <point x="401" y="515" type="line"/>
      <point x="347" y="251" type="line" smooth="yes"/>
      <point x="323" y="133"/>
      <point x="260" y="67"/>
      <point x="198" y="67" type="curve" smooth="yes"/>
      <point x="142" y="67"/>
      <point x="120" y="110"/>
      <point x="144" y="223" type="curve" smooth="yes"/>
      <point x="206" y="515" type="line"/>
      <point x="118" y="515" type="line"/>
    </contour>
  </outline>
</glyph>
<glyph name="pi" format="2">
  <advance width="511"/>
  <unicode hex="03C0"/>
  <outline>
    <contour>
      <point x="34" y="0" type="line"/>
      <point x="122" y="0" type="line"/>
      <point x="231" y="515" type="line"/>
      <point x="143" y="515" type="line"/>
    </contour>
    <contour>
      <point x="69" y="440" type="line"/>
      <point x="506" y="440" type="line"/>
      <point x="521" y="515" type="line"/>
      <point x="84" y="515" type="line"/>
    </contour>
    <contour>
      <point x="288" y="101" type="line" smooth="yes"/>
      <point x="275.5" y="34.33333333333333"/>
      <point x="294.7894736842105" y="-10.0"/>
      <point x="354" y="-10" type="curve"/>
      <point x="369" y="-10"/>
      <point x="385" y="-6"/>
      <point x="398" y="0" type="curve"/>
      <point x="413" y="70" type="line"/>
      <point x="407" y="68"/>
      <point x="399" y="66"/>
      <point x="393" y="66" type="curve" smooth="yes"/>
      <point x="377.0" y="66.0"/>
      <point x="371" y="76"/>
      <point x="378" y="108" type="curve" smooth="yes"/>
      <point x="461" y="510" type="line"/>
      <point x="373" y="510" type="line"/>
    </contour>
  </outline>
</glyph>
<glyph name="endash" format="2">
  <advance width="513"/>
  <unicode hex="2013"/>
  <outline>
    <contour>
      <point x="41" y="240" type="line"/>
      <point x="454" y="240" type="line"/>
      <point x="469" y="312" type="line"/>
      <point x="56" y="312" type="line"/>
    </contour>
  </outline>
</glyph>
<glyph name="emdash" format="2">
	<advance width="851"/>
	<unicode hex="2014"/>
	<outline>
		<contour>
			<point x="49" y="250" type="line"/>
			<point x="788" y="250" type="line"/>
			<point x="799" y="300" type="line"/>
			<point x="60" y="300" type="line"/>
		</contour>
	</outline>
</glyph>
<glyph name="quoteleft" format="2">
  <advance width="197"/>
  <unicode hex="2018"/>
  <outline>
    <contour>
      <point x="244" y="720" type="line"/>
      <point x="190" y="720" type="line"/>
      <point x="121" y="594" type="line" smooth="yes"/>
      <point x="104" y="563"/>
      <point x="91" y="540"/>
      <point x="91" y="516" type="curve" smooth="yes"/>
      <point x="91" y="483"/>
      <point x="110" y="462"/>
      <point x="141" y="462" type="curve" smooth="yes"/>
      <point x="177" y="462"/>
      <point x="209" y="491"/>
      <point x="209" y="530" type="curve" smooth="yes"/>
      <point x="209" y="552"/>
      <point x="194" y="568"/>
      <point x="180" y="576" type="curve"/>
    </contour>
  </outline>
</glyph>
<glyph name="quoteright" format="2">
  <advance width="198"/>
  <unicode hex="2019"/>
  <outline>
    <contour>
      <point x="87" y="471" type="line"/>
      <point x="141" y="471" type="line"/>
      <point x="210" y="597" type="line" smooth="yes"/>
      <point x="227" y="628"/>
      <point x="240" y="651"/>
      <point x="240" y="675" type="curve" smooth="yes"/>
      <point x="240" y="708"/>
      <point x="221" y="729"/>
      <point x="190" y="729" type="curve" smooth="yes"/>
      <point x="154" y="729"/>
      <point x="122" y="700"/>
      <point x="122" y="661" type="curve" smooth="yes"/>
      <point x="122" y="639"/>
      <point x="137" y="623"/>
      <point x="151" y="615" type="curve"/>
    </contour>
  </outline>
</glyph>
<glyph name="dagger" format="2">
	<advance width="353"/>
	<unicode hex="2020"/>
	<outline>
		<contour>
			<point x="66" y="460" type="line"/>
			<point x="362" y="460" type="line"/>
			<point x="372" y="510" type="line"/>
			<point x="76" y="510" type="line"/>
		</contour>
		<contour>
			<point x="49" y="-185" type="line"/>
			<point x="105" y="-185" type="line"/>
			<point x="297" y="720" type="line"/>
			<point x="241" y="720" type="line"/>
		</contour>
	</outline>
</glyph>
<glyph name="daggerdbl" format="2">
	<advance width="353"/>
	<unicode hex="2021"/>
	<outline>
		<contour>
			<point x="-27" y="25" type="line"/>
			<point x="269" y="25" type="line"/>
			<point x="280" y="75" type="line"/>
			<point x="-16" y="75" type="line"/>
		</contour>
		<contour>
			<point x="66" y="460" type="line"/>
			<point x="362" y="460" type="line"/>
			<point x="372" y="510" type="line"/>
			<point x="76" y="510" type="line"/>
		</contour>
		<contour>
			<point x="49" y="-185" type="line"/>
			<point x="105" y="-185" type="line"/>
			<point x="297" y="720" type="line"/>
			<point x="241" y="720" type="line"/>
		</contour>
	</outline>
</glyph>
<glyph name="bullet" format="2">
	<advance width="393"/>
	<unicode hex="2022"/>
	<outline>
		<contour>
			<point x="76" y="274" type="curve" smooth="yes"/>
			<point x="76" y="212"/>
			<point x="117" y="170"/>
			<point x="182" y="170" type="curve" smooth="yes"/>
			<point x="257" y="170"/>
			<point x="320" y="227"/>
			<point x="320" y="306" type="curve" smooth="yes"/>
			<point x="320" y="368"/>
			<point x="279" y="410"/>
			<point x="214" y="410" type="curve" smooth="yes"/>
			<point x="139" y="410"/>
			<point x="76" y="353"/>
		</contour>
	</outline>
</glyph>
<glyph name="guilsinglleft" format="2">
	<advance width="298"/>
	<unicode hex="2039"/>
	<outline>
		<contour>
			<point x="44" y="255" type="line"/>
			<point x="146" y="78" type="line"/>
			<point x="211" y="78" type="line"/>
			<point x="95" y="275" type="line"/>
			<point x="51" y="284" type="line"/>
		</contour>
		<contour>
			<point x="44" y="255" type="line"/>
			<point x="95" y="262" type="line"/>
			<point x="294" y="453" type="line"/>
			<point x="225" y="453" type="line"/>
			<point x="51" y="284" type="line"/>
		</contour>
	</outline>
</glyph>
<glyph name="guilsinglright" format="2">
	<advance width="298"/>
	<unicode hex="203A"/>
	<outline>
		<contour>
			<point x="-3" y="78" type="line"/>
			<point x="66" y="78" type="line"/>
			<point x="240" y="247" type="line"/>
			<point x="247" y="276" type="line"/>
			<point x="196" y="269" type="line"/>
		</contour>
		<contour>
			<point x="80" y="453" type="line"/>
			<point x="196" y="256" type="line"/>
			<point x="240" y="247" type="line"/>
			<point x="247" y="276" type="line"/>
			<point x="145" y="453" type="line"/>
		</contour>
	</outline>
</glyph>
<glyph name="lira" format="2">
	<advance width="500"/>
	<unicode hex="20A4"/>
	<outline>
		<contour>
			<point x="2" y="0" type="line"/>
			<point x="362" y="0" type="line"/>
			<point x="374" y="56" type="line"/>
			<point x="14" y="56" type="line"/>
		</contour>
		<contour>
			<point x="4" y="10" type="line"/>
			<point x="158" y="64"/>
			<point x="238" y="186"/>
			<point x="238" y="291" type="curve"/>
			<point x="238" y="356"/>
			<point x="234" y="387"/>
			<point x="234" y="438" type="curve"/>
			<point x="234" y="559"/>
			<point x="255" y="641"/>
			<point x="355" y="641" type="curve"/>
			<point x="404" y="641"/>
			<point x="437" y="621"/>
			<point x="464" y="577" type="curve"/>
			<point x="518" y="609" type="line"/>
			<point x="485" y="669"/>
			<point x="431" y="698"/>
			<point x="360" y="698" type="curve"/>
			<point x="225" y="698"/>
			<point x="173" y="603"/>
			<point x="173" y="441" type="curve"/>
			<point x="173" y="387"/>
			<point x="178" y="354"/>
			<point x="178" y="319" type="curve" smooth="yes"/>
			<point x="178" y="249"/>
			<point x="152" y="129"/>
			<point x="15" y="60" type="curve"/>
		</contour>
		<contour>
			<point x="97" y="246" type="line"/>
			<point x="337" y="246" type="line"/>
			<point x="349" y="300" type="line"/>
			<point x="109" y="300" type="line"/>
		</contour>
		<contour>
			<point x="97" y="376" type="line"/>
			<point x="337" y="376" type="line"/>
			<point x="349" y="430" type="line"/>
			<point x="109" y="430" type="line"/>
		</contour>
	</outline>
</glyph>
<glyph name="peseta" format="2">
	<advance width="517"/>
	<unicode hex="20A7"/>
	<outline>
		<component base="P"/>
		<contour>
			<point x="48" y="432" type="line"/>
			<point x="545" y="432" type="line"/>
			<point x="555" y="482" type="line"/>
			<point x="58" y="482" type="line"/>
		</contour>
	</outline>
</glyph>
<glyph name="Euro" format="2">
	<advance width="600"/>
	<unicode hex="20AC"/>
	<outline>
		<contour>
			<point x="23" y="231" type="line"/>
			<point x="393" y="231" type="line"/>
			<point x="405" y="285" type="line"/>
			<point x="35" y="285" type="line"/>
		</contour>
		<contour>
			<point x="60" y="405" type="line"/>
			<point x="430" y="405" type="line"/>
			<point x="442" y="459" type="line"/>
			<point x="72" y="459" type="line"/>
		</contour>
		<contour>
			<point x="104" y="232" type="curve" smooth="yes"/>
			<point x="104" y="74"/>
			<point x="191" y="-8"/>
			<point x="313" y="-8" type="curve" smooth="yes"/>
			<point x="388" y="-8"/>
			<point x="468" y="26"/>
			<point x="534" y="91" type="curve"/>
			<point x="495" y="128" type="line"/>
			<point x="446" y="78"/>
			<point x="382" y="49"/>
			<point x="325" y="49" type="curve" smooth="yes"/>
			<point x="232" y="49"/>
			<point x="169" y="112"/>
			<point x="169" y="239" type="curve" smooth="yes"/>
			<point x="169" y="477"/>
			<point x="316" y="641"/>
			<point x="451" y="641" type="curve" smooth="yes"/>
			<point x="510" y="641"/>
			<point x="559" y="618"/>
			<point x="587" y="568" type="curve"/>
			<point x="638" y="602" type="line"/>
			<point x="599" y="667"/>
			<point x="540" y="698"/>
			<point x="463" y="698" type="curve" smooth="yes"/>
			<point x="288" y="698"/>
			<point x="104" y="525"/>
		</contour>
	</outline>
</glyph>
<glyph name="Euro" format="1">
  <advance width="500"/>
  <unicode hex="20AC"/>
  <outline>
    <contour>
      <point x="21.5" y="223" type="line"/>
      <point x="331.5" y="223" type="line"/>
      <point x="347.5" y="295" type="line"/>
      <point x="37.5" y="295" type="line"/>
    </contour>
    <contour>
      <point x="58.5" y="395" type="line"/>
      <point x="368.5" y="395" type="line"/>
      <point x="383.5" y="467" type="line"/>
      <point x="73.5" y="467" type="line"/>
    </contour>
    <contour>
      <point x="75.5" y="236" type="curve" smooth="yes"/>
      <point x="75.5" y="81.0"/>
      <point x="146.5" y="-10"/>
      <point x="257.5" y="-10" type="curve"/>
      <point x="327.5" y="-10"/>
      <point x="391.95631067961165" y="28.0"/>
      <point x="450.5" y="89" type="curve"/>
      <point x="394.5" y="148" type="line"/>
      <point x="356.0151515151515" y="103.0"/>
      <point x="310.79545454545456" y="77.0"/>
      <point x="267.5" y="77" type="curve" smooth="yes"/>
      <point x="203.13551401869154" y="77.0"/>
      <point x="170.5" y="136.0"/>
      <point x="170.5" y="251" type="curve" smooth="yes"/>
      <point x="170.5" y="437.0"/>
      <point x="283.3917748917749" y="613.0"/>
      <point x="391.5" y="613" type="curve" smooth="yes"/>
      <point x="426.467032967033" y="613.0"/>
      <point x="452.5" y="595"/>
      <point x="477.5" y="552" type="curve"/>
      <point x="551.5" y="612" type="line"/>
      <point x="510.87254901960785" y="672.0"/>
      <point x="463.4738562091503" y="700.0"/>
      <point x="403.5" y="700" type="curve" smooth="yes"/>
      <point x="222.03254437869828" y="700.0"/>
      <point x="75.5" y="486.0"/>
    </contour>
  </outline>
</glyph>
<glyph name="kip" format="2">
	<advance width="509"/>
	<unicode hex="20AD"/>
	<outline>
		<component base="K"/>
		<contour>
			<point x="28" y="326" type="line"/>
			<point x="429" y="326" type="line"/>
			<point x="439" y="376" type="line"/>
			<point x="38" y="376" type="line"/>
		</contour>
	</outline>
</glyph>
<glyph name="guarani" format="2">
	<advance width="556"/>
	<unicode hex="20B2"/>
	<anchor x="355" y="690" name="top"/>
	<anchor x="265" y="0" name="bottom"/>
	<outline>
		<contour>
			<point x="67" y="229" type="curve" smooth="yes"/>
			<point x="67" y="79"/>
			<point x="152" y="-8"/>
			<point x="247" y="-8" type="curve" smooth="yes"/>
			<point x="326" y="-8"/>
			<point x="396" y="20"/>
			<point x="451" y="87" type="curve"/>
			<point x="413" y="128" type="line"/>
			<point x="363" y="69"/>
			<point x="320" y="52"/>
			<point x="256" y="52" type="curve" smooth="yes"/>
			<point x="193" y="52"/>
			<point x="132" y="116"/>
			<point x="132" y="236" type="curve" smooth="yes"/>
			<point x="132" y="452"/>
			<point x="246" y="641"/>
			<point x="364" y="641" type="curve" smooth="yes"/>
			<point x="412" y="641"/>
			<point x="460" y="609"/>
			<point x="495" y="563" type="curve"/>
			<point x="541" y="603" type="line"/>
			<point x="496" y="662"/>
			<point x="442" y="698"/>
			<point x="371" y="698" type="curve" smooth="yes"/>
			<point x="207" y="698"/>
			<point x="67" y="482"/>
		</contour>
		<contour>
			<point x="279" y="276" type="line"/>
			<point x="462" y="276" type="line"/>
			<point x="473" y="330" type="line"/>
			<point x="290" y="330" type="line"/>
		</contour>
		<contour>
			<point x="389" y="87" type="line"/>
			<point x="451" y="87" type="line"/>
			<point x="503" y="330" type="line"/>
			<point x="441" y="330" type="line"/>
		</contour>
		<component base="bar" xOffset="162" yOffset="84"/>
	</outline>
</glyph>
<glyph name="manat" format="2">
	<advance width="567"/>
	<unicode hex="20BC"/>
	<outline>
		<component base="U" xScale="-1" yScale="-1" xOffset="600" yOffset="690"/>
		<contour>
			<point x="193" y="0" type="line"/>
			<point x="249" y="0" type="line"/>
			<point x="426" y="832" type="line"/>
			<point x="370" y="832" type="line"/>
		</contour>
	</outline>
</glyph>
<glyph name="litre" format="2">
	<advance width="401"/>
	<unicode hex="2113"/>
	<outline>
		<contour>
			<point x="16" y="209" type="curve"/>
			<point x="27" y="162" type="line"/>
			<point x="231" y="239"/>
			<point x="412" y="417"/>
			<point x="412" y="592" type="curve" smooth="yes"/>
			<point x="412" y="682"/>
			<point x="363" y="728"/>
			<point x="312" y="728" type="curve" smooth="yes"/>
			<point x="222" y="728"/>
			<point x="181" y="668"/>
			<point x="157" y="556" type="curve" smooth="yes"/>
			<point x="68" y="135" type="line" smooth="yes"/>
			<point x="45" y="25"/>
			<point x="90" y="-8"/>
			<point x="145" y="-8" type="curve" smooth="yes"/>
			<point x="171" y="-8"/>
			<point x="215" y="0"/>
			<point x="244" y="17" type="curve"/>
			<point x="231" y="69" type="line"/>
			<point x="204" y="53"/>
			<point x="180" y="47"/>
			<point x="157" y="47" type="curve"/>
			<point x="122" y="47"/>
			<point x="112" y="71"/>
			<point x="126" y="138" type="curve" smooth="yes"/>
			<point x="215" y="554" type="line" smooth="yes"/>
			<point x="229" y="621"/>
			<point x="259" y="673"/>
			<point x="301" y="673" type="curve" smooth="yes"/>
			<point x="335" y="673"/>
			<point x="354" y="642"/>
			<point x="354" y="589" type="curve" smooth="yes"/>
			<point x="354" y="443"/>
			<point x="209" y="285"/>
		</contour>
	</outline>
</glyph>
<glyph name="trademark" format="2">
	<advance width="899"/>
	<unicode hex="2122"/>
	<outline>
		<contour>
			<point x="132" y="643" type="line"/>
			<point x="424" y="643" type="line"/>
			<point x="434" y="690" type="line"/>
			<point x="142" y="690" type="line"/>
		</contour>
		<contour>
			<point x="177" y="290" type="line"/>
			<point x="229" y="290" type="line"/>
			<point x="314" y="690" type="line"/>
			<point x="262" y="690" type="line"/>
		</contour>
		<contour>
			<point x="425" y="290" type="line"/>
			<point x="477" y="290" type="line"/>
			<point x="562" y="690" type="line"/>
			<point x="510" y="690" type="line"/>
		</contour>
		<contour>
			<point x="544" y="690" type="line"/>
			<point x="599" y="369" type="line"/>
			<point x="627" y="369" type="line"/>
			<point x="640" y="426" type="line"/>
			<point x="594" y="690" type="line"/>
		</contour>
		<contour>
			<point x="621" y="369" type="line"/>
			<point x="649" y="369" type="line"/>
			<point x="842" y="690" type="line"/>
			<point x="784" y="690" type="line"/>
			<point x="630" y="426" type="line"/>
		</contour>
		<contour>
			<point x="739" y="290" type="line"/>
			<point x="791" y="290" type="line"/>
			<point x="876" y="690" type="line"/>
			<point x="824" y="690" type="line"/>
		</contour>
	</outline>
</glyph>
<glyph name="partialdiff" format="2">
	<advance width="628"/>
	<unicode hex="2202"/>
	<outline>
		<contour>
			<point x="60" y="156" type="curve" smooth="yes"/>
			<point x="60" y="54"/>
			<point x="113" y="-8"/>
			<point x="213" y="-8" type="curve" smooth="yes"/>
			<point x="394" y="-8"/>
			<point x="570" y="238"/>
			<point x="570" y="497" type="curve" smooth="yes"/>
			<point x="570" y="630"/>
			<point x="518" y="728"/>
			<point x="384" y="728" type="curve"/>
			<point x="353" y="728"/>
			<point x="317" y="723"/>
			<point x="286" y="712" type="curve"/>
			<point x="294" y="658" type="line"/>
			<point x="319" y="667"/>
			<point x="353" y="673"/>
			<point x="380" y="673" type="curve" smooth="yes"/>
			<point x="477" y="673"/>
			<point x="510" y="600"/>
			<point x="510" y="488" type="curve" smooth="yes"/>
			<point x="510" y="261"/>
			<point x="362" y="47"/>
			<point x="222" y="47" type="curve" smooth="yes"/>
			<point x="160" y="47"/>
			<point x="119" y="78"/>
			<point x="119" y="159" type="curve" smooth="yes"/>
			<point x="119" y="291"/>
			<point x="236" y="425"/>
			<point x="352" y="425" type="curve" smooth="yes"/>
			<point x="422" y="425"/>
			<point x="473" y="384"/>
			<point x="490" y="320" type="curve"/>
			<point x="509" y="379" type="line"/>
			<point x="484" y="438"/>
			<point x="434" y="480"/>
			<point x="360" y="480" type="curve"/>
			<point x="205" y="480"/>
			<point x="60" y="319"/>
		</contour>
	</outline>
</glyph>
<glyph name="product" format="2">
	<advance width="701"/>
	<unicode hex="220F"/>
	<outline>
		<contour>
			<point x="52" y="-185" type="line"/>
			<point x="114" y="-185" type="line"/>
			<point x="300" y="690" type="line"/>
			<point x="238" y="690" type="line"/>
		</contour>
		<contour>
			<point x="146" y="634" type="line"/>
			<point x="706" y="634" type="line"/>
			<point x="718" y="690" type="line"/>
			<point x="158" y="690" type="line"/>
		</contour>
		<contour>
			<point x="390" y="-185" type="line"/>
			<point x="452" y="-185" type="line"/>
			<point x="638" y="690" type="line"/>
			<point x="576" y="690" type="line"/>
		</contour>
	</outline>
</glyph>
<glyph name="minus" format="2">
	<advance width="500"/>
	<unicode hex="2212"/>
	<outline>
		<contour>
			<point x="53" y="263" type="line"/>
			<point x="441" y="263" type="line"/>
			<point x="452" y="317" type="line"/>
			<point x="64" y="317" type="line"/>
		</contour>
	</outline>
</glyph>
<glyph name="divisionslash" format="2">
	<advance width="430"/>
	<unicode hex="2215"/>
	<outline>
		<contour>
			<point x="-60" y="0" type="line"/>
			<point x="10" y="0" type="line"/>
			<point x="517" y="690" type="line"/>
			<point x="447" y="690" type="line"/>
		</contour>
	</outline>
</glyph>
<glyph name="approxequal" format="2">
  <advance width="500"/>
  <unicode hex="2248"/>
  <outline>
    <contour>
      <point x="20.0" y="176" type="curve"/>
      <point x="58.0" y="119" type="line"/>
      <point x="85.0" y="145"/>
      <point x="115.0" y="165"/>
      <point x="145.0" y="165" type="curve" smooth="yes"/>
      <point x="204.0" y="165"/>
      <point x="229.0" y="109"/>
      <point x="301.0" y="109" type="curve"/>
      <point x="347.0" y="109"/>
      <point x="391.0" y="136"/>
      <point x="432.0" y="174" type="curve"/>
      <point x="394.0" y="231" type="line"/>
      <point x="367.0" y="206"/>
      <point x="337.0" y="188"/>
      <point x="306.0" y="188" type="curve" smooth="yes"/>
      <point x="247.0" y="188"/>
      <point x="223.0" y="242"/>
      <point x="150.0" y="242" type="curve"/>
      <point x="105.0" y="242"/>
      <point x="61.0" y="216"/>
    </contour>
    <contour>
      <point x="70.0" y="404" type="curve"/>
      <point x="107.0" y="347" type="line"/>
      <point x="134.0" y="373"/>
      <point x="165.0" y="390"/>
      <point x="195.0" y="390" type="curve" smooth="yes"/>
      <point x="254.0" y="390"/>
      <point x="278.0" y="336"/>
      <point x="351.0" y="336" type="curve"/>
      <point x="396.0" y="336"/>
      <point x="440.0" y="363"/>
      <point x="481.0" y="402" type="curve"/>
      <point x="443.0" y="459" type="line"/>
      <point x="417.0" y="434"/>
      <point x="386.0" y="415"/>
      <point x="355.0" y="415" type="curve" smooth="yes"/>
      <point x="296.0" y="415"/>
      <point x="272.0" y="469"/>
      <point x="200.0" y="469" type="curve"/>
      <point x="154.0" y="469"/>
      <point x="110.0" y="443"/>
    </contour>
  </outline>
</glyph>
<glyph name="notequal" format="2">
	<advance width="600"/>
	<unicode hex="2260"/>
	<outline>
		<contour>
			<point x="52" y="153" type="line"/>
			<point x="494" y="153" type="line"/>
			<point x="505" y="207" type="line"/>
			<point x="63" y="207" type="line"/>
		</contour>
		<contour>
			<point x="94" y="-30" type="line"/>
			<point x="154" y="-30" type="line"/>
			<point x="510" y="610" type="line"/>
			<point x="450" y="610" type="line"/>
		</contour>
		<contour>
			<point x="98" y="373" type="line"/>
			<point x="540" y="373" type="line"/>
			<point x="552" y="427" type="line"/>
			<point x="110" y="427" type="line"/>
		</contour>
	</outline>
</glyph>
<glyph name="greaterequal" format="2">
	<advance width="600"/>
	<unicode hex="2265"/>
	<outline>
		<contour>
			<point x="75" y="76" type="line"/>
			<point x="475" y="76" type="line"/>
			<point x="487" y="130" type="line"/>
			<point x="87" y="130" type="line"/>
			<point x="87" y="130" type="line"/>
		</contour>
		<contour>
			<point x="93" y="162" type="line"/>
			<point x="529" y="330" type="line"/>
			<point x="537" y="368" type="line"/>
			<point x="499" y="375" type="line"/>
			<point x="106" y="222" type="line"/>
		</contour>
		<contour>
			<point x="163" y="494" type="line"/>
			<point x="493" y="347" type="line"/>
			<point x="531" y="341" type="line"/>
			<point x="540" y="382" type="line"/>
			<point x="176" y="550" type="line"/>
		</contour>
	</outline>
</glyph>
<glyph name="leftanglebracket-math" format="2">
	<advance width="383"/>
	<unicode hex="27E8"/>
	<outline>
		<contour>
			<point x="177" y="-185" type="line"/>
			<point x="221" y="-185" type="line"/>
			<point x="112" y="284" type="line"/>
			<point x="433" y="720" type="line"/>
			<point x="380" y="720" type="line"/>
			<point x="67" y="290" type="line"/>
		</contour>
	</outline>
</glyph>
<glyph name="rightanglebracket-math" format="2">
	<advance width="360"/>
	<unicode hex="27E9"/>
	<outline>
		<contour>
			<point x="-30" y="-185" type="line"/>
			<point x="17" y="-185" type="line"/>
			<point x="310" y="300" type="line"/>
			<point x="209" y="720" type="line"/>
			<point x="164" y="720" type="line"/>
			<point x="261" y="302" type="line"/>
		</contour>
	</outline>
</glyph>
<glyph name="gem" format="2">
	<advance width="1128"/>
	<unicode hex="F8FF"/>
	<outline>
		<contour>
			<point x="72" y="320" type="curve" smooth="yes"/>
			<point x="72" y="256"/>
			<point x="108" y="198"/>
			<point x="159" y="167" type="curve"/>
			<point x="159" y="473" type="line"/>
			<point x="108" y="442"/>
			<point x="72" y="384"/>
		</contour>
		<contour>
			<point x="188" y="320" type="curve" smooth="yes"/>
			<point x="188" y="221"/>
			<point x="268" y="141"/>
			<point x="366" y="141" type="curve"/>
			<point x="366" y="499" type="line"/>
			<point x="268" y="499"/>
			<point x="188" y="419"/>
		</contour>
		<contour>
			<point x="196" y="114" type="line"/>
			<point x="196" y="20"/>
			<point x="272" y="-56"/>
			<point x="366" y="-56" type="curve"/>
			<point x="366" y="114" type="line"/>
		</contour>
		<contour>
			<point x="196" y="526" type="curve"/>
			<point x="366" y="526" type="line"/>
			<point x="366" y="696" type="line"/>
			<point x="272" y="696"/>
			<point x="196" y="620"/>
		</contour>
		<contour>
			<point x="393" y="114" type="line"/>
			<point x="393" y="16"/>
			<point x="473" y="-64"/>
			<point x="572" y="-64" type="curve" smooth="yes"/>
			<point x="671" y="-64"/>
			<point x="751" y="16"/>
			<point x="751" y="114" type="curve"/>
		</contour>
		<contour>
			<point x="393" y="320" type="curve" smooth="yes"/>
			<point x="393" y="221"/>
			<point x="473" y="141"/>
			<point x="572" y="141" type="curve" smooth="yes"/>
			<point x="671" y="141"/>
			<point x="751" y="221"/>
			<point x="751" y="320" type="curve" smooth="yes"/>
			<point x="751" y="419"/>
			<point x="671" y="499"/>
			<point x="572" y="499" type="curve" smooth="yes"/>
			<point x="473" y="499"/>
			<point x="393" y="419"/>
		</contour>
		<contour>
			<point x="393" y="526" type="curve"/>
			<point x="751" y="526" type="line"/>
			<point x="751" y="624"/>
			<point x="671" y="704"/>
			<point x="572" y="704" type="curve" smooth="yes"/>
			<point x="473" y="704"/>
			<point x="393" y="624"/>
		</contour>
		<contour>
			<point x="419" y="-93" type="line"/>
			<point x="450" y="-144"/>
			<point x="508" y="-180"/>
			<point x="572" y="-180" type="curve" smooth="yes"/>
			<point x="636" y="-180"/>
			<point x="694" y="-144"/>
			<point x="725" y="-93" type="curve"/>
		</contour>
		<contour>
			<point x="419" y="733" type="curve"/>
			<point x="725" y="733" type="line"/>
			<point x="694" y="784"/>
			<point x="636" y="820"/>
			<point x="572" y="820" type="curve" smooth="yes"/>
			<point x="508" y="820"/>
			<point x="450" y="784"/>
		</contour>
		<contour>
			<point x="778" y="-56" type="line"/>
			<point x="872" y="-56"/>
			<point x="948" y="20"/>
			<point x="948" y="114" type="curve"/>
			<point x="778" y="114" type="line"/>
		</contour>
		<contour>
			<point x="778" y="141" type="line"/>
			<point x="876" y="141"/>
			<point x="956" y="221"/>
			<point x="956" y="320" type="curve" smooth="yes"/>
			<point x="956" y="419"/>
			<point x="876" y="499"/>
			<point x="778" y="499" type="curve"/>
		</contour>
		<contour>
			<point x="778" y="526" type="line"/>
			<point x="948" y="526" type="line"/>
			<point x="948" y="620"/>
			<point x="872" y="696"/>
			<point x="778" y="696" type="curve"/>
		</contour>
		<contour>
			<point x="985" y="167" type="line"/>
			<point x="1036" y="198"/>
			<point x="1072" y="256"/>
			<point x="1072" y="320" type="curve" smooth="yes"/>
			<point x="1072" y="384"/>
			<point x="1036" y="442"/>
			<point x="985" y="473" type="curve"/>
		</contour>
	</outline>
</glyph>
<glyph name="f_f" format="2">
	<advance width="540"/>
	<unicode hex="FB00"/>
	<outline>
		<contour>
			<point x="24" y="0" type="line"/>
			<point x="84" y="0" type="line"/>
			<point x="206" y="572" type="line" smooth="yes"/>
			<point x="220" y="640"/>
			<point x="246" y="675"/>
			<point x="290" y="675" type="curve" smooth="yes"/>
			<point x="309" y="675"/>
			<point x="322" y="671"/>
			<point x="341" y="658" type="curve"/>
			<point x="363" y="705" type="line"/>
			<point x="343" y="720"/>
			<point x="319" y="728"/>
			<point x="297" y="728" type="curve" smooth="yes"/>
			<point x="213" y="728"/>
			<point x="167" y="675"/>
			<point x="146" y="575" type="curve" smooth="yes"/>
		</contour>
		<contour>
			<point x="59" y="460" type="line"/>
			<point x="299" y="460" type="line"/>
			<point x="309" y="510" type="line"/>
			<point x="69" y="510" type="line"/>
		</contour>
		<contour>
			<point x="267" y="0" type="line"/>
			<point x="327" y="0" type="line"/>
			<point x="449" y="572" type="line" smooth="yes"/>
			<point x="463" y="640"/>
			<point x="504" y="675"/>
			<point x="553" y="675" type="curve" smooth="yes"/>
			<point x="578" y="675"/>
			<point x="601" y="670"/>
			<point x="624" y="658" type="curve"/>
			<point x="646" y="705" type="line"/>
			<point x="622" y="719"/>
			<point x="588" y="728"/>
			<point x="560" y="728" type="curve" smooth="yes"/>
			<point x="471" y="728"/>
			<point x="410" y="675"/>
			<point x="389" y="575" type="curve" smooth="yes"/>
		</contour>
		<contour>
			<point x="272" y="460" type="line"/>
			<point x="532" y="460" type="line"/>
			<point x="542" y="510" type="line"/>
			<point x="282" y="510" type="line"/>
		</contour>
	</outline>
</glyph>
<glyph name="I.alt" format="2">
	<advance width="270"/>
	<anchor x="221" y="690" name="top"/>
	<anchor x="75" y="0" name="bottom"/>
	<anchor x="44" y="0" name="ogonek"/>
	<outline>
		<contour>
			<point x="44" y="0" type="line"/>
			<point x="106" y="0" type="line"/>
			<point x="253" y="690" type="line"/>
			<point x="191" y="690" type="line"/>
		</contour>
	</outline>
</glyph>
<glyph name="acute.cap" format="2">
  <advance width="500"/>
  <anchor x="337" y="690" name="_top"/>
  <outline>
    <contour>
      <point x="296" y="750" type="line"/>
      <point x="378" y="750" type="line"/>
      <point x="516" y="885" type="line"/>
      <point x="404" y="885" type="line"/>
    </contour>
  </outline>
</glyph>
<glyph name="acutecomb.case" format="2">
	<advance width="0"/>
	<anchor x="99" y="720" name="_top"/>
	<anchor x="157" y="900" name="top"/>
	<outline>
		<contour>
			<point x="83" y="780" type="line"/>
			<point x="143" y="780" type="line"/>
			<point x="298" y="915" type="line"/>
			<point x="211" y="915" type="line"/>
		</contour>
	</outline>
</glyph>
<glyph name="aogonek.alt" format="1">
  <advance width="510.7587103681085"/>
  <outline>
    <contour>
      <point x="28" y="176" type="curve" smooth="yes"/>
      <point x="24" y="57"/>
      <point x="80" y="-10"/>
      <point x="156" y="-10" type="curve" smooth="yes"/>
      <point x="217" y="-10"/>
      <point x="274" y="29"/>
      <point x="311" y="101" type="curve"/>
      <point x="305" y="98" type="line"/>
      <point x="296" y="38"/>
      <point x="321" y="-10"/>
      <point x="375" y="-10" type="curve"/>
      <point x="391" y="-10"/>
      <point x="403" y="-6"/>
      <point x="413" y="0" type="curve"/>
      <point x="429" y="67" type="line"/>
      <point x="424" y="65"/>
      <point x="418" y="63"/>
      <point x="410" y="63" type="curve" smooth="yes"/>
      <point x="391" y="63"/>
      <point x="384" y="81"/>
      <point x="396" y="149" type="curve" smooth="yes"/>
      <point x="473" y="514" type="line"/>
      <point x="394" y="514" type="line"/>
      <point x="373" y="452" type="line"/>
      <point x="331" y="251" type="line" smooth="yes"/>
      <point x="306" y="135"/>
      <point x="238" y="68"/>
      <point x="183" y="68" type="curve" smooth="yes"/>
      <point x="142" y="68"/>
      <point x="115" y="106"/>
      <point x="118" y="185" type="curve" smooth="yes"/>
      <point x="123" y="327"/>
      <point x="194" y="451"/>
      <point x="274" y="451" type="curve" smooth="yes"/>
      <point x="312" y="451"/>
      <point x="344" y="431"/>
      <point x="372" y="388" type="curve"/>
      <point x="388" y="463" type="line"/>
      <point x="357" y="504"/>
      <point x="315" y="524"/>
      <point x="271" y="524" type="curve" smooth="yes"/>
      <point x="151" y="524"/>
      <point x="34" y="369"/>
    </contour>
    <contour>
      <point x="258" y="-121" type="curve" smooth="yes"/>
      <point x="258" y="-159"/>
      <point x="283" y="-195"/>
      <point x="334" y="-195" type="curve" smooth="yes"/>
      <point x="361" y="-195"/>
      <point x="384" y="-187"/>
      <point x="406" y="-172" type="curve"/>
      <point x="386" y="-126" type="line"/>
      <point x="372" y="-135"/>
      <point x="355" y="-140"/>
      <point x="343" y="-140" type="curve" smooth="yes"/>
      <point x="325" y="-140"/>
      <point x="316" y="-126"/>
      <point x="316" y="-111" type="curve" smooth="yes"/>
      <point x="316" y="-74"/>
      <point x="350" y="-36"/>
      <point x="413" y="0" type="curve"/>
      <point x="347" y="10" type="line"/>
      <point x="296" y="-23"/>
      <point x="258" y="-64"/>
    </contour>
  </outline>
</glyph>
<glyph name="breve.cap" format="2">
  <advance width="500"/>
  <anchor x="337" y="690" name="_top"/>
  <outline>
    <contour>
      <point x="257" y="851" type="curve" smooth="yes"/>
      <point x="257" y="804"/>
      <point x="285" y="751"/>
      <point x="355" y="751" type="curve" smooth="yes"/>
      <point x="424" y="751"/>
      <point x="475" y="793"/>
      <point x="493" y="882" type="curve"/>
      <point x="437" y="882" type="line"/>
      <point x="423" y="836"/>
      <point x="400" y="812"/>
      <point x="364" y="812" type="curve" smooth="yes"/>
      <point x="334" y="812"/>
      <point x="316" y="831"/>
      <point x="316" y="862" type="curve"/>
      <point x="316" y="869"/>
      <point x="317" y="876"/>
      <point x="318" y="882" type="curve"/>
      <point x="262" y="882" type="line"/>
      <point x="260" y="878"/>
      <point x="257" y="864"/>
    </contour>
  </outline>
</glyph>
<glyph name="caron.cap" format="2">
  <advance width="500"/>
  <anchor x="337" y="690" name="_top"/>
  <outline>
    <contour>
      <point x="240" y="885" type="line"/>
      <point x="301" y="750" type="line"/>
      <point x="394" y="750" type="line"/>
      <point x="315" y="885" type="line"/>
    </contour>
    <contour>
      <point x="301" y="750" type="line"/>
      <point x="404" y="750" type="line"/>
      <point x="515" y="885" type="line"/>
      <point x="439" y="885" type="line"/>
    </contour>
  </outline>
</glyph>
<glyph name="circumflex.cap" format="2">
	<advance width="600"/>
	<anchor x="387" y="690" name="_top"/>
	<note>
		circumflex.cap
	</note>
	<outline>
		<contour>
			<point x="261" y="750" type="line"/>
			<point x="321" y="750" type="line"/>
			<point x="469" y="885" type="line"/>
			<point x="387" y="885" type="line"/>
		</contour>
		<contour>
			<point x="397" y="885" type="line"/>
			<point x="484" y="750" type="line"/>
			<point x="538" y="750" type="line"/>
			<point x="469" y="885" type="line"/>
		</contour>
	</outline>
</glyph>
<glyph name="commaaccent.alt" format="1">
  <advance width="500"/>
  <outline>
    <contour>
      <point x="403" y="820" type="line"/>
      <point x="353" y="820" type="line"/>
      <point x="308" y="739" type="line" smooth="yes"/>
      <point x="291" y="708"/>
      <point x="275" y="682"/>
      <point x="275" y="655" type="curve" smooth="yes"/>
      <point x="275" y="624"/>
      <point x="291" y="605"/>
      <point x="321" y="605" type="curve" smooth="yes"/>
      <point x="356" y="605"/>
      <point x="388" y="635"/>
      <point x="388" y="673" type="curve" smooth="yes"/>
      <point x="388" y="696"/>
      <point x="378" y="710"/>
      <point x="359" y="718" type="curve"/>
    </contour>
    <contour>
      <point x="300" y="515" type="move" name="_top"/>
    </contour>
  </outline>
</glyph>
<glyph name="commaaccent" format="2">
  <advance width="500"/>
  <anchor x="190" y="0" name="_bottom"/>
  <outline>
    <contour>
      <point x="86" y="-307" type="line"/>
      <point x="136" y="-307" type="line"/>
      <point x="181" y="-226" type="line" smooth="yes"/>
      <point x="198" y="-195"/>
      <point x="214" y="-169"/>
      <point x="214" y="-142" type="curve" smooth="yes"/>
      <point x="214" y="-111"/>
      <point x="198" y="-92"/>
      <point x="168" y="-92" type="curve" smooth="yes"/>
      <point x="133" y="-92"/>
      <point x="101" y="-122"/>
      <point x="101" y="-160" type="curve" smooth="yes"/>
      <point x="101" y="-183"/>
      <point x="111" y="-197"/>
      <point x="130" y="-205" type="curve"/>
    </contour>
  </outline>
</glyph>
<glyph name="dieresis.cap" format="1">
  <advance width="500"/>
  <outline>
    <contour>
      <point x="222" y="801" type="curve" smooth="yes"/>
      <point x="222" y="778"/>
      <point x="237" y="760"/>
      <point x="264" y="760" type="curve" smooth="yes"/>
      <point x="293" y="760"/>
      <point x="323" y="784"/>
      <point x="323" y="823" type="curve" smooth="yes"/>
      <point x="323" y="847"/>
      <point x="308" y="865"/>
      <point x="282" y="865" type="curve" smooth="yes"/>
      <point x="251" y="865"/>
      <point x="222" y="839"/>
    </contour>
    <contour>
      <point x="404" y="801" type="curve" smooth="yes"/>
      <point x="404" y="778"/>
      <point x="419" y="760"/>
      <point x="446" y="760" type="curve" smooth="yes"/>
      <point x="475" y="760"/>
      <point x="505" y="784"/>
      <point x="505" y="823" type="curve" smooth="yes"/>
      <point x="505" y="847"/>
      <point x="490" y="865"/>
      <point x="464" y="865" type="curve" smooth="yes"/>
      <point x="433" y="865"/>
      <point x="404" y="839"/>
    </contour>
    <contour>
      <point x="337" y="690" type="move" name="_top"/>
    </contour>
  </outline>
</glyph>
<glyph name="grave.cap" format="2">
  <advance width="500"/>
  <anchor x="337" y="690" name="_top"/>
  <outline>
    <contour>
      <point x="252" y="885" type="line"/>
      <point x="334" y="750" type="line"/>
      <point x="408" y="750" type="line"/>
      <point x="349" y="885" type="line"/>
    </contour>
  </outline>
</glyph>
<glyph name="hungarumlaut.cap" format="2">
	<advance width="600"/>
	<anchor x="387" y="690" name="_top"/>
	<note>
		hungarumlaut.cap
	</note>
	<outline>
		<contour>
			<point x="284" y="750" type="line"/>
			<point x="337" y="750" type="line"/>
			<point x="455" y="885" type="line"/>
			<point x="382" y="885" type="line"/>
		</contour>
		<contour>
			<point x="441" y="750" type="line"/>
			<point x="494" y="750" type="line"/>
			<point x="622" y="885" type="line"/>
			<point x="549" y="885" type="line"/>
		</contour>
	</outline>
</glyph>
<glyph name="macron.cap" format="1">
  <advance width="500"/>
  <outline>
    <contour>
      <point x="226" y="776" type="line"/>
      <point x="484" y="776" type="line"/>
      <point x="498" y="843" type="line"/>
      <point x="240" y="843" type="line"/>
    </contour>
    <contour>
      <point x="337" y="690" type="move" name="_top"/>
    </contour>
  </outline>
</glyph>
<glyph name="ring.cap" format="2">
	<advance width="600"/>
	<anchor x="387" y="690" name="_top"/>
	<note>
		ring.cap
	</note>
	<outline>
		<contour>
			<point x="311" y="827" type="curve"/>
			<point x="311" y="775"/>
			<point x="350" y="740"/>
			<point x="401" y="740" type="curve" smooth="yes"/>
			<point x="471" y="740"/>
			<point x="526" y="785"/>
			<point x="526" y="852" type="curve"/>
			<point x="526" y="904"/>
			<point x="488" y="938"/>
			<point x="437" y="938" type="curve" smooth="yes"/>
			<point x="367" y="938"/>
			<point x="311" y="894"/>
		</contour>
		<contour>
			<point x="358" y="828" type="curve"/>
			<point x="358" y="863"/>
			<point x="385" y="898"/>
			<point x="431" y="898" type="curve" smooth="yes"/>
			<point x="459" y="898"/>
			<point x="480" y="881"/>
			<point x="480" y="850" type="curve"/>
			<point x="480" y="815"/>
			<point x="453" y="780"/>
			<point x="407" y="780" type="curve" smooth="yes"/>
			<point x="379" y="780"/>
			<point x="358" y="797"/>
		</contour>
	</outline>
</glyph>
<glyph name="ring_acute.cap" format="1">
  <advance width="500"/>
  <outline>
    <component base="ring.cap"/>
    <component base="acute.cap" xOffset="48" yOffset="234"/>
    <contour>
      <point x="337" y="690" type="move" name="_top"/>
    </contour>
  </outline>
</glyph>
<glyph name="seven.pl" format="2">
	<advance width="600"/>
	<outline>
		<contour>
			<point x="116" y="0" type="line"/>
			<point x="188" y="0" type="line"/>
			<point x="582" y="648" type="line"/>
			<point x="541" y="690" type="line"/>
		</contour>
		<contour>
			<point x="133" y="628" type="line"/>
			<point x="528" y="628" type="line"/>
			<point x="582" y="648" type="line"/>
			<point x="591" y="690" type="line"/>
			<point x="147" y="690" type="line"/>
		</contour>
	</outline>
</glyph>
<glyph name="tilde.cap" format="2">
	<advance width="600"/>
	<anchor x="387" y="690" name="_top"/>
	<note>
		tilde.cap
	</note>
	<outline>
		<contour>
			<point x="255" y="767" type="curve"/>
			<point x="299" y="767" type="line"/>
			<point x="313" y="810"/>
			<point x="331" y="826"/>
			<point x="353" y="826" type="curve"/>
			<point x="388" y="826"/>
			<point x="419" y="762"/>
			<point x="474" y="762" type="curve"/>
			<point x="523" y="762"/>
			<point x="552" y="800"/>
			<point x="569" y="870" type="curve"/>
			<point x="525" y="870" type="line"/>
			<point x="513" y="827"/>
			<point x="499" y="811"/>
			<point x="478" y="811" type="curve"/>
			<point x="443" y="811"/>
			<point x="413" y="875"/>
			<point x="358" y="875" type="curve"/>
			<point x="306" y="875"/>
			<point x="274" y="837"/>
		</contour>
	</outline>
</glyph>
<glyph name="u.alt" format="1">
  <advance width="525"/>
  <outline>
    <contour>
      <point x="44" y="131" type="curve" smooth="yes"/>
      <point x="44" y="40"/>
      <point x="93" y="-10"/>
      <point x="170" y="-10" type="curve" smooth="yes"/>
      <point x="228" y="-10"/>
      <point x="290" y="29"/>
      <point x="327" y="99" type="curve"/>
      <point x="320" y="98" type="line"/>
      <point x="311" y="38"/>
      <point x="336" y="-10"/>
      <point x="390" y="-10" type="curve"/>
      <point x="406" y="-10"/>
      <point x="418" y="-6"/>
      <point x="428" y="0" type="curve"/>
      <point x="444" y="67" type="line"/>
      <point x="439" y="65"/>
      <point x="433" y="63"/>
      <point x="425" y="63" type="curve" smooth="yes"/>
      <point x="406" y="63"/>
      <point x="398" y="81"/>
      <point x="412" y="149" type="curve" smooth="yes"/>
      <point x="489" y="515" type="line"/>
      <point x="401" y="515" type="line"/>
      <point x="347" y="251" type="line" smooth="yes"/>
      <point x="323" y="133"/>
      <point x="260" y="67"/>
      <point x="198" y="67" type="curve" smooth="yes"/>
      <point x="159" y="67"/>
      <point x="133" y="93"/>
      <point x="133" y="142" type="curve" smooth="yes"/>
      <point x="133" y="166"/>
      <point x="138" y="194"/>
      <point x="144" y="223" type="curve" smooth="yes"/>
      <point x="206" y="515" type="line"/>
      <point x="118" y="515" type="line"/>
      <point x="56" y="222" type="line" smooth="yes"/>
      <point x="50" y="192"/>
      <point x="44" y="154"/>
    </contour>
    <contour>
      <point x="302" y="514" type="move" name="top"/>
    </contour>
    <contour>
      <point x="353" y="0" type="move" name="ogonek"/>
    </contour>
    <contour>
      <point x="207" y="0" type="move" name="bottom"/>
    </contour>
  </outline>
</glyph>
